<svg width="76" height="75" viewBox="0 0 76 75" fill="none" xmlns="http://www.w3.org/2000/svg">
<path fill-rule="evenodd" clip-rule="evenodd" d="M38 0C58.7107 0 75.5 16.7893 75.5 37.5C75.5 58.2107 58.7107 75 38 75C17.2893 75 0.5 58.2107 0.5 37.5C0.5 16.7893 17.2893 0 38 0ZM38 4.36875C56.2974 4.37082 71.1289 19.2051 71.1275 37.5025C71.1261 55.7999 56.2924 70.6319 37.995 70.6312C19.6976 70.6306 4.865 55.7974 4.865 37.5C4.86525 28.7125 8.35645 20.285 14.5705 14.0716C20.7846 7.85825 29.2125 4.368 38 4.36875ZM26.1369 21.2344C24.9778 21.2206 23.8616 21.6721 23.0381 22.488C22.2147 23.3039 21.7528 24.4158 21.7559 25.575C21.7559 27.9945 23.7173 29.9559 26.1369 29.9559C28.5564 29.9559 30.5178 27.9945 30.5178 25.575C30.5209 24.4158 30.059 23.3039 29.2356 22.488C28.4122 21.6721 27.296 21.2206 26.1369 21.2344ZM62.9909 43.9594C60.9941 54.75 50.5794 63.7594 37.9953 63.7594C25.5116 63.7594 15.1578 54.8812 13.0437 44.2125C12.6153 41.55 14.7959 40.9219 16.85 41.4187C23.7215 43.4056 30.8476 44.3722 38 44.2875C45.1363 44.3702 52.2462 43.4069 59.1031 41.4281C61.1 40.9219 63.2384 41.4937 62.9909 43.9594ZM56.2119 45.4594C56.0169 45.5344 55.8191 45.5906 55.6194 45.6562C55.5988 45.6656 56.2588 45.45 56.2391 45.4594C50.3097 47.0917 44.1805 47.8838 38.0309 47.8125C30.6922 47.8125 24.1287 46.9969 19.6119 45.375C16.3372 44.4 16.9653 48.2531 19.2669 49.4344C25.1549 52.1149 31.561 53.4656 38.03 53.3906C45.725 53.3906 52.5819 51.6 57.1109 49.2844C59.2541 47.9062 59.6778 44.2125 56.2119 45.4594ZM49.8875 21.2344C48.7283 21.2206 47.612 21.6721 46.7884 22.4879C45.9649 23.3038 45.5028 24.4158 45.5056 25.575C45.4825 27.1556 46.3125 28.6261 47.6776 29.4232C49.0427 30.2202 50.7313 30.2202 52.0964 29.4232C53.4616 28.6261 54.2916 27.1556 54.2684 25.575C54.2713 24.4159 53.8093 23.3041 52.9859 22.4883C52.1626 21.6725 51.0465 21.2208 49.8875 21.2344Z" fill="#00B9C2"/>
</svg>
