<svg width="37" height="52" viewBox="0 0 37 52" fill="none" xmlns="http://www.w3.org/2000/svg">
<path d="M11.6951 0.0550728C7.77449 0.460827 4.33242 2.54493 2.1144 5.85551C0.761498 7.86583 -0.085215 10.6969 0.00681904 12.9101C0.0436326 13.7493 0.0988531 13.9982 0.60504 15.5014C0.908752 16.4143 1.68184 18.5353 2.32608 20.2229L3.4857 23.2845L3.94587 26.5397C4.43365 29.9886 4.88462 32.4969 5.33559 34.3136C6.10867 37.4029 7.56281 40.9716 8.31749 41.6356C8.92491 42.1705 9.94649 42.1151 11.0325 41.4788C12.1185 40.8425 12.3578 40.1601 12.7811 36.3885C13.3149 31.6393 13.7383 29.7858 14.6678 28.0152C16.168 25.1472 19.1959 24.5847 21.2575 26.7795C22.73 28.3379 23.4019 30.588 24.0185 36.0657C24.5063 40.4737 24.6995 40.9809 26.1261 41.6356C27.2673 42.1705 28.2521 42.0875 28.7398 41.4327C29.2184 40.7688 30.2124 38.5648 30.829 36.7666C31.6573 34.3505 32.2187 31.9713 33.1207 26.9824C33.6176 24.2159 33.7281 23.7456 34.179 22.5098C35.5688 18.6644 36.5535 15.6028 36.848 14.1827C37.5751 10.6877 35.624 5.77251 32.4764 3.14433C29.9915 1.06946 27.2029 0.0274086 24.1013 0.0274086C22.3895 0.0274086 21.1838 0.322502 19.2143 1.22622L18.4872 1.5582L17.7602 1.22622C15.533 0.202618 13.6923 -0.147804 11.6951 0.0550728ZM14.3457 2.10228C15.0544 2.24061 16.2508 2.67403 17.3644 3.19966C17.889 3.44865 18.3952 3.65152 18.4965 3.65152C18.5977 3.65152 18.9566 3.5132 19.2971 3.33799C20.1991 2.88613 21.4968 2.37893 22.3251 2.16684C23.1442 1.95474 24.6719 1.90863 25.6751 2.07462C30.783 2.91379 34.7313 7.21109 35.0258 12.2461C35.0718 13.0945 35.0534 13.3619 34.8601 14.1366C34.676 14.9296 33.0286 19.9278 32.0807 22.6021C31.8506 23.2476 31.6297 24.2435 31.326 25.9219C30.2952 31.7684 29.5958 34.6271 28.5466 37.3106C28.0128 38.6754 27.3501 39.9849 27.2029 39.9849C27.1476 39.9849 26.9636 39.9019 26.7979 39.8097C26.393 39.5607 26.2733 38.989 25.896 35.328C25.3806 30.4774 24.5891 27.7754 23.1258 25.8665C21.9753 24.3634 20.2175 23.4781 18.4044 23.4781C16.8214 23.4781 15.5422 24.0314 14.3365 25.2302C13.0941 26.4567 12.3394 27.9322 11.778 30.2284C11.3822 31.833 11.2534 32.6445 10.8944 35.8167C10.7196 37.3567 10.5079 38.8507 10.4251 39.1457C10.3054 39.6068 10.2318 39.7083 9.9649 39.8374C9.79003 39.9204 9.61517 39.9849 9.56915 39.9849C9.45871 39.9849 8.57518 38.076 8.17023 36.9233C7.2683 34.3966 6.58725 31.3073 5.97062 26.9363C5.3816 22.6943 5.46444 23.017 4.00109 19.1163C3.27403 17.1797 2.50094 15.0495 2.28926 14.3948C1.90272 13.2144 1.90272 13.1775 1.94874 12.2277C2.1236 9.11076 3.79862 6.07682 6.43079 4.12183C8.73164 2.4066 11.824 1.61353 14.3457 2.10228Z" fill="#00B9C2"/>
<path d="M25.7432 7.16905C24.6724 7.54178 23.8809 8.25929 23.3501 9.32158C22.9591 10.1323 22.8846 11.2411 23.1825 12.2009C24.0578 15.0989 27.8011 15.9655 29.8869 13.7571C31.2929 12.2662 31.3767 10.0391 30.0824 8.39906C29.71 7.93315 28.9464 7.42064 28.276 7.18769C27.5683 6.94541 26.4137 6.93609 25.7432 7.16905ZM27.9408 8.78111C29.533 9.49862 29.9148 11.4648 28.6857 12.6855C27.7173 13.6639 26.2088 13.6546 25.2683 12.6668C24.4582 11.8189 24.3651 10.6075 25.0355 9.58249C25.6129 8.70657 26.963 8.33384 27.9408 8.78111Z" fill="#00B9C2"/>
<path d="M5.49972 45.1143C5.16354 45.3048 5 45.6095 5 46.0286C5 46.3619 5.05451 46.4952 5.26349 46.7238L5.52698 47H10.4787H15.4305L15.7122 46.7048C16.1574 46.2381 16.0756 45.4857 15.5395 45.1619C15.3124 45.019 14.8036 45 10.4787 45C7.16242 45.0095 5.62692 45.0381 5.49972 45.1143Z" fill="#00B9C2"/>
<path d="M10.5359 50.1429C10.1801 50.3048 9.93374 50.8286 10.0159 51.2381C10.0432 51.3905 10.1801 51.619 10.3078 51.7524L10.545 52H15.9643C19.5134 52 21.4475 51.9619 21.5661 51.9048C21.9676 51.6762 22.1409 50.8952 21.8672 50.4857C21.5388 50 21.4931 50 15.9735 50C11.7311 50.0095 10.7822 50.0286 10.5359 50.1429Z" fill="#00B9C2"/>
</svg>
