<svg width="37" height="44" viewBox="0 0 37 44" fill="none" xmlns="http://www.w3.org/2000/svg">
<path d="M5.70311 0.639095C1.71093 2.15795 0.0380208 4.57024 0 8.88856C0 12.0156 0.684374 14.011 2.35729 15.9468C4.10624 17.9123 4.33437 18.776 3.68801 21.1883C3.34583 22.5582 3.1177 25.0599 3.1177 28.0976C3.1177 32.2968 3.23177 33.22 4.10624 35.8408C4.67655 37.4787 5.74114 39.7719 6.46353 40.9334C8.40259 44.0604 10.4177 44.8348 12.0906 43.0777C12.775 42.3629 12.851 41.7673 12.889 36.5257C12.9651 31.1949 13.0031 30.629 13.8776 28.8421C15.3604 25.864 17.8698 24.8514 20.6453 26.1618C23.1927 27.3828 24.2192 30.7184 24.1052 37.449C24.0291 41.8864 24.0671 42.3331 24.7895 43.0777C26.4625 44.8348 28.4776 44.0604 30.4166 40.9334C33.2302 36.496 34.5989 29.3782 33.6484 24.0771C32.6598 18.3888 32.6598 18.1506 34.2187 16.3339C36.2718 13.8621 37.2223 11.1222 36.9562 8.32271C36.614 4.24265 34.4468 1.5921 30.4927 0.400841C28.1354 -0.28413 24.6375 -0.0756607 21.8619 0.907127C18.5922 2.09838 18.5541 2.09838 15.6646 1.1156C11.8245 -0.194786 8.32655 -0.343693 5.70311 0.639095ZM14.5239 3.05139C17.1854 4.09374 19.6948 4.09374 22.3182 3.05139C24.6375 2.12817 27.6791 1.83035 29.5802 2.30685C31.3671 2.78336 33.4583 4.68937 33.9906 6.35713C34.4848 7.87599 34.5229 10.6457 34.1046 11.2115C33.8385 11.4795 32.5838 11.5689 29.0479 11.5093L24.3333 11.42L24.2192 10.0798C24.1432 9.36506 23.9151 8.59074 23.6869 8.38227C23.4208 8.11424 21.9 7.99511 18.4401 7.99511C14.9802 7.99511 13.4594 8.11424 13.1932 8.38227C12.9651 8.59074 12.737 9.36506 12.6609 10.0798L12.5469 11.42L7.83228 11.5093C2.47135 11.5987 2.47135 11.5987 2.47135 9.42462C2.47135 6.0891 4.14426 3.40877 6.80572 2.45576C8.55467 1.83035 12.1666 2.09838 14.5239 3.05139ZM17.3755 12.1347C17.2234 14.279 17.6036 14.7853 19.0484 14.3386C19.5047 14.1897 19.6187 13.7727 19.5047 12.1347L19.3906 10.0798H20.4552H21.4817V12.4623V14.8448H18.4401H15.3984V12.4623V10.0798H16.463H17.4896L17.3755 12.1347ZM12.6609 14.8448C12.737 15.5596 12.9651 16.3339 13.1932 16.5424C13.4594 16.8104 14.9802 16.9295 18.4401 16.9295C21.9 16.9295 23.4208 16.8104 23.6869 16.5424C23.9151 16.3339 24.1432 15.5596 24.2192 14.8448L24.3333 13.5047L28.2875 13.4153C30.4927 13.3856 32.5078 13.4153 32.7739 13.4749C33.1161 13.594 32.8119 14.1599 31.7093 15.5C29.9604 17.6145 29.9604 17.7634 30.9869 24.6132C31.4052 27.3828 31.4432 28.6039 31.0249 31.314C30.5687 34.7686 29.0098 38.938 27.6031 40.7845C26.6526 42.0055 26.6526 42.0949 26.7666 36.5853C26.8807 31.9096 26.2724 29.0506 24.6375 26.6681C22.8885 24.1664 19.8849 23.0645 16.6151 23.7495C14.4479 24.226 13.1552 25.1492 11.9765 27.1446C10.4177 29.6462 9.92342 32.4457 10.1896 37.0618C10.3036 39.2061 10.2656 41.1121 10.1135 41.3206C9.65728 41.8864 7.83228 38.6402 6.80572 35.4536C5.66509 31.8798 5.28489 27.6807 5.89322 24.3749C6.12134 22.9752 6.42551 20.8607 6.53957 19.6694C6.72968 17.5847 6.69166 17.4656 5.36093 15.7681C4.60051 14.7853 3.99218 13.8621 3.99218 13.6834C3.99218 13.4451 5.28489 13.3558 8.28853 13.4153L12.5469 13.5047L12.6609 14.8448Z" fill="#00B9C2"/>
</svg>
