<svg width="43" height="61" viewBox="0 0 43 61" fill="none" xmlns="http://www.w3.org/2000/svg">
<path d="M11.3322 0.299784C8.7195 0.902252 6.66952 2.37495 5.22247 4.68442C4.09699 6.5253 4.0166 6.89347 4.0166 10.3409C4.0166 14.3239 4.57934 15.8636 7.15187 19.0433C8.03617 20.0809 8.23715 20.7168 8.23715 22.3234C8.23715 24.8002 9.04107 26.1725 10.8901 26.8084C12.1361 27.2435 12.8195 27.2435 16.5979 26.8084C18.9694 26.5407 24.436 26.0721 28.737 25.7708C33.0379 25.4696 36.9369 25.068 37.4193 24.9341C38.1428 24.6998 38.3036 24.2981 38.4643 22.4907C38.6251 20.7503 38.9869 19.9135 40.1124 18.3739C42.4035 15.2611 42.9261 13.7884 42.9261 10.2071C42.9261 6.35795 42.0016 4.21583 39.429 2.24107C36.2536 -0.202274 32.1134 -0.637392 27.5311 1.00266C23.6321 2.37495 23.0292 2.37495 19.9743 1.23696C16.7185 -0.00145149 13.9449 -0.302687 11.3322 0.299784ZM19.291 3.54642C22.4262 4.75136 24.0743 4.78483 27.4507 3.54642C30.9879 2.27454 32.3546 2.07372 34.3242 2.50884C36.3742 2.97742 38.183 4.21583 39.2683 5.98977C39.9516 7.06083 40.1526 7.998 40.1526 10.2071C40.1928 13.1525 39.9114 13.8553 36.7761 18.5747C36.334 19.2106 35.8516 20.449 35.731 21.3193C35.5301 22.4907 35.2889 22.9258 34.8065 22.9258C32.8771 22.9258 17.3214 24.2981 13.6636 24.7667C11.7342 25.0345 11.292 24.5659 11.0509 21.8213C10.8499 19.7796 10.5685 19.0433 9.28224 17.3363C7.23226 14.5917 6.66952 13.119 6.62932 10.6087C6.62932 7.46247 7.31265 5.62159 9.08126 4.14889C11.7342 1.93984 14.7489 1.73902 19.291 3.54642Z" fill="#00B9C2"/>
<path d="M32.2034 4.67808C31.1954 5.02895 30.4503 5.70438 29.9507 6.70437C29.5825 7.46753 29.5124 8.51138 29.7929 9.41488C30.6169 12.1429 34.1406 12.9587 36.1041 10.8798C37.4277 9.47628 37.5066 7.37981 36.2882 5.83596C35.9376 5.39737 35.2188 4.91492 34.5877 4.69562C33.9215 4.46755 32.8346 4.45878 32.2034 4.67808ZM34.2721 6.19561C35.771 6.87104 36.1304 8.7219 34.9734 9.87101C34.0617 10.7921 32.6417 10.7833 31.7564 9.85347C30.9938 9.05523 30.9061 7.91489 31.5373 6.94999C32.0807 6.12543 33.3517 5.77456 34.2721 6.19561Z" fill="#00B9C2"/>
<path d="M22.5068 27.6118C17 28.1139 12.4177 28.549 12.3775 28.5824C11.9353 28.7163 12.3775 30.3564 12.9 30.5237C13.2618 30.6241 18.3666 30.3229 24.2352 29.8208C35.49 28.8837 36.6959 28.6159 35.7312 27.344C35.0881 26.5407 33.8822 26.5742 22.5068 27.6118Z" fill="#00B9C2"/>
<path d="M22.7073 30.7576C18.1652 31.1592 14.226 31.5944 13.9848 31.7282C13.2211 32.1299 13.3417 33.3014 14.1456 33.5357C14.5476 33.6695 19.0897 33.4352 24.3151 33.0001C34.2033 32.1968 35.4494 31.9291 34.5249 30.6907C33.9219 29.8874 32.3141 29.8874 22.7073 30.7576Z" fill="#00B9C2"/>
<path d="M22.3857 33.9718C18.8083 34.3065 15.5926 34.6412 15.271 34.7751C14.5475 35.0093 14.4671 36.1139 15.1906 36.5825C15.5524 36.8502 18.0043 36.7498 23.5112 36.2812C27.8121 35.9131 31.7513 35.5449 32.1934 35.4779C33.2787 35.2771 33.7209 34.3734 33.1179 33.7709C32.5552 33.1685 30.7062 33.2019 22.3857 33.9718Z" fill="#00B9C2"/>
<path d="M21.9436 37.2185C17.0397 37.6536 15.874 37.9883 15.874 38.8251C15.874 39.9631 16.8789 40.03 23.1896 39.4945C31.269 38.8251 31.8317 38.7246 32.1131 38.1556C32.8366 36.5156 31.0278 36.3482 21.9436 37.2185Z" fill="#00B9C2"/>
<path d="M23.3504 40.2969C18.9691 40.732 17.6828 40.9663 17.321 41.4014C16.9995 41.87 17.0397 42.1043 17.5622 42.5394C18.1651 43.0749 18.6475 43.0749 24.0739 42.5729C27.2896 42.3051 30.1033 41.9704 30.3042 41.8365C31.3895 41.301 30.465 39.4936 29.219 39.6944C29.0582 39.7279 26.4053 39.9956 23.3504 40.2969Z" fill="#00B9C2"/>
<path d="M23.2296 43.4769C18.8081 43.8786 18.0444 44.1798 18.4866 45.3513C18.7679 46.0876 18.8885 46.0876 22.6669 45.8868C28.2943 45.5186 29.2992 45.3178 29.46 44.3806C29.6208 43.5439 28.9776 43.0084 27.9325 43.0418C27.611 43.0753 25.4806 43.2761 23.2296 43.4769Z" fill="#00B9C2"/>
<path d="M22.7479 46.6901C19.7734 46.9578 18.7685 47.7277 20.0548 48.7652C20.4969 49.1669 21.3008 49.2004 23.9538 48.9661C28.2949 48.5979 28.4155 48.5644 28.2547 47.4599C28.1341 46.6566 27.9331 46.5227 26.7273 46.4892C25.9635 46.4558 24.1547 46.5562 22.7479 46.6901Z" fill="#00B9C2"/>
<path d="M22.4263 49.937C21.3008 50.1043 20.6175 50.8072 20.939 51.4766C21.2606 52.213 21.9037 52.3468 24.3155 52.1125C26.5262 51.8782 27.4507 51.2423 27.0086 50.2382C26.7674 49.7027 24.7174 49.5688 22.4263 49.937Z" fill="#00B9C2"/>
<path d="M0.68424 51.6191C0.223933 51.8821 0 52.3029 0 52.8814C0 53.3417 0.0746444 53.5258 0.360781 53.8413L0.721563 54.2227H7.50176H14.282L14.6676 53.815C15.2772 53.1707 15.1653 52.1319 14.4313 51.6849C14.1202 51.4876 13.4236 51.4613 7.50176 51.4613C2.9609 51.4745 0.858411 51.5139 0.68424 51.6191Z" fill="#00B9C2"/>
<path d="M7.50601 58.4359C7.0222 58.6595 6.68725 59.3827 6.7989 59.9481C6.83612 60.1585 7.0222 60.474 7.19588 60.6581L7.51842 61H14.8873C19.713 61 22.343 60.9474 22.5043 60.8685C23.0501 60.5529 23.2858 59.4747 22.9136 58.9093C22.467 58.2387 22.405 58.2387 14.8997 58.2387C9.13113 58.2518 7.84096 58.2781 7.50601 58.4359Z" fill="#00B9C2"/>
</svg>
