<svg width="47" height="45" viewBox="0 0 47 45" fill="none" xmlns="http://www.w3.org/2000/svg">
<path d="M34.0598 0.340778C32.9099 0.961384 30.9568 2.71368 29.7521 4.22869C27.8173 6.65635 25.8459 11.1831 25.8459 13.2092C25.8459 13.7933 26.3205 14.7607 26.6308 14.779C26.7403 14.779 26.6856 14.852 26.4848 14.9433C26.284 15.0345 25.6634 15.0528 25.0975 14.998C24.2762 14.925 23.7651 14.998 22.5786 15.3996C20.8263 15.9837 20.0962 16.5313 19.8041 17.4804C19.5669 18.2836 19.8224 19.397 20.2787 19.5796C20.5525 19.6708 26.284 17.7725 26.7221 17.4439C26.8681 17.3162 26.9229 17.0606 26.8498 16.6956L26.7403 16.1297L27.4887 16.9511C27.8903 17.4074 28.3101 17.9368 28.4196 18.1193C28.6386 18.4844 28.6569 18.4844 27.7807 18.1193C27.653 18.0645 27.4157 18.1376 27.2697 18.2836C26.7768 18.7947 24.0206 23.65 24.0206 24.0333C24.0206 24.8547 25.6999 25.238 26.8681 24.6904C27.799 24.2523 29.6426 21.0215 29.4418 20.2002C29.387 19.9994 29.4235 19.5978 29.533 19.3058L29.7156 18.7764L30.3362 19.3058C30.6647 19.6161 31.2306 19.9081 31.5774 19.9629C32.4353 20.1271 35.7391 19.7621 37.3636 19.3058C40.1746 18.5391 43.7522 16.4583 45.4315 14.5965C45.9791 13.9941 46.1069 13.7021 46.1069 13.0997C46.1069 11.5482 44.3546 10.745 43.0403 11.6942C42.7483 11.9315 41.9634 12.5156 41.3245 13.0084C40.0103 14.0306 37.7652 15.144 36.1589 15.5639C35.5566 15.7281 34.3701 15.9107 33.5122 15.9654C31.1941 16.1115 30.8655 16.1845 30.3362 16.7138C29.9164 17.1154 29.7886 17.1701 29.4053 16.9876C28.9489 16.7686 28.5109 16.221 28.3283 15.5456C28.2188 15.2171 28.3101 15.0893 28.7482 14.8702C29.314 14.5782 29.4418 14.2862 30.2267 11.6577C30.9385 9.26655 31.9242 7.60551 33.7678 5.65243C34.3884 5.01357 35.228 4.2652 35.6478 3.95489C36.0859 3.66284 36.5605 3.18826 36.7065 2.89621C37.2906 1.76452 36.889 0.541563 35.8486 0.1765C35.082 -0.0972958 34.8082 -0.0607891 34.0598 0.340778ZM35.4105 1.36295C35.9946 1.58199 35.7391 2.29386 34.8447 2.95097C31.9607 5.06833 29.6973 8.40865 28.7847 11.9315C28.3648 13.483 28.1641 13.8481 27.653 13.8481C27.1419 13.8481 27.0506 13.1362 27.3792 11.8402C28.3466 8.0801 30.5187 4.66677 33.4392 2.34862C34.863 1.21693 34.936 1.18042 35.4105 1.36295ZM44.7926 13.0449C44.9022 13.8663 41.6896 16.2575 38.9882 17.3709C36.3049 18.4844 32.2893 19.0867 31.4131 18.5209C30.8838 18.1741 30.8473 17.9915 31.2123 17.6265C31.3949 17.4622 32.1067 17.3344 33.3662 17.2614C37.0351 17.0424 40.3936 15.6551 43.0951 13.2275C43.9347 12.4791 44.7014 12.4061 44.7926 13.0449ZM25.1158 16.4035C25.2618 16.4948 25.3348 16.6043 25.2983 16.6408C25.1158 16.8051 21.0636 18.0828 20.9906 17.9915C20.7533 17.7542 21.739 17.0059 22.7611 16.6591C24.0389 16.2027 24.696 16.1297 25.1158 16.4035ZM28.0911 20.7477C28.018 20.912 27.653 21.6056 27.2514 22.2993C26.7586 23.1389 26.4118 23.5587 26.1015 23.6317C25.8459 23.7048 25.6086 23.723 25.5904 23.6865C25.5539 23.65 25.9919 22.8286 26.5578 21.8794C28.0363 19.397 27.8903 19.5613 28.0545 20.0176C28.1458 20.2367 28.1458 20.5652 28.0911 20.7477Z" fill="#00B9C2"/>
<path d="M7.26961 18.9283C4.83256 19.1806 2.693 20.476 1.31429 22.5338C0.473341 23.7834 -0.052969 25.5432 0.00423866 26.9189C0.0271217 27.4405 0.0614463 27.5953 0.376088 28.5296C0.564873 29.0971 1.04542 30.4155 1.44587 31.4645L2.16669 33.3676L2.45272 35.391C2.75593 37.5348 3.03624 39.0939 3.31656 40.2232C3.7971 42.1434 4.70098 44.3618 5.17009 44.7745C5.54766 45.1069 6.18266 45.0725 6.85771 44.677C7.53276 44.2815 7.6815 43.8573 7.94466 41.5129C8.27646 38.5609 8.53961 37.4087 9.11741 36.3081C10.0499 34.5254 11.932 34.1758 13.2135 35.54C14.1288 36.5088 14.5464 37.9074 14.9297 41.3123C15.2329 44.0522 15.353 44.3675 16.2398 44.7745C16.9491 45.1069 17.5613 45.0553 17.8645 44.6484C18.1619 44.2357 18.7798 42.8657 19.1631 41.7479C19.6779 40.2461 20.0269 38.7672 20.5875 35.6661C20.8965 33.9465 20.9651 33.6542 21.2454 32.8861C22.1093 30.4958 22.7214 28.5927 22.9044 27.7099C23.3564 25.5375 22.1436 22.4823 20.1871 20.8486C18.6425 19.5589 16.9091 18.9111 14.9812 18.9111C13.9171 18.9111 13.1677 19.0946 11.9435 19.6563L11.4915 19.8627L11.0396 19.6563C9.65516 19.0201 8.51101 18.8022 7.26961 18.9283ZM8.91718 20.2009C9.35768 20.2869 10.1014 20.5563 10.7936 20.883C11.1197 21.0378 11.4343 21.1639 11.4972 21.1639C11.5602 21.1639 11.7833 21.0779 11.995 20.969C12.5556 20.6881 13.3622 20.3728 13.8771 20.241C14.3862 20.1092 15.3359 20.0805 15.9594 20.1837C19.1345 20.7053 21.5887 23.3765 21.7717 26.5062C21.8003 27.0336 21.7889 27.1998 21.6688 27.6813C21.5543 28.1743 20.5303 31.2811 19.9411 32.9434C19.7981 33.3446 19.6608 33.9637 19.472 35.0069C18.8313 38.6411 18.3965 40.4181 17.7443 42.0861C17.4125 42.9345 17.0006 43.7484 16.9091 43.7484C16.8748 43.7484 16.7603 43.6968 16.6574 43.6395C16.4057 43.4847 16.3313 43.1294 16.0967 40.8537C15.7764 37.8386 15.2844 36.1591 14.3748 34.9725C13.6597 34.0382 12.567 33.4879 11.44 33.4879C10.4561 33.4879 9.66088 33.8319 8.91146 34.577C8.13916 35.3394 7.67006 36.2565 7.32109 37.6838C7.0751 38.6812 6.99501 39.1857 6.7719 41.1575C6.66321 42.1148 6.53163 43.0434 6.48014 43.2268C6.40577 43.5134 6.36 43.5765 6.1941 43.6567C6.08541 43.7083 5.97671 43.7484 5.94811 43.7484C5.87946 43.7484 5.33027 42.5619 5.07855 41.8454C4.51792 40.2748 4.09458 38.3545 3.71129 35.6375C3.34516 33.0007 3.39665 33.2013 2.48705 30.7766C2.03511 29.5729 1.55456 28.2488 1.42299 27.8418C1.18272 27.1081 1.18272 27.0851 1.21132 26.4947C1.32001 24.5573 2.36119 22.6714 3.99733 21.4562C5.42752 20.39 7.3497 19.8971 8.91718 20.2009Z" fill="#00B9C2"/>
<path d="M16.002 23.3491C15.3364 23.5808 14.8444 24.0268 14.5145 24.6871C14.2714 25.1911 14.2251 25.8803 14.4103 26.4769C14.9544 28.2783 17.2812 28.817 18.5777 27.4442C19.4517 26.5175 19.5038 25.1331 18.6993 24.1137C18.4677 23.8241 17.9931 23.5055 17.5764 23.3607C17.1365 23.2101 16.4188 23.2043 16.002 23.3491ZM17.368 24.3512C18.3578 24.7972 18.5951 26.0193 17.8311 26.7781C17.2291 27.3863 16.2914 27.3805 15.7069 26.7665C15.2033 26.2394 15.1454 25.4865 15.5621 24.8493C15.921 24.3048 16.7603 24.0732 17.368 24.3512Z" fill="#00B9C2"/>
</svg>
