<svg width="37" height="42" viewBox="0 0 37 42" fill="none" xmlns="http://www.w3.org/2000/svg">
<path fill-rule="evenodd" clip-rule="evenodd" d="M11.6951 0.0550738C7.77449 0.460828 4.33242 2.54493 2.1144 5.85551C0.761498 7.86583 -0.085215 10.6969 0.00681904 12.9101C0.0436326 13.7493 0.0988531 13.9982 0.60504 15.5014C0.908752 16.4143 1.68184 18.5353 2.32608 20.2229L3.4857 23.2845L3.94587 26.5397C4.43365 29.9886 4.88462 32.4969 5.33559 34.3136C6.10867 37.4029 7.56281 40.9716 8.31749 41.6356C8.92491 42.1705 9.94649 42.1151 11.0325 41.4788C12.1185 40.8425 12.3578 40.1601 12.7811 36.3885C13.3149 31.6393 13.7383 29.7858 14.6678 28.0152C16.168 25.1473 19.1959 24.5847 21.2575 26.7795C22.73 28.3379 23.4019 30.588 24.0185 36.0657C24.5063 40.4737 24.6995 40.9809 26.1261 41.6356C27.2673 42.1705 28.2521 42.0875 28.7398 41.4327C29.2184 40.7688 30.2124 38.5648 30.829 36.7666C31.6573 34.3505 32.2187 31.9713 33.1207 26.9824C33.6176 24.2159 33.7281 23.7456 34.179 22.5099C35.5688 18.6644 36.5535 15.6028 36.848 14.1827C37.5751 10.6877 35.624 5.77251 32.4764 3.14433C29.9915 1.06946 27.2029 0.0274096 24.1013 0.0274096C22.3895 0.0274096 21.1838 0.322499 19.2143 1.22622L18.4872 1.55821L17.7602 1.22622C15.533 0.202619 13.6923 -0.147803 11.6951 0.0550738ZM23.3501 9.32158C23.8809 8.25929 24.6724 7.54178 25.7432 7.16905C26.4137 6.93609 27.5683 6.94541 28.276 7.18769C28.9464 7.42064 29.71 7.93315 30.0824 8.39907C31.3767 10.0391 31.2929 12.2662 29.8869 13.7571C27.8011 15.9655 24.0578 15.0989 23.1825 12.2009C22.8846 11.2411 22.9591 10.1323 23.3501 9.32158ZM28.6857 12.6855C29.9148 11.4648 29.533 9.49862 27.9408 8.78112C26.963 8.33384 25.6129 8.70657 25.0355 9.58249C24.3651 10.6075 24.4582 11.8189 25.2683 12.6668C26.2088 13.6546 27.7173 13.6639 28.6857 12.6855Z" fill="#00B9C2"/>
</svg>
