<svg width="140" height="140" viewBox="0 0 140 140" fill="none" xmlns="http://www.w3.org/2000/svg">
<path d="M30.3513 18.3476C23.8162 19.0586 18.0193 22.1484 14.1912 26.9336C13.3982 27.918 12.6326 28.7109 12.4959 28.7109C12.3591 28.7109 10.8279 28.2461 9.10524 27.6992C4.10133 26.1133 3.82789 26.3867 3.82789 33.0859C3.82789 40.0312 4.64821 48.6445 5.60524 52.0898C5.74196 52.5 5.55055 52.7734 4.97633 53.1016C3.52711 53.9492 1.8318 55.8906 1.03883 57.6133C-0.902575 61.7148 0.136488 66.8008 3.49977 69.7539C4.62086 70.7383 7.5193 72.1875 8.3943 72.1875C8.88649 72.1875 9.07789 72.4609 9.43336 73.7461C10.992 79.1602 15.0388 84.8477 19.5232 87.9102L21.1365 89.0039L17.7459 89.168C13.8084 89.3594 12.1677 89.8242 9.89821 91.3281C7.57399 92.8867 6.07008 94.8281 4.8943 97.7539C4.26539 99.3672 4.23805 99.5586 4.15602 109.977L4.07399 120.586L4.75758 121.27C5.38649 121.898 5.65992 121.953 7.79274 121.953C10.4177 121.953 11.1013 121.707 11.5115 120.668C12.0584 119.191 10.8826 117.852 8.99586 117.852H8.17555L8.25758 108.883L8.33961 99.9414L9.05055 98.4375C9.92555 96.6328 11.4295 95.0742 13.2615 94.1172C14.5193 93.4609 14.9568 93.4062 18.7849 93.2969L22.9412 93.1875L23.242 94.3633C24.0076 97.2344 25.9216 99.8047 28.492 101.445C31.992 103.715 36.613 103.988 40.3045 102.156C43.5584 100.543 46.3474 97.1797 46.9216 94.1445L47.113 93.1875L51.242 93.2969C55.1248 93.3789 55.4802 93.4336 56.9295 94.1445C58.8435 95.0742 60.5115 96.9062 61.2498 98.875C61.7693 100.27 61.7966 100.98 61.7966 109.102V117.852H40.2224C18.8396 117.852 18.6482 117.852 17.9373 118.426C17.0349 119.137 16.9529 120.586 17.7732 121.406C18.3201 121.953 18.6755 121.953 41.5076 121.953C64.4763 121.953 64.6951 121.953 65.2966 121.406C65.8982 120.832 65.8982 120.777 65.8982 110.523C65.8982 101.09 65.8162 99.4492 65.242 97.7266C65.0779 97.1523 65.1326 97.125 68.4138 97.0156C70.5193 96.9336 72.2146 96.7148 72.9255 96.4414L74.1013 96.0039L73.5818 97.0156C72.2693 99.5859 72.1873 100.406 72.1873 110.879V120.777L72.8162 121.352L73.4451 121.953H100.98C128.351 121.953 128.515 121.953 129.062 121.406C129.609 120.859 129.636 120.613 129.554 110.25L129.472 99.668L128.707 98.0547C128.297 97.1797 127.996 96.4141 128.023 96.3594C128.078 96.332 128.844 96.4687 129.746 96.6875C130.73 96.9062 132.89 97.0703 135.133 97.0703H138.879L139.453 96.332C140.027 95.5937 140.027 95.4297 139.945 87.5C139.836 78.9141 139.754 78.5039 138.222 75.4414C137.074 73.1445 134.668 70.6836 131.961 69.043C131.578 68.7969 131.578 68.6602 131.933 67.6758C132.398 66.3633 132.453 63.7383 132.043 62.207C131.879 61.6055 131.441 60.5664 131.031 59.8828C130.347 58.707 130.347 58.543 130.402 54.2773C130.484 47.4414 129.418 42.0547 127.804 41.3437C126.847 40.8789 126.519 40.9336 125.672 41.5898C124.824 42.2734 124.797 42.7383 125.535 45.5547C125.918 47.0039 126.164 48.9726 126.246 51.4609L126.41 55.2344H119.465C115.636 55.2344 112 55.0976 111.344 54.9609C106.832 53.9219 103.742 50.4219 103.004 45.5273C102.73 43.8867 102.511 43.3125 102.019 42.9023C101.281 42.3008 100.898 42.2734 99.9685 42.6836C99.1482 43.0664 98.7927 43.9141 98.6287 45.9648C98.3279 49.3008 95.867 52.6367 92.5037 54.2226L90.6443 55.0976L83.0154 55.1797L75.3865 55.2617L75.5505 51.2148C75.7146 46.5391 76.0701 44.9531 77.7927 41.3711C81.3201 34.0976 88.6209 29.0117 96.3045 28.5195L98.6834 28.3555L98.8748 29.0937C99.0935 29.9687 99.9412 30.625 100.898 30.625C101.719 30.625 102.812 29.6133 102.812 28.8476C102.812 28.4101 103.004 28.3828 105.219 28.5195C108.117 28.7109 110.25 29.2578 112.847 30.4883C115.445 31.7187 117.004 32.7851 119.41 35.0547C121.625 37.1328 122.5 37.4062 123.539 36.2851C124.633 35.1094 124.359 34.1797 122.308 32.1562C119.054 28.9023 115.254 26.6601 110.496 25.2383C108.144 24.5273 107.871 24.5273 100.898 24.5273C100.515 24.5273 98.7927 24.5273 97.0701 24.5273C93.242 24.5 90.4802 25.1562 86.7615 26.9336C80.4177 30.0234 75.3591 35.5469 73.0349 42C71.6951 45.7187 71.3396 48.207 71.3943 53.7578C71.4216 57.75 71.3396 58.8437 71.0115 59.3633C70.7927 59.7187 70.492 60.2383 70.3552 60.5391C70.1091 60.9766 70.0545 60.8945 69.863 59.9922C69.5623 58.3242 68.3865 56.1094 67.1287 54.7695L65.9529 53.5391L65.8435 47.3594C65.7341 42.1641 65.6248 40.8242 65.1326 39.0469C62.4255 29.1484 55.0974 21.7109 45.363 18.9766C43.0935 18.3476 42.1912 18.2383 37.7341 18.1836C34.9451 18.1289 31.6365 18.2109 30.3513 18.3476ZM42.4373 22.5312C50.1482 24.0625 56.3005 28.8203 59.5818 35.8476C61.3318 39.5664 61.5779 40.8242 61.7146 46.5664L61.8513 51.707L45.9099 51.625L29.9412 51.543L28.1091 50.832C25.6209 49.875 23.7341 48.5898 22.2576 46.9219C20.8904 45.3633 19.5779 42.8203 19.2498 41.1797C19.0037 39.8398 18.0466 38.8281 17.0349 38.8281C15.4763 38.8281 11.7302 43.9141 10.199 48.0976L9.43336 50.1758L9.13258 48.6992C8.58571 46.2656 8.17555 42 8.01149 36.668L7.84742 31.6641L8.50367 31.8555C8.85914 31.9648 10.1443 32.3476 11.3748 32.7305C14.2732 33.6601 14.738 33.5234 15.9959 31.4453C19.0037 26.4961 24.6912 23.0234 30.7615 22.4492C34.5076 22.0664 40.2771 22.1211 42.4373 22.5312ZM17.1716 46.8398C19.7146 51.3789 24.7732 54.7148 30.242 55.5078C31.3084 55.6445 38.4724 55.7812 46.6482 55.7812H61.1404L62.5349 56.4648C64.613 57.5039 65.8982 59.6094 65.8982 61.9062C65.8982 65.2969 63.5466 67.8672 60.1013 68.25C59.199 68.3594 58.242 68.6328 57.9685 68.8789C57.6677 69.125 57.2302 70.3008 56.9021 71.6406C54.9334 79.5703 49.2185 85.5039 41.0974 87.9375C39.0193 88.5664 38.199 88.6758 34.9998 88.6758C31.8005 88.6758 30.9802 88.5664 28.9021 87.9375C24.6091 86.6523 21.738 84.875 18.7029 81.7031C15.7498 78.6133 13.9451 75.25 13.0154 71.1484C12.5232 69.043 11.9763 68.3594 10.8005 68.3594C9.59742 68.3594 7.57399 67.7031 6.58961 67.0195C4.70289 65.6797 3.71852 62.6445 4.37477 60.3203C5.05836 57.8867 7.60133 55.8086 9.89821 55.7812C12.031 55.7812 12.3865 55.3711 13.2615 51.8711C13.8357 49.6289 15.8045 45.3906 16.2693 45.3906C16.324 45.3906 16.7341 46.0469 17.1716 46.8398ZM101.527 53.0195C102.265 54.2773 105 56.6562 106.804 57.6133C109.539 59.0625 111.234 59.3359 117.933 59.3359C124.277 59.3359 125.152 59.4727 126.547 60.7852C128.461 62.5625 128.789 65.707 127.258 67.8672C126.301 69.207 124.988 69.9727 123.074 70.1914C122.308 70.2734 121.488 70.4922 121.269 70.6562C121.023 70.8203 120.586 71.9414 120.285 73.1445C118.07 81.8945 110.851 87.9102 101.883 88.4844C94.363 88.9766 86.7888 84.7109 83.3435 78.0391C82.6326 76.6992 81.8396 74.6484 81.5388 73.4727C80.8826 70.9844 80.363 70.2734 79.1873 70.2734C75.906 70.2734 73.4724 67.8398 73.4998 64.6406C73.4998 63.0547 73.9646 62.0156 75.113 60.9219C76.617 59.4727 77.3826 59.3359 83.8904 59.3359C90.2341 59.3359 91.7107 59.1172 94.4724 57.8594C96.3045 57.0117 98.492 55.2344 99.7224 53.5937C100.297 52.8281 100.816 52.2266 100.898 52.2266C100.98 52.2266 101.254 52.582 101.527 53.0195ZM70.1091 68.5508C70.1912 68.6602 69.5349 69.207 68.6326 69.7812C65.5427 71.8047 63.1365 75.1953 62.2068 78.8867C61.906 80.0898 61.7966 82.0312 61.7966 86.4336V92.3945L60.4295 91.4648C57.9685 89.8242 56.3005 89.332 52.4451 89.1953L48.9998 89.0859L51.1326 87.4727C55.5623 84.1367 59.2537 78.75 60.6755 73.5547C61.0037 72.3516 61.0584 72.2969 62.3982 71.9687C64.8865 71.3945 67.7576 69.0977 68.8513 66.8281L69.3162 65.8437L69.617 67.1289C69.8084 67.8398 70.0271 68.4687 70.1091 68.5508ZM73.9373 72.8984C74.6482 73.3086 75.742 73.7734 76.3435 73.9648C77.3552 74.2656 77.492 74.4023 77.9295 75.7695C78.1755 76.5898 78.6677 77.9023 79.0232 78.6953C79.5427 79.9258 79.6248 80.4453 79.488 82.25C79.242 86.0781 77.574 89.0586 74.6209 91.0273C72.488 92.4492 70.7107 92.9687 68.031 92.9687H65.8709L65.9529 86.3242L66.0349 79.707L66.9099 77.875C68.0584 75.4687 70.6287 72.9258 72.6248 72.1875C72.6521 72.1875 73.2537 72.5156 73.9373 72.8984ZM130.457 72.9805C131.988 73.9375 133.574 75.5234 134.394 76.9727C135.625 79.0781 135.898 80.8555 135.898 87.1719V93.0234L133.246 92.9141C130.949 92.832 130.293 92.6953 128.734 91.957C126.219 90.7812 124.605 89.2227 123.402 86.7344C122.5 84.9297 122.363 84.4102 122.281 82.1953C122.199 80.1719 122.254 79.4883 122.636 78.7227C122.91 78.2305 123.375 77.0273 123.703 76.0703C124.277 74.375 124.332 74.3203 125.672 73.8555C126.437 73.6094 127.476 73.1172 127.996 72.7891C128.515 72.4609 128.98 72.1875 129.09 72.1875C129.172 72.1875 129.773 72.543 130.457 72.9805ZM84.9841 86.6523C85.8318 87.3906 87.281 88.457 88.1834 89.0312L89.824 90.0977L85.8591 90.2617C83.6716 90.3711 81.6755 90.5352 81.3748 90.6445C81.074 90.7812 80.9099 90.7539 80.992 90.6172C81.0466 90.4805 81.5388 89.4414 82.113 88.3203C82.6599 87.1992 83.1248 86.0781 83.1248 85.8047C83.1248 85.5312 83.2068 85.3125 83.2888 85.3125C83.3709 85.3125 84.1365 85.9141 84.9841 86.6523ZM118.672 86.0781C118.672 86.3516 119.164 87.5273 119.738 88.6758C120.531 90.2344 120.695 90.7812 120.367 90.6172C120.121 90.5078 118.152 90.3711 116.019 90.2891C113.859 90.2344 112.109 90.0977 112.109 89.9883C112.109 89.9062 112.629 89.5508 113.285 89.1953C113.914 88.8672 115.308 87.8555 116.347 86.9805C118.261 85.3672 118.672 85.2031 118.672 86.0781ZM42.7654 93.7344C42.1091 95.7852 39.867 98.1367 37.8982 98.793C34.3435 100.023 30.488 98.8203 28.4373 95.8398C27.617 94.6641 26.824 92.3125 27.1248 91.9844C27.2341 91.9023 28.2732 92.0391 29.449 92.3125C32.3748 92.9961 38.1716 92.9687 41.0154 92.2305C42.1365 91.957 43.1209 91.8203 43.1482 91.9297C43.2029 92.0664 43.0388 92.8594 42.7654 93.7344ZM97.0154 92.2852C98.2732 92.5039 100.023 92.6953 100.898 92.6953C102.429 92.6953 106.64 92.0664 107.597 91.7109C108.035 91.5195 108.062 91.7109 107.953 93.8164C107.707 98.3828 105.082 101.145 100.953 101.172C98.1091 101.172 96.0584 99.9687 94.7459 97.5625C94.117 96.3867 93.9255 95.6758 93.8435 93.8164C93.7341 91.7109 93.7615 91.5195 94.199 91.7109C94.4724 91.793 95.7302 92.0664 97.0154 92.2852ZM89.906 96.0312C90.5896 99.7227 92.8591 102.676 96.1951 104.262C97.8904 105.082 98.2459 105.137 100.898 105.137C103.551 105.137 103.906 105.082 105.601 104.262C108.965 102.676 111.207 99.7227 111.89 96.0039L112.219 94.2812L115.773 94.3906C119.929 94.5273 121.297 94.9922 123.238 97.0156C125.371 99.2031 125.508 99.9687 125.508 109.512V117.852H100.898H76.2888V109.676C76.2888 102.758 76.3709 101.281 76.7537 100.078C77.5466 97.6445 80.1716 95.2109 82.7146 94.582C83.1795 94.4727 84.9021 94.3906 86.5701 94.3633L89.5779 94.3359L89.906 96.0312Z" fill="url(#paint0_linear_32_7122)"/>
<path d="M21.6016 60.157C21.1094 60.6492 21.0547 61.0594 21.0547 63.8484C21.0547 66.7195 21.1094 67.0203 21.6562 67.5398C22.3945 68.2234 23.543 68.2508 24.3633 67.5672C24.9922 67.075 25.0195 66.8836 25.0195 63.9031C25.0195 61.1961 24.9375 60.6766 24.5 60.1844C23.8164 59.4461 22.3398 59.4187 21.6016 60.157Z" fill="url(#paint1_linear_32_7122)"/>
<path d="M45.582 60.1023C45.1992 60.5125 45.1172 61.2234 45.1172 63.7937C45.1172 66.6375 45.1719 67.0476 45.6641 67.5398C46.3477 68.2234 47.6875 68.2508 48.3711 67.5672C49.082 66.8562 49.3008 65.5711 49.1914 62.9187C49.1094 61.2781 48.9453 60.6219 48.5625 60.1844C47.8789 59.4461 46.2109 59.3914 45.582 60.1023Z" fill="url(#paint2_linear_32_7122)"/>
<path d="M28.6016 72.2155C28 72.6804 27.8906 72.9812 27.8906 74.1843C27.918 80.0905 35.1914 83.1257 39.8672 79.1609C41.5625 77.739 42.7383 74.5124 42.1094 73.0085C41.6992 72.0241 40.5508 71.5319 39.5664 71.8874C38.7461 72.2155 38.418 72.7351 38.1719 74.2116C37.8984 75.7429 36.6406 76.8366 35.2188 76.8366C33.2773 76.8366 32.2383 75.9069 31.8281 73.7194C31.6367 72.6804 30.625 71.6413 29.8047 71.6413C29.5312 71.6413 29.0117 71.8874 28.6016 72.2155Z" fill="url(#paint3_linear_32_7122)"/>
<path d="M86.8435 62.8633C85.9138 63.875 86.5154 66.1719 87.6912 66.1719C87.9373 66.1719 88.0467 66.6094 88.0467 67.6758C88.0467 68.9336 88.156 69.3164 88.7302 69.8633C89.0857 70.2461 89.7146 70.5469 90.0974 70.5469C90.4802 70.5469 91.1092 70.2461 91.4646 69.8633C92.0935 69.2617 92.1482 69.0156 92.1482 66.3633C92.1482 63.7656 92.0935 63.4922 91.5193 62.9453C90.6443 62.125 87.5545 62.0703 86.8435 62.8633Z" fill="url(#paint4_linear_32_7122)"/>
<path d="M110.195 62.8911C109.703 63.3833 109.648 63.7935 109.648 66.4185C109.648 69.3169 109.676 69.4263 110.359 69.9731C111.18 70.6294 111.535 70.6841 112.465 70.2466C113.34 69.8638 113.75 68.9067 113.75 67.4028C113.75 66.5005 113.859 66.1724 114.133 66.1724C114.707 66.1724 115.391 65.0786 115.391 64.2036C115.391 62.8911 114.543 62.3442 112.52 62.3442C111.098 62.3442 110.633 62.4536 110.195 62.8911Z" fill="url(#paint5_linear_32_7122)"/>
<path d="M94.7458 73.9648C93.9529 74.7305 93.8982 75.3867 94.4997 77.3555C95.238 79.8984 98.0818 82.0312 100.679 82.0312C103.195 82.0312 105.929 80.2812 106.941 78.0664C108.035 75.7148 107.379 73.2812 105.656 73.2812C104.453 73.2812 103.933 73.7734 103.496 75.332C102.758 77.8477 100.98 78.6406 99.2849 77.2188C98.7654 76.7812 98.3826 76.1523 98.2732 75.5234C97.8904 73.418 96.0857 72.5977 94.7458 73.9648Z" fill="url(#paint6_linear_32_7122)"/>
<defs>
<linearGradient id="paint0_linear_32_7122" x1="70.0252" y1="121.953" x2="70.0252" y2="18.1665" gradientUnits="userSpaceOnUse">
<stop stop-color="#00B9C2"/>
<stop offset="1" stop-color="#00585C"/>
</linearGradient>
<linearGradient id="paint1_linear_32_7122" x1="23.0371" y1="68.0664" x2="23.0371" y2="59.6168" gradientUnits="userSpaceOnUse">
<stop stop-color="#00B9C2"/>
<stop offset="1" stop-color="#00585C"/>
</linearGradient>
<linearGradient id="paint2_linear_32_7122" x1="47.1676" y1="68.0664" x2="47.1676" y2="59.5987" gradientUnits="userSpaceOnUse">
<stop stop-color="#00B9C2"/>
<stop offset="1" stop-color="#00585C"/>
</linearGradient>
<linearGradient id="paint3_linear_32_7122" x1="35.0859" y1="80.9531" x2="35.0859" y2="71.6413" gradientUnits="userSpaceOnUse">
<stop stop-color="#00B9C2"/>
<stop offset="1" stop-color="#00585C"/>
</linearGradient>
<linearGradient id="paint4_linear_32_7122" x1="89.2684" y1="70.5469" x2="89.2684" y2="62.2982" gradientUnits="userSpaceOnUse">
<stop stop-color="#00B9C2"/>
<stop offset="1" stop-color="#00585C"/>
</linearGradient>
<linearGradient id="paint5_linear_32_7122" x1="112.52" y1="70.5293" x2="112.52" y2="62.3442" gradientUnits="userSpaceOnUse">
<stop stop-color="#00B9C2"/>
<stop offset="1" stop-color="#00585C"/>
</linearGradient>
<linearGradient id="paint6_linear_32_7122" x1="100.785" y1="82.0312" x2="100.785" y2="73.2812" gradientUnits="userSpaceOnUse">
<stop stop-color="#00B9C2"/>
<stop offset="1" stop-color="#00585C"/>
</linearGradient>
</defs>
</svg>
