<svg width="132" height="132" viewBox="0 0 132 132" fill="none" xmlns="http://www.w3.org/2000/svg">
<g clip-path="url(#clip0_32_7109)">
<path d="M25.2141 0.412506C14.9531 2.26875 6.72891 10.3641 4.74375 20.5734C4.09922 23.8734 4.27969 27.8953 5.25938 32.8195L6.11016 37.1766L5.25938 38.8523C4.48594 40.3219 4.38281 40.7859 4.38281 42.4359C4.38281 44.9625 5.07891 46.8187 6.65156 48.4172C8.04375 49.8352 9.74531 50.7117 11.6531 50.9953L12.9937 51.1758L13.3289 52.8258C14.0508 56.4094 16.1906 60.2508 19.0008 63.0609C20.5477 64.6078 24.4664 67.2891 25.1883 67.2891C25.4203 67.2891 25.5234 67.7789 25.5234 69.0422V70.7695L23.7961 71.3625C19.2844 72.9094 14.7727 75.7453 11.1117 79.2516C5.67188 84.5109 2.26875 90.75 0.592969 98.5102C0.232031 100.263 0.128906 101.836 0.128906 106.605C0.154687 112.329 0.180469 112.613 0.850781 114.83C3.42891 123.157 9.30703 128.932 17.5055 131.175L19.9805 131.871H40.3477H60.7148L62.2359 131.149L63.757 130.453L65.4586 131.149L67.1602 131.871H88.3008C109.416 131.871 109.441 131.871 111.633 131.278C115.732 130.195 118.852 128.365 121.713 125.4C124.575 122.435 126.199 119.496 127.102 115.655C127.849 112.587 127.849 103.099 127.102 100.134C126.302 96.9375 124.266 93.1477 122.126 90.8531C118.387 86.8312 114.572 84.8719 108.359 83.7891L106.477 83.4539V81.8813L106.502 80.3086L108.539 79.1742C112.045 77.2406 115.088 74.0953 116.892 70.4602C117.614 69.0422 118.284 67.0828 119.006 64.2984C119.032 64.1438 119.522 63.9117 120.063 63.8344C123.389 63.2414 125.709 61.5141 126.947 58.7555C127.591 57.3633 127.669 56.925 127.566 55.0945C127.463 52.7227 126.921 51.3047 125.452 49.6031L124.601 48.6234L125.709 45.8906C126.302 44.3953 126.973 42.2812 127.205 41.1984C127.746 38.6203 127.746 34.1086 127.205 31.4531L126.792 29.3906L127.823 28.1789C129.37 26.2969 130.35 24.5695 131.098 22.3008C133.753 14.4375 130.092 5.62032 122.667 1.93359C117.64 -0.541397 112.664 -0.618744 107.817 1.67578C103.563 3.68672 100.547 6.98672 99 11.2664L98.4328 12.8391L90.6469 12.9422C82.9383 13.0453 82.8609 13.0453 80.6953 13.7672C75.9 15.3656 72.3164 17.7633 69.1969 21.4758L68.1398 22.7133L67.7531 20.7023C66.9539 16.6289 65.2781 13.4836 62.3906 10.5703C60.2508 8.37891 57.6727 6.7289 55.1461 5.90391C54.2437 5.59454 53.4445 5.28516 53.393 5.2336C53.3156 5.18203 54.4242 3.97031 55.8164 2.57812L58.3945 0L42.7969 0.0257874C30.6281 0.0515594 26.7609 0.128906 25.2141 0.412506ZM46.5352 5.92969C45.7102 6.78047 45.0656 7.50234 45.143 7.55391C45.1945 7.60547 46.5867 7.99219 48.2109 8.37891C52.9289 9.51328 54.9656 10.2352 56.7188 11.3695C61.2305 14.2828 63.7828 18.9234 63.7828 24.2344C63.757 26.9672 63.5766 27.8438 62.107 31.6078C61.1273 34.1344 61.0758 34.1859 60.3539 34.0828L59.6063 33.9797L59.5031 29.8031C59.4258 25.9617 59.3742 25.5492 58.7555 24.2344C57.982 22.5844 56.7703 21.1148 55.3266 20.0578L54.2953 19.3359L53.2898 21.1664L52.2586 23.0227L53.2125 23.7961C54.1406 24.5438 55.1719 26.168 55.1719 26.8898C55.1719 27.1992 54.9141 27.225 53.8312 27.0188C48.2367 26.0648 43.4672 24.5438 37.9242 21.8883C35.8875 20.9086 34.1602 20.1094 34.1086 20.1094C34.0828 20.1094 34.0312 21.6047 34.0312 23.4609C34.0312 25.2914 33.9797 26.8125 33.9281 26.8125C33.3609 26.8125 29.0039 25.0594 28.0242 24.4406C26.5031 23.4609 24.7758 21.5789 23.9508 19.9547C23.6156 19.2586 23.3062 18.6398 23.2805 18.5883C23.2289 18.4594 19.7742 19.6195 19.5164 19.8516C19.3875 19.9547 19.5938 20.7023 19.9805 21.5016C20.3672 22.3266 20.625 23.0227 20.5992 23.0484C20.5477 23.1 19.6195 23.5125 18.5367 23.9508C14.85 25.4719 13.0969 27.9211 12.9422 31.7367L12.8391 33.9281L11.3953 34.2375C10.6219 34.3922 9.95156 34.5211 9.92578 34.4695C9.71953 34.1859 8.68828 28.0758 8.58516 26.5289C8.01797 18.3305 12.7102 10.2609 20.2383 6.54844C24.4664 4.46016 24.9047 4.40859 37.2539 4.40859L48.0562 4.38281L46.5352 5.92969ZM118.362 4.74375C121.997 5.85235 124.704 8.14687 126.405 11.55C127.437 13.6383 127.488 13.8703 127.566 16.4742C127.669 19.5938 127.179 21.5531 125.735 23.8219C125.013 24.9563 124.91 25.0336 124.652 24.6211C124.523 24.3633 123.698 23.2031 122.822 22.0687C118.645 16.4742 111.684 12.8906 105.059 12.8906C102.713 12.8906 102.635 12.6844 104.13 10.4156C105.884 7.7086 108.178 5.90391 111.04 4.92422C112.845 4.30547 116.634 4.20235 118.362 4.74375ZM109.08 17.6086C116.041 19.6711 121.275 25.0852 123.002 31.9688C123.234 32.8195 123.363 34.6758 123.338 36.6094C123.338 39.5227 123.26 40.0641 122.538 42.1523C122.1 43.4156 121.481 45.0398 121.198 45.7102C120.734 46.8187 120.579 46.9477 119.96 46.8703C119.316 46.793 119.213 46.6641 119.084 45.607C118.645 42.668 116.505 39.9609 113.798 38.9297C112.484 38.4656 111.813 38.4141 104.93 38.4141C96.7055 38.4141 94.4883 38.2078 91.5234 37.1508C88.6875 36.1453 86.8312 34.9852 84.5109 32.7164L82.5 30.757L80.9531 31.8914C80.1023 32.5359 79.4062 33.1547 79.4062 33.2836C79.4062 33.4125 79.8961 34.057 80.4633 34.6758C81.2109 35.475 81.4172 35.8617 81.1852 35.9648C80.9789 36.0164 79.9477 36.3773 78.8906 36.7641C74.5852 38.2852 72.4453 41.1211 72.4453 45.2719V46.9477L71.6461 46.8703C70.8727 46.793 70.7695 46.6383 69.8414 44.2664C67.418 38.182 67.6242 32.7164 70.4602 27.1992C71.8781 24.4406 75.3586 20.9086 78.0398 19.5164C82.6289 17.1188 83.325 17.0414 96.5508 17.1188C106.012 17.1703 107.843 17.2477 109.08 17.6086ZM24.2344 26.9414C25.0594 27.9469 27.9211 29.2617 32.8711 30.9375C35.8359 31.9172 38.2852 32.7422 38.3367 32.7422C38.3625 32.7422 38.4141 31.4016 38.4141 29.8031V26.8383L39.7805 27.4313C42.3844 28.5914 47.7211 30.1898 51.2273 30.8344C53.1867 31.2211 54.9398 31.5563 55.1203 31.6078C55.507 31.7109 55.5586 47.9789 55.1719 50.5312C54.1664 56.7703 50.325 61.5398 44.4211 63.8344L42.5391 64.5563V67.8563V71.1562L39.368 72.7289L36.1969 74.3016L33.0516 72.7289L29.9062 71.1562V67.8305V64.5305L28.0242 63.8344C23.0742 62.0297 19.207 57.9047 17.6086 52.7227C17.1961 51.3305 17.1445 50.1445 17.1445 40.8117V30.4734L17.9438 29.468C18.5367 28.7203 19.2844 28.2562 21.0375 27.5344C23.6414 26.4516 23.7961 26.4 24.2344 26.9414ZM12.8906 42.5133C12.8906 44.782 12.7875 46.6898 12.6844 46.7672C12.1687 47.0766 10.5703 46.3289 9.71953 45.375C8.73984 44.318 8.35312 43.0289 8.61094 41.7398C8.94609 40.0898 10.725 38.4141 12.1945 38.4141H12.8906V42.5133ZM62.2617 39.2906C63.3187 40.1156 64.0664 41.9203 63.8344 43.132C63.4992 44.8852 62.0812 46.3547 60.2766 46.7672L59.5547 46.9219V42.6422V38.3367L60.4828 38.4914C60.9984 38.5687 61.7977 38.9297 62.2617 39.2906ZM91.6781 41.6625C93.9211 42.3586 94.1273 42.3844 102.996 42.5133C111.813 42.668 112.045 42.6937 112.973 43.2609C113.541 43.6219 114.134 44.2922 114.469 44.9883C115.01 46.0969 115.01 46.3547 114.933 55.0945C114.83 64.0406 114.83 64.0664 114.134 66.1547C112.535 70.9758 109.132 74.5336 104.311 76.493L102.223 77.318L102.094 81.443C101.965 85.5164 101.965 85.568 101.191 86.6508C100.753 87.2695 99.825 88.0688 99 88.5328C97.7883 89.2289 97.3242 89.332 95.7773 89.332C93.7922 89.3063 92.4773 88.7906 91.1625 87.5016C89.6672 85.9805 89.5898 85.7742 89.4609 81.3656L89.332 77.2406L87.4758 76.5445C83.4023 74.9719 80.3344 72.2391 78.4266 68.4234C76.8023 65.2266 76.7508 64.7367 76.6477 54.1406L76.5445 44.4727L77.1375 43.3383C77.9367 41.7656 78.6328 41.3273 82.2937 40.0898L85.4391 39.007L87.4242 39.9867C88.507 40.5281 90.4406 41.3016 91.6781 41.6625ZM66.8766 48.2625C66.9797 48.7008 66.7992 49.0875 66.1547 49.7578C64.0406 51.9492 63.3445 55.4297 64.4273 58.2914C65.5102 61.1273 68.3977 63.3961 71.4398 63.8086L72.6 63.9891L72.9352 65.5102C73.6312 68.8875 75.4359 72.3937 77.9367 75.1523C79.3805 76.7508 82.8867 79.3289 84.382 79.8961C85.0266 80.1539 85.0781 80.257 85.0781 81.7266C85.0781 83.1961 85.0523 83.2734 84.382 83.4281C79.1484 84.5883 75.0234 86.4445 71.543 89.2031L70.5375 90.0023L69.5578 87.8883C66.593 81.4688 61.282 76.132 54.8367 73.0898C52.5422 72.007 48.4172 70.6406 47.4117 70.6406C46.9734 70.6406 46.9219 70.4344 46.9219 69.0164V67.418L48.9328 66.3867C51.4852 65.0977 55.1203 61.5398 56.6414 58.9102C57.8273 56.8477 58.9102 54.0117 59.168 52.2586C59.3484 51.0984 59.4 51.0469 60.225 51.0469C61.6688 51.0469 63.9633 50.0156 65.2266 48.8297C65.8711 48.2109 66.4641 47.6953 66.5414 47.6953C66.6445 47.6953 66.7734 47.9531 66.8766 48.2625ZM72.4453 55.3008C72.4453 59.4516 72.4195 59.5547 71.9039 59.5547C70.357 59.5547 68.5781 57.8789 68.1914 56.0227C67.7273 53.8055 69.7641 51.2273 72.1359 51.0727C72.368 51.0469 72.4453 52.0523 72.4453 55.3008ZM121.61 51.8461C122.564 52.4391 123.492 54.1922 123.492 55.4039C123.492 57.2602 121.842 59.168 120.012 59.4773L119.109 59.632V55.507C119.109 53.2383 119.187 51.3047 119.29 51.2016C119.548 50.9437 120.63 51.2531 121.61 51.8461ZM45.4781 74.7398C45.6844 75.075 43.7508 79.9219 43.4414 79.8961C43.3125 79.8961 42.2039 79.4062 40.9922 78.7875L38.8008 77.6531L41.8945 76.1063C45.2719 74.4047 45.2719 74.4047 45.4781 74.7398ZM30.6281 76.2609L33.5414 77.7563L31.2211 78.8906C29.932 79.5094 28.8492 79.9734 28.7719 79.8961C28.6172 79.7414 26.8125 75.2039 26.8125 74.9719C26.8125 74.5078 27.8695 74.8688 30.6281 76.2609ZM52.7742 76.8281C58.4977 79.5094 62.7258 83.6602 65.5102 89.332C67.2891 93.0187 67.3148 93.1734 65.9227 95.0039C62.6742 99.3352 60.6375 104.878 60.1734 110.653C60.0703 112.045 59.8898 112.922 59.7094 112.922C59.5547 112.922 59.1422 112.38 58.7812 111.71C58.1625 110.55 56.4867 109.055 55.7648 109.055C55.4813 109.055 55.4297 107.611 55.4297 101.114V93.1992L56.1 92.0648L56.7445 90.9047L55.2492 89.4094L53.7539 87.9141L53.2898 88.4813C53.032 88.8164 52.4391 89.8219 52.0008 90.75L51.1758 92.4258L51.0984 100.856C51.0211 108.823 50.9953 109.287 50.5312 109.441C50.0672 109.596 48.7266 110.962 47.9531 112.071L47.5664 112.638L34.5469 110.602C27.3797 109.493 21.5016 108.565 21.4758 108.565C21.45 108.539 21.3984 104.981 21.3469 100.598C21.2437 93.1992 21.218 92.5805 20.6766 91.2656C20.3672 90.4664 19.7742 89.4352 19.3617 88.9453L18.5883 88.043L17.1703 89.4609L15.7266 90.8789L16.3711 92.1422L17.0156 93.4055V101.243V109.055L15.8039 109.673C15.1078 110.034 14.3086 110.524 13.9734 110.782L13.4062 111.246L14.9273 112.767L16.4484 114.288L17.2992 113.67C18.7172 112.664 20.5477 112.741 29.1328 114.056C33.3094 114.701 37.125 115.294 37.5891 115.371L38.4141 115.526L38.3625 121.636L38.2852 127.746L29.3906 127.72L20.4961 127.695L18.1758 126.998C13.5094 125.58 10.0289 123.002 7.34766 118.98C6.1875 117.227 5.49141 115.603 4.87266 113.205C4.15078 110.421 4.17656 102.584 4.89844 98.9742C6.80625 89.6156 12.7102 81.6492 21.0117 77.2406C21.7078 76.8797 22.4039 76.5703 22.5586 76.5703C22.6875 76.5703 23.6156 78.607 24.5953 81.1078C25.6008 83.5828 26.4773 85.6711 26.5805 85.7484C26.7094 85.8 28.4109 85.0523 30.4219 84.0469L34.0312 82.2422V90.1055V97.9688H36.2227H38.4141V90.1055V82.2422L42.0492 84.0727C44.0602 85.0781 45.7875 85.8 45.8906 85.6711C45.9937 85.568 46.9219 83.2992 47.9789 80.6437C49.1391 77.7047 50.0156 75.7969 50.2477 75.7969C50.4281 75.7969 51.5625 76.2609 52.7742 76.8281ZM87.0891 89.2289C89.2031 92.2195 92.4773 93.7148 96.4477 93.5344C98.407 93.4313 98.9484 93.3023 100.624 92.4773C102.532 91.5234 104.62 89.6156 105.265 88.2234C105.42 87.9141 105.652 87.6562 105.806 87.6562C106.348 87.682 110.627 88.6359 110.756 88.7391C110.808 88.8164 110.395 89.6414 109.828 90.5695C109.261 91.5234 108.797 92.3484 108.797 92.4258C108.797 92.5289 108.565 93.0961 108.255 93.7406C107.044 96.3961 106.657 98.6391 106.554 103.666L106.425 108.462L104.569 108.642C103.563 108.745 97.9172 109.622 92.0391 110.602L81.3398 112.38L79.8445 110.911C77.7305 108.823 76.725 106.683 76.725 104.311C76.725 101.604 77.4984 100.109 80.5406 96.9891L82.9898 94.4625L83.0672 91.2656C83.1445 88.0945 83.1445 88.0688 83.7891 87.8883C85.4648 87.4242 85.9289 87.6047 87.0891 89.2289ZM78.8906 91.1625V92.632L76.725 94.875C74.4562 97.2211 73.5797 98.6391 72.8578 101.037C72.3422 102.764 72.3164 105.729 72.8063 107.327L73.1672 108.539L71.9812 109.08C70.5375 109.699 69.4805 110.653 68.8102 111.916C68.4492 112.664 68.1398 112.896 67.3664 113.051C66.825 113.154 65.9484 113.438 65.3812 113.721C64.8141 113.979 64.3242 114.159 64.2727 114.108C64.0406 113.876 64.7367 107.972 65.2266 106.064C66.3352 101.707 69.4031 96.7313 72.8578 93.6375C74.25 92.3742 78.2203 89.7188 78.6844 89.7188C78.7875 89.7188 78.8906 90.3633 78.8906 91.1625ZM117.949 92.632C119.805 94.282 121.61 97.0406 122.564 99.7477L123.363 101.965V107.766C123.363 113.128 123.312 113.721 122.77 115.5C121.223 120.424 117.485 124.627 112.948 126.457C109.648 127.798 108.487 127.875 87.9914 127.875C75.2039 127.875 68.707 127.772 67.9594 127.591C65.6391 127.024 63.9633 124.833 63.9375 122.384C63.9375 120.759 64.4016 119.702 65.6906 118.542C66.9539 117.408 68.0883 117.047 70.5891 117.047H72.4453V115.5C72.4453 113.721 72.9867 112.922 74.1984 112.922C75.1266 112.922 75.7711 113.618 76.8023 115.706C77.5758 117.202 77.6789 117.33 78.3234 117.202C78.7102 117.124 84.6398 116.119 91.5234 114.959C103.228 113.025 104.208 112.896 106.863 112.999C109.493 113.128 111.143 113.489 113.695 114.572C113.979 114.675 114.288 114.263 114.933 112.87C115.938 110.627 115.99 110.73 112.741 109.673L110.524 108.952L110.679 104.44C110.885 98.2781 111.813 94.875 114.211 91.575L115.01 90.4664L115.784 90.9305C116.222 91.1883 117.202 91.9617 117.949 92.632ZM54.8883 113.592C55.275 114.108 55.4297 114.649 55.4297 115.655V117.047H57.1828C58.807 117.047 60.8438 117.434 60.8438 117.717C60.8438 117.795 60.6891 118.155 60.4828 118.542C60.2766 118.929 59.993 119.934 59.8125 120.811C59.4773 122.512 59.7352 124.704 60.457 126.148C60.6633 126.56 60.8438 126.998 60.8438 127.102C60.8438 127.54 58.2914 127.875 54.8109 127.875H51.0469V121.688C51.0469 115.191 51.1242 114.701 52.2844 113.36C52.9031 112.664 54.2437 112.793 54.8883 113.592ZM45.2977 116.557L46.9477 116.841L46.8703 118.052L46.793 119.238L45.5039 119.316C44.8078 119.367 43.8281 119.341 43.3898 119.238C42.5648 119.084 42.5391 119.058 42.5391 117.691C42.5391 116.067 42.5133 116.067 45.2977 116.557ZM46.8703 125.606L46.793 127.746L44.6789 127.823L42.5391 127.901V125.684V123.492H44.7305H46.9477L46.8703 125.606Z" fill="url(#paint0_linear_32_7109)"/>
<path d="M26.2708 34.7787C25.3943 35.6552 25.3169 36.5318 26.0388 37.4599C26.7091 38.3107 27.663 38.5169 28.5912 38.0529C30.0091 37.3052 30.138 35.3459 28.8232 34.4435C27.9466 33.8248 27.1216 33.9537 26.2708 34.7787Z" fill="url(#paint1_linear_32_7109)"/>
<path d="M43.2862 34.7793C42.3839 35.7074 42.3323 36.584 43.1573 37.5379C43.6214 38.0793 43.9823 38.2598 44.7042 38.2598C46.6636 38.2598 47.5401 35.9395 46.0448 34.6504C45.0909 33.8254 44.2144 33.877 43.2862 34.7793Z" fill="url(#paint2_linear_32_7109)"/>
<path d="M33.9277 40.0641C33.7472 41.9719 33.1543 43.8281 31.9941 46.1227C31.53 46.9992 31.1949 47.7727 31.2464 47.8242C31.4011 47.9531 37.1246 50.7891 37.2535 50.7891C37.4082 50.7891 39.2386 47.1539 39.1355 47.0508C39.0839 47.025 38.5683 46.7414 37.9496 46.432C37.073 45.9938 36.8668 45.7617 37.0214 45.4266C37.4339 44.4984 38.1043 41.5594 38.2332 40.0125L38.4136 38.4141H36.248H34.1082L33.9277 40.0641Z" fill="url(#paint3_linear_32_7109)"/>
<path d="M29.7 53.3419L27.8438 54.27L28.7461 55.6364C31.5305 59.7614 37.2539 60.7926 41.4047 57.9309C42.5133 57.1575 44.3438 54.9403 44.3438 54.3731C44.3438 53.9864 40.6312 52.2333 40.5281 52.5684C40.3477 53.1356 39.1359 54.4247 38.4398 54.7598C36.3773 55.8169 34.4695 55.4301 32.7164 53.6512L31.5305 52.4137L29.7 53.3419Z" fill="url(#paint4_linear_32_7109)"/>
<path d="M86.1609 47.1023C85.7742 47.257 85.0781 48.5461 85.0781 49.0875C85.0781 49.8094 86.3672 51.0469 87.1406 51.0469C88.2234 51.0469 88.6617 50.8148 89.1 49.9641C89.5898 49.0102 89.3578 47.85 88.6102 47.3086C88.0688 46.9219 86.8313 46.8187 86.1609 47.1023Z" fill="url(#paint5_linear_32_7109)"/>
<path d="M103.074 47.2819C101.089 48.7773 102.971 51.7937 105.317 50.8913C106.503 50.4273 106.709 48.0812 105.626 47.3077C104.956 46.8437 103.667 46.8179 103.074 47.2819Z" fill="url(#paint6_linear_32_7109)"/>
<path d="M93.5859 52.1297C93.5859 53.9086 92.8898 56.3063 91.7812 58.5234L90.75 60.5859L93.8438 62.1328L96.9375 63.6797L97.8398 61.875C98.3297 60.8953 98.7422 60.0187 98.7422 59.9414C98.7422 59.8898 98.2781 59.5805 97.7109 59.2969C97.1437 59.0133 96.6797 58.6523 96.6797 58.5234C96.6797 58.3688 96.9117 57.4406 97.1695 56.4609C97.4531 55.4555 97.7625 53.8313 97.8656 52.8516L98.0461 51.0469H95.8031H93.5859V52.1297Z" fill="url(#paint7_linear_32_7109)"/>
<path d="M89.4609 66.0777C88.5328 66.516 87.7335 66.9285 87.6562 66.9801C87.3984 67.1605 88.6101 68.9395 89.6671 69.8934C91.4718 71.5691 93.3281 72.291 95.7773 72.291C97.4789 72.291 98.0976 72.1879 99.3867 71.5949C101.475 70.6152 103.898 68.2176 103.898 67.0832C103.898 66.6965 100.212 65.0723 100.109 65.4074C99.8765 66.1035 98.8968 67.0832 97.9429 67.5473C95.9062 68.6043 93.1476 67.934 91.9617 66.1293C91.6523 65.6395 91.3429 65.227 91.2656 65.2527C91.1882 65.2527 90.389 65.6395 89.4609 66.0777Z" fill="url(#paint8_linear_32_7109)"/>
<path d="M41.0175 88.1467C40.2956 89.1522 40.3472 90.1061 41.1206 90.8795C42.4097 92.1944 44.6011 91.3178 44.6011 89.4873C44.6011 87.5022 42.1261 86.5741 41.0175 88.1467Z" fill="url(#paint9_linear_32_7109)"/>
<path d="M41.8683 93.8445C40.6823 94.3086 40.0894 96.0359 40.8112 96.964C42.0745 98.614 44.6011 97.8922 44.6011 95.8812C44.6011 94.8242 44.3433 94.3859 43.5441 93.9734C42.7191 93.5351 42.6159 93.5351 41.8683 93.8445Z" fill="url(#paint10_linear_32_7109)"/>
</g>
<defs>
<linearGradient id="paint0_linear_32_7109" x1="66.0446" y1="131.871" x2="66.0446" y2="0" gradientUnits="userSpaceOnUse">
<stop stop-color="#00B9C2"/>
<stop offset="1" stop-color="#00585C"/>
</linearGradient>
<linearGradient id="paint1_linear_32_7109" x1="27.6431" y1="38.2949" x2="27.6431" y2="34.0557" gradientUnits="userSpaceOnUse">
<stop stop-color="#00B9C2"/>
<stop offset="1" stop-color="#00585C"/>
</linearGradient>
<linearGradient id="paint2_linear_32_7109" x1="44.6854" y1="38.2598" x2="44.6854" y2="34.0653" gradientUnits="userSpaceOnUse">
<stop stop-color="#00B9C2"/>
<stop offset="1" stop-color="#00585C"/>
</linearGradient>
<linearGradient id="paint3_linear_32_7109" x1="35.1905" y1="50.7891" x2="35.1905" y2="38.4141" gradientUnits="userSpaceOnUse">
<stop stop-color="#00B9C2"/>
<stop offset="1" stop-color="#00585C"/>
</linearGradient>
<linearGradient id="paint4_linear_32_7109" x1="36.0938" y1="59.5508" x2="36.0938" y2="52.4137" gradientUnits="userSpaceOnUse">
<stop stop-color="#00B9C2"/>
<stop offset="1" stop-color="#00585C"/>
</linearGradient>
<linearGradient id="paint5_linear_32_7109" x1="87.2181" y1="51.0469" x2="87.2181" y2="46.9409" gradientUnits="userSpaceOnUse">
<stop stop-color="#00B9C2"/>
<stop offset="1" stop-color="#00585C"/>
</linearGradient>
<linearGradient id="paint6_linear_32_7109" x1="104.286" y1="51.0566" x2="104.286" y2="46.9465" gradientUnits="userSpaceOnUse">
<stop stop-color="#00B9C2"/>
<stop offset="1" stop-color="#00585C"/>
</linearGradient>
<linearGradient id="paint7_linear_32_7109" x1="94.7461" y1="63.6797" x2="94.7461" y2="51.0469" gradientUnits="userSpaceOnUse">
<stop stop-color="#00B9C2"/>
<stop offset="1" stop-color="#00585C"/>
</linearGradient>
<linearGradient id="paint8_linear_32_7109" x1="95.7597" y1="72.291" x2="95.7597" y2="65.2516" gradientUnits="userSpaceOnUse">
<stop stop-color="#00B9C2"/>
<stop offset="1" stop-color="#00585C"/>
</linearGradient>
<linearGradient id="paint9_linear_32_7109" x1="42.554" y1="91.5098" x2="42.554" y2="87.3526" gradientUnits="userSpaceOnUse">
<stop stop-color="#00B9C2"/>
<stop offset="1" stop-color="#00585C"/>
</linearGradient>
<linearGradient id="paint10_linear_32_7109" x1="42.5491" y1="97.877" x2="42.5491" y2="93.6265" gradientUnits="userSpaceOnUse">
<stop stop-color="#00B9C2"/>
<stop offset="1" stop-color="#00585C"/>
</linearGradient>
<clipPath id="clip0_32_7109">
<rect width="132" height="132" fill="white"/>
</clipPath>
</defs>
</svg>
