<svg width="26" height="23" viewBox="0 0 26 23" fill="none" xmlns="http://www.w3.org/2000/svg">
<path d="M9.07682 0.108643C7.89451 0.39501 6.98195 1.18387 6.7122 2.15103C6.64907 2.39418 6.61463 2.72917 6.61463 3.19384L6.60889 3.88545H4.66898C3.53833 3.88545 2.58559 3.90706 2.38471 3.94488C1.29997 4.12859 0.352972 4.97688 0.0946997 5.99808C-0.0315666 6.51678 -0.0315666 19.4087 0.0946997 19.9274C0.341493 20.9054 1.1737 21.6996 2.21827 21.959C2.51672 22.0292 3.80234 22.04 12.9624 22.04C20.3317 22.04 23.4482 22.0238 23.6663 21.9806C24.8601 21.7483 25.7956 20.7757 25.9506 19.6086C25.9908 19.3006 26.008 17.0313 25.9965 12.6656L25.9793 6.18179L25.853 5.82518C25.5488 4.98769 24.929 4.38254 24.0279 4.04214C23.6893 3.91787 23.6434 3.91246 21.5255 3.89625L19.3618 3.88004L19.3446 2.99933L19.3216 2.12402L19.0978 1.69717C18.7993 1.12444 18.3057 0.67057 17.6687 0.373396C16.8652 0.000579834 16.8192 -0.00482368 12.9509 0.000579834C9.73111 0.000579834 9.47858 0.00598335 9.07682 0.108643ZM16.6241 1.21089C17.3014 1.37838 17.9212 1.87007 18.0819 2.37256C18.1163 2.48063 18.145 2.86965 18.145 3.23166V3.88545H17.2899H16.4404L16.406 3.4586C16.3888 3.21005 16.3314 2.93449 16.2625 2.78861C16.1076 2.46442 15.7345 2.12402 15.3385 1.94571C15.0171 1.80523 15.0113 1.80523 13.2953 1.77822C12.3483 1.76201 11.4242 1.76741 11.2406 1.78902C10.7699 1.84846 10.3337 2.05918 10.0296 2.37797C9.71964 2.70216 9.59337 3.03175 9.59337 3.51803V3.88545H8.69803H7.80268L7.82564 3.16683C7.84286 2.56167 7.86582 2.41579 7.97486 2.19966C8.21018 1.7512 8.7382 1.37298 9.38101 1.21089C9.84016 1.09742 16.142 1.09742 16.6241 1.21089ZM14.8506 2.99933C15.0974 3.11279 15.218 3.31812 15.218 3.6423V3.88545H13.0083H10.7986V3.60989C10.7986 3.28029 10.8618 3.15602 11.1028 3.02094C11.275 2.91828 11.407 2.91288 12.9681 2.91288C14.4087 2.91288 14.6842 2.92369 14.8506 2.99933ZM23.7811 5.19841C24.1829 5.38212 24.5043 5.71712 24.6592 6.10614C24.774 6.39251 24.774 6.53299 24.774 12.9627C24.774 19.171 24.7683 19.5438 24.6707 19.8085C24.533 20.1814 24.1427 20.5866 23.7582 20.7487L23.454 20.8784H12.9796H2.50524L2.23549 20.7595C1.9026 20.6136 1.55824 20.284 1.38032 19.9436L1.24258 19.6897L1.22536 13.0708C1.20814 5.58744 1.17944 6.11154 1.66155 5.60905C1.9313 5.32809 2.1207 5.20922 2.50524 5.09575C2.6889 5.04172 4.85264 5.03091 13.0944 5.03632L23.454 5.04712L23.7811 5.19841Z" fill="#00B9C2"/>
<path d="M11.1908 8.15948L11.0449 8.29927V9.70301V11.1009H9.62709C8.30843 11.1009 8.19756 11.1067 8.10421 11.2116C7.99335 11.3339 7.99335 11.264 8.00502 13.2968C8.01085 14.5433 8.02252 14.7763 8.10421 14.852C8.18006 14.9335 8.40178 14.9452 9.62125 14.9452H11.0449V16.3373C11.0449 17.6536 11.0508 17.7352 11.1675 17.8808L11.2842 18.0322H12.9996H14.715L14.8317 17.8808C14.9484 17.7352 14.9542 17.6536 14.9542 16.3373V14.9452H16.3721C17.7024 14.9452 17.8016 14.9393 17.895 14.8345C17.9883 14.7297 18 14.5549 18 13.023C18 11.4912 17.9883 11.3164 17.895 11.2116C17.8016 11.1067 17.7024 11.1009 16.3721 11.1009H14.9542V9.70301V8.29927L14.8084 8.15948L14.6683 8.01386H12.9996H11.3308L11.1908 8.15948ZM14.1957 10.1981C14.1957 11.5494 14.2016 11.631 14.3124 11.7416C14.4233 11.8523 14.505 11.8581 15.8295 11.8581H17.2298V13.023V14.1821L15.7945 14.1996C14.4525 14.2171 14.3533 14.2229 14.2774 14.3278C14.2132 14.421 14.1957 14.7297 14.1957 15.8596V17.275H12.9996H11.8035V15.8596C11.8035 14.7297 11.786 14.421 11.7218 14.3278C11.6459 14.2229 11.5467 14.2171 10.2047 14.1996L8.76937 14.1821V13.023V11.8581H10.1697C11.4942 11.8581 11.5759 11.8523 11.6868 11.7416C11.7976 11.631 11.8035 11.5494 11.8035 10.1981V8.77106H12.9996H14.1957V10.1981Z" fill="#00B9C2"/>
</svg>
