<svg width="31" height="21" viewBox="0 0 31 21" fill="none" xmlns="http://www.w3.org/2000/svg">
<path d="M14.0459 0.0597496C11.6822 0.198395 8.94112 0.759281 6.21856 1.67308C5.74212 1.83064 5.30279 2.00709 5.23473 2.06381C4.99341 2.27808 4.9996 2.38522 5.38323 4.03006C5.58743 4.90605 5.75449 5.6623 5.75449 5.71902C5.75449 5.79465 5.56886 5.87027 4.93772 6.03413C3.92295 6.29251 1.72016 6.96683 0.891018 7.26933C0.278443 7.48991 0 7.69157 0 7.91845C0 7.97517 0.631138 10.7481 1.3984 14.0756C2.48743 18.7832 2.82774 20.1571 2.92675 20.2642C3.11856 20.4785 3.34132 20.447 4.52934 20.0563C7.02295 19.2433 10.0549 18.4051 12.0349 17.9892C14.8441 17.4031 16.0383 17.4031 18.8413 17.9892C20.7224 18.3862 23.315 19.1046 26.0561 19.9932C26.7553 20.2201 27.4112 20.4092 27.5164 20.4092C27.6277 20.4092 27.7515 20.3525 27.8257 20.2642C27.9248 20.1571 28.3269 18.6635 29.4778 14.0945C30.3132 10.7796 31 8.00038 31 7.91845C30.9938 7.72939 30.8948 7.59704 30.6535 7.471C30.1214 7.18741 26.0808 5.93959 25.295 5.80725C25.1527 5.78834 25.0599 5.73793 25.0599 5.68121C25.0599 5.63709 25.2269 4.93756 25.4311 4.1309C25.6353 3.32423 25.8024 2.56168 25.8024 2.44194C25.8024 2.11423 25.6353 1.99449 24.701 1.66678C22.9251 1.04288 20.58 0.494593 18.6248 0.24251C17.7523 0.135374 15.3948 -0.0221767 15.005 0.00303078C14.9369 0.00303078 14.5038 0.0282383 14.0459 0.0597496ZM17.48 1.19412C18.9465 1.33277 20.58 1.61636 22.0713 2.00079C22.9128 2.22136 24.1689 2.59949 24.4782 2.73183L24.6824 2.81376L24.3483 4.11829C24.1689 4.83673 24.0018 5.43543 23.9832 5.45433C23.9709 5.47324 23.4882 5.39761 22.9128 5.29048C17.3934 4.26954 13.0745 4.28845 7.80259 5.3535C7.28283 5.45433 6.84351 5.52996 6.82495 5.51735C6.76307 5.45433 6.2 2.85788 6.23713 2.81376C6.32994 2.73183 7.94491 2.24027 9.12675 1.94407C10.5561 1.58485 12.1834 1.29496 13.3343 1.19412C13.7798 1.15631 14.2501 1.1122 14.3862 1.09959C14.7699 1.06178 16.719 1.1185 17.48 1.19412ZM18.5319 5.75683C21.4339 6.03413 24.8495 6.70215 27.4421 7.49621C28.5992 7.84913 29.7625 8.25876 29.7996 8.31548C29.8182 8.34699 29.7192 8.83225 29.5768 9.39944C28.4693 13.8172 27.1513 19.0101 27.1142 19.092C27.077 19.1866 26.9471 19.1551 26.019 18.8526C22.492 17.7056 19.0888 16.8485 17.0778 16.6027C15.8713 16.4515 15.4938 16.4389 14.6647 16.5082C12.4433 16.6909 8.99681 17.5039 4.85729 18.8274C4.21377 19.0353 3.67545 19.1992 3.66926 19.1929C3.66926 19.1866 3.52076 18.5564 3.34132 17.7938C3.16806 17.0313 2.93293 16.0103 2.81537 15.5251C1.51597 9.90991 1.16946 8.35329 1.21277 8.30918C1.24371 8.27767 1.86866 8.0634 2.5988 7.83652C6.36088 6.65173 10.3581 5.83876 13.1363 5.68751C13.5509 5.6623 13.9036 5.63079 13.9222 5.61819C13.9902 5.55517 17.5481 5.6623 18.5319 5.75683Z" fill="#00B9C2"/>
<path d="M15.8317 7.11454C15.0181 7.13225 14.3227 7.16767 14.2899 7.19128C14.2636 7.2208 14.2243 7.74029 14.2046 8.34242L14.1718 9.44634L12.9384 9.47586C11.8099 9.50537 11.6918 9.51718 11.6065 9.61754C11.5343 9.71199 11.5146 10.0131 11.5146 11.0993C11.5146 12.3449 11.5278 12.4747 11.6327 12.5633C11.7312 12.6459 11.9542 12.6636 12.9646 12.6754L14.1718 12.6932L14.1915 13.7853C14.2046 14.8124 14.2112 14.8833 14.3424 14.9777C14.467 15.0722 14.6507 15.084 15.9432 15.084C17.2357 15.084 17.4194 15.0722 17.5441 14.9777C17.6818 14.8833 17.6884 14.8301 17.6884 13.8974C17.6884 13.3543 17.7081 12.8584 17.7278 12.7876C17.7606 12.6695 17.7934 12.6636 18.9612 12.6636C20.0372 12.6636 20.1684 12.6518 20.2603 12.5574C20.3587 12.4629 20.3718 12.2681 20.3718 11.0816C20.3718 9.78873 20.3652 9.70608 20.2406 9.59392C20.1159 9.48176 20.0241 9.47586 18.9022 9.47586H17.695L17.6818 8.37194C17.6818 7.74029 17.649 7.23851 17.6097 7.19719C17.5113 7.08502 17.4128 7.08502 15.8317 7.11454ZM16.8814 8.93866C16.8945 9.84776 16.9142 10.0485 17.0061 10.137C17.0979 10.2315 17.2357 10.2433 18.3182 10.2433H19.5189V11.0697V11.8962H18.3379C16.7764 11.8962 16.8945 11.7899 16.8945 13.2244V14.3166H15.9826H15.0641L15.0444 13.2185C15.0181 11.7959 15.1362 11.8962 13.5419 11.8962H12.3676V11.0697V10.2433H13.5682C15.1362 10.2433 15.0181 10.3495 15.0444 8.90914L15.0641 7.81703L15.9629 7.83474L16.8617 7.85245L16.8814 8.93866Z" fill="#00B9C2"/>
</svg>
