<svg width="35" height="35" viewBox="0 0 35 35" fill="none" xmlns="http://www.w3.org/2000/svg">
<path d="M28.415 29.3911L19.2829 20.2591C18.5538 20.8803 17.7152 21.3611 16.7673 21.7013C15.8194 22.0416 14.8666 22.2118 13.909 22.2118C11.5737 22.2118 9.59718 21.4034 7.9794 19.7866C6.36162 18.1697 5.55273 16.1937 5.55273 13.8584C5.55273 11.5231 6.36065 9.54613 7.97648 7.92738C9.59232 6.30863 11.5679 5.49829 13.9032 5.49634C16.2384 5.4944 18.2159 6.30329 19.8357 7.92301C21.4554 9.54273 22.2657 11.5197 22.2667 13.854C22.2667 14.8671 22.0873 15.8476 21.7286 16.7955C21.3698 17.7434 20.8983 18.5543 20.314 19.228L29.4461 28.3586L28.415 29.3911ZM13.909 20.752C15.8437 20.752 17.4775 20.086 18.8104 18.7541C20.1434 17.4221 20.8093 15.7883 20.8084 13.8526C20.8074 11.9169 20.1414 10.2836 18.8104 8.95259C17.4795 7.62162 15.8461 6.95565 13.9104 6.95467C11.9747 6.9537 10.3409 7.61967 9.00898 8.95259C7.67704 10.2855 7.01107 11.9188 7.01107 13.8526C7.01107 15.7863 7.67704 17.4197 9.00898 18.7526C10.3409 20.0855 11.9743 20.7529 13.909 20.752Z" fill="#979797"/>
</svg>
