<svg width="12" height="12" viewBox="0 0 12 12" fill="none" xmlns="http://www.w3.org/2000/svg">
<path d="M3 11C2.725 11 2.48967 10.9022 2.294 10.7065C2.09833 10.5108 2.00033 10.2753 2 10V4L5 1H9C9.275 1 9.5105 1.098 9.7065 1.294C9.9025 1.49 10.0003 1.72533 10 2V10C10 10.275 9.90217 10.5105 9.7065 10.7065C9.51083 10.9025 9.27533 11.0003 9 11H3ZM3 10H9V2H5.425L3 4.425V10ZM6 8.5C6.14167 8.5 6.2605 8.452 6.3565 8.356C6.4525 8.26 6.50033 8.14133 6.5 8C6.49967 7.85867 6.45167 7.74 6.356 7.644C6.26033 7.548 6.14167 7.5 6 7.5C5.85833 7.5 5.73967 7.548 5.644 7.644C5.54833 7.74 5.50033 7.85867 5.5 8C5.49967 8.14133 5.54767 8.26017 5.644 8.3565C5.74033 8.45283 5.859 8.50067 6 8.5ZM5.5 6.5H6.5V4H5.5V6.5Z" fill="#006879"/>
</svg>
