<svg width="14" height="14" viewBox="0 0 14 14" fill="none" xmlns="http://www.w3.org/2000/svg">
<path d="M8.20584 0.691301L9.58229 2.95264C9.77872 3.27091 10.0833 3.50038 10.4352 3.59524L12.9263 4.25926C13.1596 4.32121 13.374 4.44356 13.5495 4.61493C13.7251 4.78631 13.8561 5.00112 13.9304 5.23937C14.0047 5.47762 14.0198 5.73155 13.9743 5.97752C13.9289 6.22348 13.8243 6.45347 13.6704 6.64607L12.0322 8.70851C11.7997 8.99922 11.6829 9.37146 11.7058 9.74891L11.8675 12.4203C11.883 12.6701 11.8375 12.9199 11.7353 13.1465C11.6331 13.3731 11.4774 13.5691 11.2828 13.7163C11.0882 13.8635 10.861 13.9571 10.6223 13.9884C10.3836 14.0196 10.1412 13.9876 9.91758 13.8952L7.52647 12.9099C7.18851 12.7693 6.81149 12.7693 6.47353 12.9099L4.08242 13.8952C3.85865 13.9874 3.61616 14.0193 3.37737 13.988C3.13859 13.9567 2.91125 13.8631 2.71648 13.716C2.52171 13.5689 2.36579 13.373 2.26318 13.1465C2.16058 12.92 2.11463 12.6702 2.12956 12.4203L2.29424 9.74891C2.31709 9.37146 2.20029 8.99922 1.96778 8.70851L0.329605 6.64607C0.1757 6.45347 0.0711167 6.22348 0.0256578 5.97752C-0.0198011 5.73155 -0.00467346 5.47762 0.069602 5.23937C0.143877 5.00112 0.274886 4.78631 0.450451 4.61493C0.626017 4.44356 0.840418 4.32121 1.07368 4.25926L3.56482 3.59524C3.91673 3.50038 4.22128 3.27091 4.41771 2.95264L5.79416 0.691301C5.92276 0.479567 6.10077 0.305139 6.31161 0.184264C6.52246 0.0633892 6.75927 0 7 0C7.24073 0 7.47754 0.0633892 7.68839 0.184264C7.89923 0.305139 8.07725 0.479567 8.20584 0.691301Z" fill="url(#paint0_linear_106_2866)"/>
<defs>
<linearGradient id="paint0_linear_106_2866" x1="14.5485" y1="14" x2="-0.976783" y2="0.714119" gradientUnits="userSpaceOnUse">
<stop stop-color="#FFA800"/>
<stop offset="1" stop-color="#FFDB20"/>
</linearGradient>
</defs>
</svg>
