<svg width="116" height="109" viewBox="0 0 116 109" fill="none" xmlns="http://www.w3.org/2000/svg">
<g clip-path="url(#clip0_35_10063)">
<path fill-rule="evenodd" clip-rule="evenodd" d="M40.7517 0.0883108C41.0629 0.112943 41.5423 0.112586 41.817 0.0877158C42.0918 0.0627267 41.8371 0.0426164 41.2512 0.0429734C40.6653 0.0433304 40.4405 0.0637977 40.7517 0.0883108ZM37.1401 0.205997C37.3528 0.232414 37.6724 0.231938 37.8503 0.204807C38.0282 0.177557 37.8541 0.1559 37.4635 0.156614C37.0729 0.157209 36.9274 0.179461 37.1401 0.205997ZM45.066 0.20564C45.2761 0.231938 45.6489 0.232295 45.8945 0.206592C46.14 0.18077 45.9682 0.159351 45.5124 0.158756C45.0567 0.15828 44.8557 0.179342 45.066 0.20564ZM23.0522 3.87594C22.743 4.03778 22.49 4.19675 22.49 4.22936C22.49 4.28243 23.6618 3.72601 23.7822 3.61582C23.9288 3.48147 23.5436 3.61879 23.0522 3.87594ZM40.7553 3.7786C41.6543 3.79883 43.0924 3.79883 43.9512 3.77848C44.8098 3.75814 44.0743 3.7416 42.3165 3.74171C40.5588 3.74171 39.8561 3.75837 40.7553 3.7786ZM20.3532 5.52784C19.7382 5.9498 18.9686 6.54061 18.6431 6.84084C18.2055 7.24423 18.298 7.19164 18.9983 6.63878C19.5191 6.22753 20.3047 5.65719 20.7442 5.37136C21.4452 4.91525 21.6385 4.76056 21.5073 4.76056C21.4877 4.76056 20.9684 5.10576 20.3532 5.52784ZM62.3798 4.91442C62.3798 4.945 62.6594 5.18263 63.0012 5.44252C63.3431 5.70252 64.0354 6.30321 64.54 6.77753C65.0446 7.25185 65.4534 7.59455 65.4487 7.53898C65.4314 7.33764 62.3798 4.72783 62.3798 4.91442ZM43.6138 8.56842L43.6186 10.5318L45.483 10.5365L47.3474 10.5412L45.5155 10.5038L43.6836 10.4663L43.6464 8.53569L43.6092 6.60499L43.6138 8.56842ZM59.1839 7.29326C59.3058 7.42534 61.443 8.80641 61.5249 8.80605C61.6318 8.80569 59.961 7.67059 59.4798 7.41666C59.2845 7.31349 59.1513 7.25804 59.1839 7.29326ZM17.9134 9.16339C17.9134 9.65425 17.9344 9.85511 17.9598 9.60963C17.9854 9.36426 17.9854 8.96265 17.9598 8.71716C17.9344 8.47179 17.9134 8.67254 17.9134 9.16339ZM21.8686 9.0156L21.5431 9.21849L21.5714 14.5161L21.5996 19.8135L21.6296 14.5777L21.6595 9.34189L21.986 9.07474C22.3726 8.75833 22.3222 8.73299 21.8686 9.0156ZM61.6006 11.4838C61.6007 12.7273 61.6182 13.2198 61.6395 12.5783C61.6608 11.9368 61.6607 10.9194 61.6393 10.3174C61.6179 9.71541 61.6005 10.2403 61.6006 11.4838ZM38.0257 10.559C38.2699 10.5847 38.6694 10.5847 38.9135 10.559C39.1577 10.5334 38.9579 10.5123 38.4696 10.5123C37.9813 10.5123 37.7816 10.5334 38.0257 10.559ZM17.8082 16.6601C17.8082 18.7872 17.8242 19.6574 17.8438 18.5938C17.8635 17.5303 17.8635 15.79 17.8438 14.7264C17.8242 13.663 17.8082 14.5331 17.8082 16.6601ZM34.4483 13.2893C34.4442 13.4708 35.1319 14.1622 35.3124 14.158C35.3887 14.1563 35.3124 14.0683 35.1428 13.9624C34.9731 13.8566 34.7481 13.6304 34.6429 13.4599C34.5375 13.2893 34.45 13.2126 34.4483 13.2893ZM48.7716 13.4991C48.6868 13.6582 48.4631 13.8528 48.2744 13.9314C48.0858 14.01 47.9528 14.0958 47.9791 14.1222C48.0053 14.1486 48.166 14.1064 48.3363 14.0283C48.6339 13.892 49.0752 13.3598 48.9745 13.2586C48.9477 13.2316 48.8564 13.3399 48.7716 13.4991ZM43.6 15.8866C43.6003 16.4102 43.6212 16.6097 43.6462 16.3298C43.6712 16.0499 43.6709 15.6215 43.6454 15.3778C43.62 15.1341 43.5995 15.3631 43.6 15.8866ZM61.7192 19.04C61.7192 20.3163 61.7366 20.8384 61.7579 20.2002C61.7791 19.5621 61.7791 18.518 61.7579 17.8798C61.7366 17.2416 61.7192 17.7638 61.7192 19.04ZM30.2727 18.5311C30.4843 18.5575 30.8304 18.5575 31.042 18.5311C31.2537 18.5048 31.0805 18.4831 30.6573 18.4831C30.2342 18.4831 30.0611 18.5048 30.2727 18.5311ZM65.3879 20.6465C65.388 21.8245 65.4057 22.2904 65.4273 21.6816C65.4488 21.073 65.4487 20.1091 65.427 19.5397C65.4054 18.9704 65.3877 19.4684 65.3879 20.6465ZM27.1951 19.4644C26.8858 19.6262 26.6329 19.7852 26.6329 19.8178C26.6329 19.8709 27.8047 19.3144 27.9251 19.2042C28.0716 19.0699 27.6864 19.2072 27.1951 19.4644ZM54.459 19.3234C54.5796 19.4344 55.988 20.1083 55.988 20.0549C55.988 19.9882 54.6205 19.278 54.492 19.278C54.4467 19.278 54.4319 19.2985 54.459 19.3234ZM35.392 20.1705C35.8152 20.3932 36.2147 20.5754 36.2798 20.5754C36.3449 20.5754 36.0519 20.3932 35.6288 20.1705C35.2056 19.9477 34.8061 19.7655 34.741 19.7655C34.6759 19.7655 34.9689 19.9477 35.392 20.1705ZM56.1063 20.1399C56.1063 20.171 56.4007 20.3928 56.7604 20.6329C57.1201 20.873 57.8258 21.4537 58.3288 21.9235C59.1052 22.6488 59.1448 22.6743 58.592 22.0923C57.8191 21.2785 56.1063 19.9332 56.1063 20.1399ZM24.6707 21.2731C24.2751 21.6484 23.849 22.0924 23.7237 22.2599C23.5986 22.4274 23.684 22.3605 23.9136 22.1112C24.1432 21.862 24.596 21.4195 24.9197 21.1278C25.2435 20.8363 25.4817 20.5961 25.4492 20.5942C25.4166 20.5924 25.0664 20.8979 24.6707 21.2731ZM21.4614 22.3124C21.462 22.7051 21.4841 22.8513 21.5105 22.6375C21.5368 22.4237 21.5363 22.1024 21.5093 21.9235C21.4822 21.7447 21.4607 21.9197 21.4614 22.3124ZM22.9867 23.2346C22.6352 23.7524 22.2818 24.3884 22.4122 24.2685C22.5388 24.1521 23.4341 22.7289 23.3808 22.7289C23.3529 22.7289 23.1755 22.9564 22.9867 23.2346ZM53.2753 22.8931C53.3961 23.0037 54.5676 23.5597 54.5676 23.5064C54.5676 23.4393 53.4371 22.8479 53.3089 22.8479C53.2634 22.8479 53.2482 22.8682 53.2753 22.8931ZM33.6165 23.6214C34.3001 23.9747 34.9127 24.2636 34.9778 24.2636C35.0429 24.2636 34.5368 23.9747 33.8533 23.6214C33.1697 23.2681 32.5571 22.9791 32.492 22.9791C32.4269 22.9791 32.933 23.2681 33.6165 23.6214ZM27.8532 23.4996C27.5171 23.7273 27.2059 23.9722 27.1618 24.0439C27.0927 24.1562 28.1429 23.4614 28.4616 23.1838C28.7183 22.9603 28.4248 23.1127 27.8532 23.4996ZM21.3157 23.5792C21.3054 23.7939 20.5504 24.5138 20.3356 24.5138C20.2619 24.5138 20.2334 24.5458 20.2723 24.5849C20.4781 24.7918 21.5008 23.8191 21.3834 23.5281C21.3485 23.4417 21.3212 23.4623 21.3157 23.5792ZM62.1431 24.0294C62.3709 24.2336 62.6639 24.4565 62.7941 24.5248C63.0761 24.6726 62.6286 24.2815 62.0839 23.9042C61.7835 23.6961 61.7926 23.7154 62.1431 24.0294ZM65.2206 23.8025C65.2206 23.8693 64.9705 24.0835 64.6648 24.2785C64.3591 24.4734 64.1647 24.6328 64.2327 24.6328C64.4155 24.6328 65.339 23.9368 65.339 23.7991C65.339 23.7341 65.3123 23.6809 65.2798 23.6809C65.2472 23.6809 65.2206 23.7356 65.2206 23.8025ZM55.1002 23.8723C55.1653 23.9386 55.5898 24.3376 56.0434 24.7591C56.5562 25.2354 56.7197 25.3498 56.4754 25.0613C56.104 24.6227 55.7582 24.3092 55.2186 23.9218C55.0884 23.8283 55.0351 23.806 55.1002 23.8723ZM26.4164 24.7115C25.95 25.26 25.3745 26.1798 25.4977 26.1798C25.5328 26.1798 25.6435 26.0202 25.7439 25.8252C25.8442 25.6301 26.1658 25.175 26.4585 24.8137C27.105 24.0156 27.0734 23.9387 26.4164 24.7115ZM46.4002 24.9303C45.8468 25.2183 45.4352 25.4565 45.4855 25.4598C45.6113 25.4681 47.4655 24.5253 47.4655 24.453C47.4655 24.3723 47.5157 24.3499 46.4002 24.9303ZM21.3788 26.492C21.2739 26.8018 21.1919 27.1126 21.1966 27.1827C21.2013 27.2529 21.3077 27.02 21.433 26.6653C21.5582 26.3105 21.6402 25.9997 21.6151 25.9746C21.5902 25.9495 21.4838 26.1823 21.3788 26.492ZM20.3977 30.2199C20.3231 30.4189 20.0902 30.6755 19.8802 30.7904C19.2564 31.1314 18.5615 31.6925 18.3688 32.0106C18.25 32.2065 18.307 32.172 18.5359 31.9094C18.7271 31.6901 19.1704 31.3413 19.521 31.1344C20.1816 30.7444 20.6574 30.2319 20.5787 29.9948C20.5539 29.9198 20.4724 30.0211 20.3977 30.2199ZM63.09 30.9936C63.09 31.0267 63.2979 31.1603 63.552 31.2908C63.8061 31.421 64.1845 31.7301 64.3929 31.9774C64.6012 32.2246 64.7174 32.3199 64.6513 32.189C64.4835 31.8576 63.9321 31.3606 63.4747 31.1286C63.2631 31.0213 63.09 30.9605 63.09 30.9936ZM58.8334 32.7007C58.826 32.948 59.1359 33.4784 59.4381 33.7354L59.7165 33.9723L59.4566 33.6748C59.3136 33.5112 59.1159 33.1903 59.0173 32.9617C58.9187 32.7331 58.836 32.6156 58.8334 32.7007ZM23.6145 33.3639C23.4405 33.7249 23.268 33.8926 22.9635 33.9971C22.6784 34.0948 22.6273 34.1412 22.7995 34.1458C23.139 34.1549 23.609 33.7636 23.7919 33.3197C24.0186 32.7697 23.8848 32.8031 23.6145 33.3639ZM21.3501 36.2944C21.3501 36.9816 21.3697 37.2627 21.3936 36.9191C21.4175 36.5756 21.4175 36.0132 21.3936 35.6697C21.3697 35.3261 21.3501 35.6072 21.3501 36.2944ZM17.6736 37.5439C17.6742 37.9365 17.6964 38.0828 17.7228 37.8689C17.749 37.6551 17.7486 37.3338 17.7216 37.155C17.6945 36.9761 17.6729 37.1512 17.6736 37.5439ZM18.8375 41.5351C18.9854 41.7995 19.3665 42.2949 19.6845 42.6358L20.2624 43.2556L19.7664 42.6607C19.4935 42.3334 19.1374 41.838 18.975 41.56C18.5989 40.9157 18.4792 40.8941 18.8375 41.5351ZM62.7008 42.9089C62.1938 43.4014 61.8742 43.7516 61.9906 43.6872C62.2058 43.5682 63.7804 42.0032 63.6784 42.0098C63.6477 42.0118 63.2078 42.4164 62.7008 42.9089ZM23.0818 47.6409C23.0818 47.7703 24.2613 50.0979 24.3268 50.0979C24.3799 50.0979 23.2387 47.73 23.1274 47.6089C23.1023 47.5816 23.0818 47.596 23.0818 47.6409ZM59.149 48.9708C58.9742 49.3289 58.8565 49.6219 58.8872 49.6219C58.9669 49.6219 59.564 48.4174 59.5108 48.364C59.4865 48.3396 59.3238 48.6126 59.149 48.9708ZM54.8555 49.1162C54.6761 49.4271 54.3228 49.9892 54.0705 50.3656C53.8182 50.742 53.6384 51.0499 53.6709 51.0499C53.7443 51.0499 54.535 49.8764 54.9739 49.1162C55.1534 48.8052 55.2736 48.5509 55.2411 48.5509C55.2085 48.5509 55.035 48.8052 54.8555 49.1162ZM28.1261 49.4137C28.3745 49.8396 29.1349 50.9309 29.1831 50.9309C29.2137 50.9309 28.9909 50.556 28.6878 50.0979C28.3848 49.6398 28.1149 49.2649 28.0881 49.2649C28.0613 49.2649 28.0784 49.3319 28.1261 49.4137ZM58.3495 50.4251C58.1386 50.8015 57.7058 51.4975 57.3877 51.9721C57.0696 52.4466 56.8359 52.8348 56.8685 52.8348C56.9525 52.8348 58.012 51.2386 58.4679 50.4251C58.6788 50.0487 58.8247 49.7409 58.7922 49.7409C58.7596 49.7409 58.5604 50.0487 58.3495 50.4251ZM72.2422 50.9309C72.2422 51.3563 72.2637 51.5304 72.2899 51.3176C72.3161 51.1048 72.3161 50.7569 72.2899 50.5441C72.2637 50.3314 72.2422 50.5055 72.2422 50.9309ZM24.7421 50.8714C25.1404 51.5543 25.9223 52.7158 25.9836 52.7158C26.046 52.7158 24.7545 50.6849 24.5836 50.5144C24.518 50.4489 24.5894 50.6096 24.7421 50.8714ZM52.8754 51.9721C52.2225 52.7741 51.0761 53.9232 50.0696 54.7841C49.6589 55.1355 49.6318 55.1766 49.9512 54.9642C50.4543 54.6296 52.7164 52.3759 53.2533 51.6746C53.8662 50.874 53.596 51.0867 52.8754 51.9721ZM115.929 52.8943C115.929 53.876 115.948 54.2618 115.97 53.7515C115.992 53.2414 115.992 52.4382 115.97 51.9666C115.947 51.4951 115.929 51.9126 115.929 52.8943ZM30.7124 52.8348C31.6729 53.8986 31.6478 53.8742 31.5091 53.6083C31.4408 53.4774 31.0765 53.0758 30.6995 52.7158L30.0139 52.0613L30.7124 52.8348ZM94.0135 52.3288L112.212 52.3595V54.5007V56.6419L94.0135 56.6724L75.8145 56.7029L94.0752 56.7323L112.336 56.7616L112.304 54.5305L112.272 52.2993L94.0431 52.2987L75.8145 52.2981L94.0135 52.3288ZM56.1201 53.757C55.7771 54.201 55.6931 54.3473 55.9322 54.0842C56.39 53.5805 56.8639 52.9538 56.7867 52.9538C56.7614 52.9538 56.4614 53.3153 56.1201 53.757ZM27.2376 54.3809C28.4034 55.8469 31.4177 58.5246 32.4609 59.021C32.6942 59.1319 32.6907 59.1211 32.4334 58.9368C30.3495 57.443 29.0362 56.2878 27.5259 54.6197C26.9729 54.009 26.8819 53.9336 27.2376 54.3809ZM72.1152 79.4924L72.0859 105.258L72.6482 105.938L73.2104 106.617L79.5431 106.59L85.8757 106.563L79.5431 106.526L73.2104 106.488L72.7369 105.906L72.2635 105.323L72.2039 79.5254L72.1443 53.7273L72.1152 79.4924ZM54.1513 55.9584L52.8512 57.2971L54.1829 55.9902C54.9153 55.2713 55.5145 54.669 55.5145 54.6515C55.5145 54.5657 55.3587 54.715 54.1513 55.9584ZM47.791 56.234C47.4817 56.3959 47.2288 56.5548 47.2288 56.5874C47.2288 56.62 47.4951 56.511 47.8206 56.3452C48.1461 56.1793 48.4124 56.0178 48.4124 55.9862C48.4124 55.9075 48.4231 55.9032 47.791 56.234ZM28.1442 58.8708C28.3569 58.8973 28.6765 58.8968 28.8544 58.8697C29.0323 58.8424 28.8582 58.8207 28.4676 58.8215C28.0769 58.8221 27.9315 58.8443 28.1442 58.8708ZM53.5318 58.8698C53.7108 58.897 54.0039 58.897 54.1829 58.8698C54.3618 58.8425 54.2154 58.8203 53.8573 58.8203C53.4993 58.8203 53.3529 58.8425 53.5318 58.8698ZM29.674 59.1361C29.8817 59.2634 30.1326 59.5176 30.2315 59.7008C30.3303 59.8841 30.4133 59.9617 30.4159 59.8734C30.4219 59.6669 29.6658 58.9035 29.4559 58.904C29.368 58.9043 29.4661 59.0086 29.674 59.1361ZM52.5368 59.1719C52.2038 59.455 51.9615 59.8559 51.9665 60.1154C51.9683 60.2016 52.0615 60.0696 52.1737 59.8223C52.2859 59.5749 52.5375 59.2675 52.7329 59.1388C52.9282 59.0103 53.0347 58.905 52.9696 58.905C52.9045 58.9049 52.7098 59.0249 52.5368 59.1719ZM48.7676 59.915C48.2142 60.203 47.8025 60.4412 47.8528 60.4446C47.9786 60.4528 49.8329 59.51 49.8329 59.4377C49.8329 59.3571 49.883 59.3346 48.7676 59.915ZM94.0135 60.5398L112.212 60.5702V81.6912V102.812L94.0135 102.843L75.8145 102.873L94.0726 102.903L112.331 102.932V81.6912V60.4505L94.0726 60.4799L75.8145 60.5093L94.0135 60.5398ZM13.2573 63.5444C12.8993 63.7346 12.6596 63.8902 12.7247 63.8902C12.7898 63.8902 13.136 63.7346 13.4941 63.5444C13.8521 63.3542 14.0918 63.1986 14.0267 63.1986C13.9616 63.1986 13.6154 63.3542 13.2573 63.5444ZM11.4522 64.4447C11.1431 64.6065 10.89 64.7655 10.89 64.7981C10.89 64.8307 11.1563 64.7217 11.4818 64.5559C11.8074 64.39 12.0737 64.2285 12.0737 64.1968C12.0737 64.1182 12.0843 64.1139 11.4522 64.4447ZM6.96257 67.2661C6.2023 67.8043 5.37669 68.4202 5.12788 68.6347C4.87919 68.8492 5.18174 68.6576 5.80021 68.209C6.41868 67.7604 7.25767 67.1679 7.66449 66.8923C8.28628 66.4713 8.52301 66.2687 8.3747 66.2844C8.35836 66.2862 7.72297 66.7279 6.96257 67.2661ZM15.1512 66.8763C14.7932 67.0664 14.5535 67.2221 14.6186 67.2221C14.6837 67.2221 15.0299 67.0664 15.388 66.8763C15.746 66.6861 15.9857 66.5305 15.9206 66.5305C15.8555 66.5305 15.5093 66.6861 15.1512 66.8763ZM13.7012 67.5979C13.327 67.7921 13.0206 67.9777 13.0206 68.0103C13.0206 68.043 13.3402 67.9075 13.7308 67.7092C14.1214 67.511 14.441 67.3229 14.441 67.2911C14.441 67.2117 14.4629 67.2026 13.7012 67.5979ZM81.4073 67.5584C81.684 67.5835 82.1368 67.5835 82.4135 67.5584C82.6901 67.5334 82.4638 67.5128 81.9104 67.5128C81.357 67.5128 81.1307 67.5334 81.4073 67.5584ZM79.4311 67.9006C79.2294 68.0712 79.0066 68.3256 78.9363 68.4658C78.8659 68.606 78.977 68.5206 79.1831 68.2759C79.3892 68.0314 79.7277 67.7818 79.9352 67.7215C80.2157 67.6399 80.2465 67.6089 80.0552 67.601C79.9137 67.5951 79.6329 67.7299 79.4311 67.9006ZM92.6701 67.8942C92.8915 67.9908 93.1447 68.1627 93.2326 68.2763C93.3835 68.4711 93.3885 68.4707 93.3188 68.2701C93.2419 68.0487 92.6886 67.7058 92.4214 67.7139C92.3368 67.7165 92.4486 67.7975 92.6701 67.8942ZM3.69919 69.7368C3.22726 70.13 2.84102 70.4779 2.84102 70.5099C2.84102 70.5419 3.24051 70.2386 3.72878 69.8357C4.51119 69.1901 4.69726 69.0133 4.58694 69.02C4.57061 69.0209 4.17124 69.3435 3.69919 69.7368ZM9.4387 70.1511C9.00003 70.4471 8.64102 70.7152 8.64102 70.7471C8.64102 70.779 9.01388 70.5557 9.46959 70.2511C10.1945 69.7666 10.3862 69.6132 10.2673 69.6132C10.2503 69.6132 9.87749 69.8552 9.4387 70.1511ZM79.2518 70.7139L79.69 71.2791L85.3277 71.2505L90.9655 71.222L85.3453 71.1899L79.725 71.1577L79.2693 70.6532L78.8136 70.1487L79.2518 70.7139ZM1.59568 71.6658L0.532861 72.7666L1.62776 71.6981C2.22989 71.1104 2.72266 70.6151 2.72266 70.5974C2.72266 70.511 2.58287 70.6436 1.59568 71.6658ZM7.84204 71.2865C7.5002 71.5502 7.22062 71.792 7.22062 71.8239C7.22062 71.8558 7.51358 71.6594 7.87164 71.3876C8.43696 70.9587 8.60883 70.7974 8.49306 70.805C8.47673 70.8061 8.18389 71.0228 7.84204 71.2865ZM65.3964 86.689C65.3964 94.87 65.4105 98.1992 65.4277 94.0872C65.445 89.9753 65.445 83.2818 65.4277 79.2128C65.4105 75.1439 65.3964 78.5081 65.3964 86.689ZM4.05429 74.3748L3.6696 74.7266L3.69658 77.138L3.72345 79.5493L3.75837 77.1724L3.79317 74.7954L4.16887 74.4057C4.63547 73.9218 4.56931 73.9038 4.05429 74.3748ZM85.3807 75.6521C86.8662 75.671 89.2631 75.671 90.7072 75.6521C92.1513 75.6332 90.9359 75.6177 88.0063 75.6177C85.0767 75.6177 83.8952 75.6332 85.3807 75.6521ZM80.4012 75.7672C80.5803 75.7944 80.8732 75.7944 81.0522 75.7672C81.2313 75.7399 81.0848 75.7176 80.7267 75.7176C80.3687 75.7176 80.2221 75.7399 80.4012 75.7672ZM95.6088 75.7679C95.8189 75.7942 96.1918 75.7945 96.4374 75.7688C96.6829 75.743 96.511 75.7216 96.0553 75.721C95.5996 75.7205 95.3986 75.7416 95.6088 75.7679ZM79.3279 76.1633C78.9702 76.4984 78.6669 76.9827 78.7577 77.074C78.799 77.1155 78.8329 77.0873 78.8329 77.0111C78.8329 76.9349 79.0254 76.6582 79.2609 76.3963C79.719 75.8866 79.7542 75.7641 79.3279 76.1633ZM78.6122 77.564C78.5933 78.0271 78.7186 78.2974 79.2707 78.9841L79.6773 79.4898L86.2683 79.4611L92.8594 79.4323L86.265 79.4006L79.6708 79.3688L79.2488 78.8133C78.8437 78.2799 78.7783 78.1265 78.675 77.4669C78.6383 77.2323 78.625 77.2529 78.6122 77.564ZM0.0380859 79.9658C0.0380859 80.3912 0.0596288 80.5653 0.085788 80.3525C0.112066 80.1398 0.112066 79.7918 0.085788 79.5791C0.0596288 79.3663 0.0380859 79.5404 0.0380859 79.9658ZM95.8456 79.3377C96.0557 79.364 96.4285 79.3644 96.6741 79.3387C96.9196 79.3129 96.7477 79.2914 96.292 79.2908C95.8363 79.2904 95.6353 79.3114 95.8456 79.3377ZM3.82347 81.2747C3.82347 81.6347 3.84561 81.782 3.87271 81.602C3.89982 81.4219 3.89982 81.1275 3.87271 80.9475C3.84561 80.7675 3.82347 80.9148 3.82347 81.2747ZM79.305 87.1948L79.6813 87.7005L81.0622 87.675L82.4431 87.6496L81.0818 87.6126L79.7206 87.5756L79.3247 87.1323L78.9288 86.689L79.305 87.1948ZM94.3094 87.7896C95.6278 87.8088 97.785 87.8088 99.1033 87.7896C100.422 87.7705 99.343 87.7548 96.7063 87.7548C94.0697 87.7548 92.9911 87.7705 94.3094 87.7896ZM79.4113 92.4306C79.2494 92.6106 79.0443 92.8649 78.9555 92.9958C78.8667 93.1267 79.0026 93.0051 79.2573 92.7255L79.7206 92.2172L85.4022 92.1888L91.0839 92.1605L85.3948 92.1319L79.7057 92.1033L79.4113 92.4306ZM92.7089 92.5271C92.8866 92.6241 93.1108 92.8494 93.2073 93.0281C93.3037 93.2067 93.3847 93.2818 93.3873 93.1949C93.3899 93.108 93.2364 92.8805 93.0461 92.6892C92.8557 92.4978 92.6294 92.3435 92.543 92.3461C92.4566 92.3487 92.5313 92.4301 92.7089 92.5271ZM2.36756 93.0979C2.36756 93.2273 3.19222 94.8402 3.25827 94.8402C3.29082 94.8402 3.12416 94.452 2.88778 93.9775C2.44449 93.0873 2.36756 92.9573 2.36756 93.0979ZM6.69578 93.3528C7.6368 95.0037 11.7999 98.9692 13.5166 99.8496C13.7646 99.9768 13.9676 100.054 13.9676 100.021C13.9676 99.9887 13.7646 99.8578 13.5166 99.7306C11.8268 98.864 8.46395 95.6827 6.70856 93.2904C6.49479 92.999 6.49455 92.9997 6.69578 93.3528ZM78.6122 93.8664C78.5924 94.3519 78.7229 94.6075 79.3982 95.4055L79.9269 96.0302L81.0074 96.0075L82.088 95.9846L80.9984 95.9182L79.9088 95.8517L79.3706 95.217C78.8576 94.612 78.7825 94.4558 78.675 93.7693C78.6383 93.5347 78.625 93.5553 78.6122 93.8664ZM48.4968 95.6184C48.1909 96.2376 47.9663 96.7442 47.9978 96.7442C48.0764 96.7442 49.1477 94.5879 49.0952 94.535C49.0721 94.5117 48.8027 94.9992 48.4968 95.6184ZM89.7818 95.7922L86.8226 95.858L89.7453 95.8846C91.5951 95.9014 92.6947 95.8675 92.741 95.7922C92.7813 95.7268 92.7977 95.6852 92.7776 95.6999C92.7575 95.7145 91.4094 95.756 89.7818 95.7922ZM38.3731 96.4315C38.7895 97.0468 39.8623 98.0942 40.2868 98.2999C40.4266 98.3677 40.3812 98.3029 40.1859 98.1557C39.7432 97.8223 38.7483 96.8208 38.3106 96.2682C38.0824 95.98 38.1017 96.0303 38.3731 96.4315ZM43.4944 97.0411C43.2546 97.3352 42.7389 97.7904 42.3485 98.0525C41.958 98.3147 41.6892 98.5291 41.7511 98.5291C41.9818 98.5291 43.1765 97.5763 43.605 97.0507C43.849 96.7512 44.0221 96.5062 43.9895 96.5062C43.957 96.5062 43.7341 96.7469 43.4944 97.0411ZM5.20565 97.6352C5.75653 98.3087 7.51559 100.093 8.10837 100.579C8.43388 100.846 8.28971 100.679 7.78783 100.208C7.28607 99.7373 6.43383 98.885 5.89395 98.3143C5.3542 97.7436 5.04443 97.438 5.20565 97.6352ZM46.4068 99.0696C45.8004 99.877 44.7189 100.96 44.1216 101.359C43.5848 101.717 43.5333 101.84 44.0456 101.541C44.5309 101.257 46.1196 99.6637 46.6147 98.964C47.1614 98.1915 47.0077 98.2697 46.4068 99.0696ZM37.1084 100.433C37.429 100.76 37.718 101.028 37.7505 101.028C37.7831 101.028 37.5474 100.76 37.2267 100.433C36.9061 100.106 36.6171 99.8381 36.5846 99.8381C36.552 99.8381 36.7877 100.106 37.1084 100.433ZM8.81763 101.145C8.90072 101.281 10.1884 102.207 10.7125 102.508C11.0636 102.71 11.0644 102.71 10.7753 102.495C9.72042 101.71 8.75667 101.046 8.81763 101.145ZM41.0462 102.542C41.2589 102.569 41.5785 102.568 41.7564 102.541C41.9343 102.514 41.7602 102.492 41.3696 102.493C40.979 102.493 40.8335 102.516 41.0462 102.542ZM11.7186 103.106C11.7186 103.139 11.9849 103.302 12.3104 103.467C12.6359 103.633 12.9022 103.742 12.9022 103.709C12.9022 103.677 12.6359 103.514 12.3104 103.348C11.9849 103.183 11.7186 103.074 11.7186 103.106ZM65.2561 103.884C65.2561 104.244 65.2783 104.391 65.3054 104.211C65.3325 104.031 65.3325 103.737 65.3054 103.557C65.2783 103.377 65.2561 103.524 65.2561 103.884ZM13.7308 104.181C14.0238 104.339 14.3167 104.468 14.3818 104.468C14.4469 104.468 14.2605 104.339 13.9676 104.181C13.6746 104.024 13.3816 103.895 13.3165 103.895C13.2514 103.895 13.4379 104.024 13.7308 104.181ZM65.0583 104.877C65.012 105.062 64.83 105.35 64.6536 105.517C64.3813 105.775 64.3729 105.8 64.598 105.682C64.8906 105.528 65.2614 104.899 65.1887 104.68C65.1632 104.603 65.1045 104.692 65.0583 104.877ZM36.5435 105.041C36.7536 105.067 37.1265 105.067 37.3721 105.042C37.6176 105.016 37.4457 104.994 36.99 104.994C36.5343 104.993 36.3333 105.014 36.5435 105.041ZM44.7135 105.041C44.9251 105.067 45.2712 105.067 45.4829 105.041C45.6945 105.015 45.5213 104.993 45.0982 104.993C44.675 104.993 44.5018 105.015 44.7135 105.041ZM39.9843 105.163C40.5246 105.185 41.3768 105.184 41.8782 105.162C42.3797 105.14 41.9378 105.122 40.8961 105.122C39.8545 105.122 39.4442 105.14 39.9843 105.163ZM115.291 105.965L114.65 106.618L110.383 106.651L106.117 106.683L110.381 106.712L114.646 106.74L115.349 106.026C115.736 105.633 116.025 105.312 115.993 105.312C115.96 105.312 115.644 105.606 115.291 105.965ZM47.0216 108.729C47.2006 108.756 47.4937 108.756 47.6727 108.729C47.8516 108.702 47.7052 108.679 47.3471 108.679C46.9891 108.679 46.8427 108.702 47.0216 108.729ZM36.6666 108.849C36.8793 108.875 37.1989 108.875 37.3768 108.848C37.5547 108.821 37.3806 108.799 36.99 108.8C36.5994 108.8 36.4539 108.822 36.6666 108.849ZM44.5359 108.849C44.7801 108.875 45.1796 108.875 45.4237 108.849C45.6679 108.824 45.4681 108.803 44.9798 108.803C44.4915 108.803 44.2918 108.824 44.5359 108.849ZM40.0971 108.969C40.4389 108.993 40.9983 108.993 41.34 108.969C41.6817 108.945 41.4021 108.926 40.7186 108.926C40.035 108.926 39.7554 108.945 40.0971 108.969Z" fill="#C9C9C9"/>
<path fill-rule="evenodd" clip-rule="evenodd" d="M36.8461 0.24995C33.3779 0.501268 28.2265 1.75739 24.8749 3.16903C22.6414 4.10981 20.0896 5.65378 18.6484 6.93655L18.0617 7.45882L17.9774 8.9358C17.8553 11.0768 17.8629 21.9263 17.9872 22.9074C18.0844 23.6753 18.1304 23.7742 18.5747 24.1727C18.8399 24.4105 19.1966 24.6319 19.3678 24.6648C19.8448 24.7564 20.4561 24.5372 20.923 24.107C21.3399 23.7229 21.347 23.7003 21.4379 22.4795C21.4886 21.7986 21.5343 18.5373 21.5396 15.2322L21.5492 9.22293L22.8799 8.37569C25.9266 6.4357 28.9173 5.3012 33.3242 4.41349C35.7834 3.91811 36.9515 3.81268 40.8963 3.73021C44.8442 3.64751 47.1242 3.77924 49.5521 4.23C54.4328 5.13627 57.9112 6.3549 60.5085 8.06844C61.5108 8.7297 61.5385 8.76052 61.5994 9.28243C61.6337 9.57695 61.6968 12.9375 61.7394 16.7502L61.817 23.6826L62.5245 24.2172C62.9136 24.5113 63.3494 24.7519 63.493 24.7519C63.8749 24.7519 64.9687 24.1721 65.1703 23.8628C65.3167 23.6383 65.356 22.3414 65.4199 15.6339L65.4958 7.67159L64.447 6.69416C62.5322 4.90958 60.6988 3.76687 58.0004 2.67603C55.4388 1.64041 51.9412 0.747351 49.4188 0.484609C46.1232 0.141545 39.9365 0.0259998 36.8461 0.24995ZM40.848 5.25586C39.9922 5.84608 39.9539 5.9715 39.9086 8.32523L39.8677 10.4449L39.4351 10.5169C39.1972 10.5564 38.4964 10.5904 37.878 10.5925C37.2595 10.5945 36.4072 10.6461 35.9841 10.7072C35.3287 10.8018 35.1591 10.879 34.839 11.2286C34.3191 11.7966 34.2119 12.5382 34.5484 13.237C34.9772 14.1276 35.2467 14.2146 37.7189 14.2617L39.868 14.3026L39.9147 16.4631C39.9668 18.8694 40.0328 19.1266 40.7053 19.5445C41.5576 20.074 42.9467 19.763 43.3101 18.9612C43.393 18.7783 43.5018 17.7073 43.5614 16.489C43.6191 15.3069 43.6691 14.3331 43.6722 14.325C43.6754 14.3169 44.5967 14.285 45.7198 14.2543C47.965 14.1928 48.4431 14.0686 48.805 13.4525C49.0804 12.984 49.1761 12.2247 49.0026 11.8864C48.8194 11.5291 48.3081 10.9706 47.9984 10.7894C47.8551 10.7056 46.9432 10.6273 45.6902 10.5914L43.6188 10.5319L43.5596 8.44363C43.4943 6.13785 43.4565 6.00874 42.6735 5.40829C42.082 4.95468 41.3707 4.8953 40.848 5.25586ZM28.9046 18.8665C25.9059 19.8934 23.6181 21.9113 22.1605 24.8155C21.7588 25.6159 21.1252 27.5915 20.8325 28.9561C20.6805 29.665 20.4589 30.3693 20.3401 30.5211C20.2211 30.6731 19.8349 30.9613 19.4815 31.1618C18.6912 31.6102 18.2808 32.1349 17.9597 33.1076C17.7441 33.7608 17.714 34.1328 17.7196 36.0564C17.7244 37.6677 17.7784 38.478 17.9207 39.0789C18.3343 40.8233 19.39 42.479 20.7027 43.4419C21.5865 44.0901 21.9154 44.5894 22.5961 46.3161C23.5711 48.789 25.4005 51.9727 26.9676 53.9238C29.5816 57.1785 33.0744 59.7338 36.3471 60.7856C38.1128 61.3533 39.4767 61.5585 41.4882 61.5595C45.674 61.5615 49.0657 60.3017 52.4963 57.4707C53.5095 56.6345 55.373 54.7137 56.1855 53.6678C57.6251 51.8148 59.1077 49.2552 60.0109 47.0635C60.9425 44.8024 61.4046 43.9472 61.8411 43.6761C62.5855 43.2136 63.9708 41.6078 64.4272 40.6785C65.0681 39.3731 65.1607 38.8025 65.157 36.1754C65.1523 32.8457 64.8614 32.025 63.3907 31.1906C63.0337 30.9881 62.6637 30.7014 62.5686 30.5537C62.4734 30.4061 62.2283 29.6165 62.0238 28.7993C61.8194 27.9821 61.4693 26.8693 61.2457 26.3264C59.7793 22.7652 57.0562 20.196 53.4626 18.9833C51.2169 18.2254 49.8613 18.5025 46.4648 20.413C44.5577 21.4859 42.8561 22.3272 42.3759 22.4345C41.7421 22.5764 40.7473 22.5189 40.0786 22.302C39.7471 22.1944 38.091 21.4472 36.3984 20.6416C34.7057 19.836 32.912 19.039 32.4122 18.8705C31.1985 18.4613 30.0918 18.46 28.9046 18.8665ZM29.5082 22.5485C29.169 22.7035 28.5068 23.0805 28.0367 23.3862C25.7548 24.8701 24.924 26.4935 24.2619 30.7611C23.9701 32.6419 23.6618 33.6011 23.2647 33.8626C23.1155 33.9608 22.7261 34.073 22.3991 34.1119C22.072 34.1509 21.7419 34.2217 21.6653 34.2693C21.1148 34.6114 21.2262 38.2541 21.8276 39.5748C22.1446 40.2708 22.4949 40.5209 23.3359 40.6516C24.4178 40.8196 24.8098 41.3663 25.6299 43.8507C26.2385 45.6943 27.5012 48.4339 28.357 49.7678C30.6733 53.3782 33.9373 56.1874 37.0286 57.2314C38.7261 57.8046 42.3238 58.0226 44.1706 57.664C46.8723 57.1395 49.31 55.7442 51.6691 53.372C54.2817 50.7447 55.994 47.8004 57.4771 43.3849C58.1809 41.2895 58.3509 41.0381 59.2153 40.8137C60.1618 40.5678 60.7612 40.1752 61.0478 39.6135C61.3643 38.993 61.5958 37.024 61.533 35.4875C61.486 34.3361 61.4038 34.2267 60.4969 34.1056C59.8505 34.0195 59.3866 33.7094 59.1153 33.1819C59.0149 32.9868 58.8029 32.0412 58.6441 31.0803C57.9733 27.0211 57.2629 25.475 55.4239 24.0706C54.6553 23.4838 53.1115 22.6959 52.3237 22.4884C51.3935 22.2434 50.6312 22.5063 48.3726 23.8509C42.9519 27.078 40.7166 27.075 34.2754 23.8324C32.2156 22.7955 30.9133 22.2524 30.5043 22.2599C30.2956 22.2635 29.8473 22.3935 29.5082 22.5485ZM72.7518 49.0397C72.4508 49.4671 72.4 49.6707 72.314 50.7924C72.2604 51.4903 72.2138 64.0321 72.2105 78.6628L72.2045 105.264L72.7075 105.863L73.2106 106.461L82.68 106.541C87.8882 106.585 97.2112 106.621 103.398 106.621L114.647 106.621L115.326 105.931L116.005 105.241L116.011 81.3482C116.016 57.7232 115.964 51.2277 115.758 50.0052C115.697 49.6412 115.52 49.2033 115.339 48.964L115.025 48.551L94.0588 48.5535L73.0922 48.5561L72.7518 49.0397ZM75.8739 54.5004V56.7617H94.105H112.336L112.304 54.5305L112.272 52.2994L94.0729 52.2692L75.8739 52.2391V54.5004ZM26.215 59.1919C20.7757 60.3285 13.7266 63.0583 9.58816 65.6311C6.6188 67.4771 3.06257 70.2262 1.4117 71.952C0.593426 72.8073 0.369357 73.1207 0.257618 73.5673C0.0520142 74.3882 0.0798305 80.3953 0.301059 82.9407C0.852296 89.2824 2.01561 93.1557 4.3491 96.4177C5.20703 97.6172 7.31409 99.8444 8.50332 100.809C11.1463 102.953 14.2691 104.552 18.5249 105.943C22.9151 107.378 26.7164 108.013 34.8596 108.669C37.2874 108.865 44.8369 108.861 47.6433 108.662C54.4305 108.18 59.8537 107.32 63.1892 106.195C64.418 105.781 64.801 105.52 65.0609 104.923C65.271 104.44 65.2814 103.557 65.313 83.5192L65.346 62.6188L64.8038 62.139C64.1608 61.5701 62.8019 60.9735 60.6637 60.3219C58.5611 59.6811 55.4336 59.0106 54.1931 58.9346C53.285 58.879 53.1201 58.9011 52.7551 59.1279C52.3338 59.3897 52.0607 59.9014 51.9222 60.6885C51.882 60.9176 51.6869 62.8981 51.4888 65.0895C50.4777 76.2711 48.7037 85.9962 46.7021 91.3299C45.1875 95.3661 43.0237 98.3419 41.4125 98.6047C40.163 98.8086 38.2732 96.8086 36.8108 93.7347C34.2178 88.2846 32.3004 78.8863 31.0156 65.3294C30.5037 59.9283 30.4329 59.6012 29.6752 59.1368C29.1577 58.8196 27.9017 58.8396 26.215 59.1919ZM75.8739 81.6913V102.932H94.1024H112.331V81.6913V60.4506H94.1024H75.8739V81.6913ZM24.9167 63.3026C20.8535 64.4233 17.608 65.6511 14.3923 67.2844C10.9199 69.0479 8.63968 70.5689 5.1031 73.4806L3.65784 74.6705L3.71927 78.0024C3.80781 82.8006 4.14019 85.8145 4.91324 88.831C5.57646 91.4183 6.29506 92.9749 7.52821 94.495C8.40532 95.576 10.8913 97.9884 11.96 98.7956C14.7824 100.927 19.7115 102.775 25.331 103.809C30.7859 104.812 38.3133 105.324 44.0587 105.082C51.5605 104.767 58.9694 103.86 60.9933 103.01L61.4331 102.825V83.6652V64.5052L59.9239 64.0197C58.642 63.6074 57.1946 63.2107 55.8496 62.9029C55.4489 62.8113 55.4985 62.5609 54.9812 67.2928C54.112 75.2437 53.3256 80.0481 52.0203 85.3801C49.7553 94.6325 46.8057 100.082 43.0269 101.996C42.1309 102.45 42.0318 102.474 41.1832 102.436C38.7431 102.328 36.3091 100.084 34.1078 95.9113C31.0472 90.11 28.7892 80.206 27.4059 66.5155C27.0527 63.0203 27.0193 62.8281 26.7662 62.8381C26.6604 62.8423 25.8282 63.0513 24.9167 63.3026ZM81.4371 67.5853C80.6073 67.6266 79.8389 67.725 79.6875 67.8092C79.1934 68.0845 78.7147 68.8851 78.7147 69.4365C78.7147 69.8492 78.8032 70.0476 79.2137 70.5548L79.7126 71.1715L86.0548 71.1361C91.879 71.1035 92.4228 71.0835 92.7153 70.8908C93.2376 70.5465 93.4434 70.1207 93.4476 69.3752C93.4547 68.1089 93.0145 67.7821 91.0413 67.5891C89.8067 67.4683 83.8344 67.4659 81.4371 67.5853ZM80.5864 75.7841C79.9255 75.8479 79.7335 75.9194 79.4218 76.2175C78.945 76.6736 78.7147 77.1199 78.7147 77.5878C78.7147 78.0167 78.8465 78.3 79.342 78.9353L79.6984 79.3924L88.5281 79.3394C93.7127 79.3084 97.5041 79.2391 97.7126 79.1718C97.908 79.1086 98.1923 78.8732 98.3446 78.6487C98.71 78.1096 98.6661 77.1091 98.2513 76.5234C97.6897 75.7305 97.9625 75.7546 89.2494 75.73C84.9201 75.7178 81.0218 75.7421 80.5864 75.7841ZM79.1923 84.5591C78.5107 85.5133 78.5692 86.2201 79.4131 87.2246L79.7629 87.6411H92.2888C99.178 87.6411 104.96 87.6001 105.138 87.5501C105.66 87.4031 106.277 86.7774 106.418 86.2518C106.596 85.5868 106.462 85.1313 105.911 84.5303L105.436 84.0117H92.5095H79.5834L79.1923 84.5591ZM79.1955 92.8223C78.465 93.7511 78.5163 94.2026 79.4841 95.3679L79.9575 95.938L86.2902 95.8566C92.6052 95.7755 92.6234 95.7745 92.8338 95.5159C93.7044 94.4459 93.6181 93.0238 92.6504 92.4922C92.3007 92.3 91.7272 92.2788 85.972 92.2463L79.6762 92.2108L79.1955 92.8223Z" fill="url(#paint0_linear_35_10063)"/>
</g>
<defs>
<linearGradient id="paint0_linear_35_10063" x1="58.0647" y1="0.134766" x2="58.0647" y2="108.814" gradientUnits="userSpaceOnUse">
<stop stop-color="#00585C"/>
<stop offset="1" stop-color="#00B9C2"/>
</linearGradient>
<clipPath id="clip0_35_10063">
<rect width="116" height="109" fill="white"/>
</clipPath>
</defs>
</svg>
