<svg width="110" height="110" viewBox="0 0 110 110" fill="none" xmlns="http://www.w3.org/2000/svg">
<path d="M14.0804 4.257L5.6071 7.9081L3.03065 7.88055L0.44043 7.86677V55.0005V102.121H2.92043H5.40043L14.0804 105.841L22.7604 109.561H25.2404H27.7204V105.841V102.121H35.0227C39.0458 102.121 42.3249 102.079 42.3249 102.01C42.3111 101.955 42.2009 100.853 42.0769 99.5717L41.8289 97.2294L34.7747 97.1881L27.7204 97.1605V55.0005V12.8405H42.6004H57.4804V14.0668V15.2792L58.624 15.3757C59.6435 15.4583 61.5862 15.8441 62.2062 16.0783C62.4267 16.1748 62.4404 15.9268 62.4404 12.0277V7.88055H45.0804H27.7204V4.22944V0.578323L25.144 0.592102L22.5538 0.605881L14.0804 4.257ZM18.9027 55.3037C20.7213 56.2268 20.7213 58.7343 18.9027 59.6437C18.572 59.8228 18.076 59.9605 17.8004 59.9605C17.5249 59.9605 17.0289 59.8228 16.6982 59.6437C14.8795 58.7343 14.8795 56.2268 16.6982 55.3037C17.0289 55.1383 17.5249 55.0005 17.8004 55.0005C18.076 55.0005 18.572 55.1383 18.9027 55.3037Z" fill="url(#paint0_linear_35_10058)"/>
<path d="M80.8337 12.9784C78.5742 13.4469 76.5075 15.0451 75.5844 17.0429C74.8129 18.71 74.8266 18.4896 74.868 30.5727L74.9093 41.7051L75.2537 42.6007C76.2182 45.0531 78.0093 46.6789 80.4617 47.2989C81.5089 47.5607 81.9222 47.5744 92.6275 47.5331C103.622 47.4918 103.705 47.4918 104.49 47.1887C105.634 46.7616 106.474 46.2242 107.287 45.4389C108.141 44.5984 108.637 43.8407 109.12 42.6144L109.492 41.7051L109.533 30.6278C109.574 19.9224 109.56 19.5091 109.299 18.462C108.679 16.0096 107.053 14.2184 104.6 13.254L103.705 12.9096L92.5449 12.882C86.4137 12.882 81.1369 12.9233 80.8337 12.9784ZM94.6804 25.2407V27.7207H97.1604H99.6404V30.2007V32.6807H97.1604H94.6804V35.1607V37.6407H92.2004H89.7204V35.1607V32.6807H87.2404H84.7604V30.2007V27.7207H87.2404H89.7204V25.2407V22.7607H92.2004H94.6804V25.2407Z" fill="url(#paint1_linear_35_10058)"/>
<path d="M55.4831 20.474C53.3889 20.97 51.9973 21.7415 50.5231 23.2295C49.2693 24.5109 48.5391 25.6544 48.0156 27.2389C47.6849 28.2171 47.6436 28.5477 47.6436 30.2011C47.6573 31.8131 47.6987 32.1989 48.0018 33.122C48.5667 34.8029 49.2556 35.9326 50.5782 37.2277C52.4107 39.0464 54.3533 39.9144 56.9987 40.0797C59.892 40.2589 62.7302 39.0877 64.7556 36.8695C65.7889 35.7535 66.4778 34.5824 66.96 33.122C67.2631 32.1989 67.3182 31.8269 67.3044 30.2011C67.3044 28.5615 67.2631 28.2171 66.9462 27.2389C66.4227 25.6682 65.7062 24.5109 64.4387 23.2295C62.5511 21.3282 60.5258 20.4464 57.8253 20.3362C56.8196 20.3086 56.0342 20.35 55.4831 20.474Z" fill="url(#paint2_linear_35_10058)"/>
<path d="M55.8269 42.669C55.7167 42.6965 55.1518 42.793 54.5869 42.8756C54.022 42.9721 52.8784 43.289 52.0518 43.5783C46.2789 45.6036 42.0078 50.6739 40.506 57.3147C40.2167 58.6099 40.2029 58.9543 40.1616 68.7365L40.1064 78.8356L42.6553 80.1032L45.1904 81.3707L45.2731 81.9219C45.3144 82.2387 45.8793 87.8739 46.5269 94.4734C47.1744 101.059 47.7393 106.598 47.7807 106.763L47.8358 107.08H57.4802H67.1247L67.1798 106.763C67.2211 106.598 67.786 101.059 68.4336 94.4734C69.0811 87.8739 69.646 82.2387 69.6873 81.9219L69.77 81.3707L72.3051 80.1032L74.854 78.8356L74.7989 68.7365C74.7576 58.9543 74.7438 58.6099 74.4544 57.3147C72.6633 49.4201 66.918 43.785 59.6158 42.7379C58.734 42.6139 56.3367 42.5725 55.8269 42.669Z" fill="url(#paint3_linear_35_10058)"/>
<defs>
<linearGradient id="paint0_linear_35_10058" x1="31.4404" y1="109.561" x2="31.4404" y2="0.578323" gradientUnits="userSpaceOnUse">
<stop stop-color="#00B9C2"/>
<stop offset="1" stop-color="#00585C"/>
</linearGradient>
<linearGradient id="paint1_linear_35_10058" x1="92.2015" y1="47.5508" x2="92.2015" y2="12.882" gradientUnits="userSpaceOnUse">
<stop stop-color="#00B9C2"/>
<stop offset="1" stop-color="#00585C"/>
</linearGradient>
<linearGradient id="paint2_linear_35_10058" x1="57.475" y1="40.0977" x2="57.475" y2="20.328" gradientUnits="userSpaceOnUse">
<stop stop-color="#00B9C2"/>
<stop offset="1" stop-color="#00585C"/>
</linearGradient>
<linearGradient id="paint3_linear_35_10058" x1="57.4802" y1="107.08" x2="57.4802" y2="42.6157" gradientUnits="userSpaceOnUse">
<stop stop-color="#00B9C2"/>
<stop offset="1" stop-color="#00585C"/>
</linearGradient>
</defs>
</svg>
