<svg width="19" height="19" viewBox="0 0 19 19" fill="none" xmlns="http://www.w3.org/2000/svg">
<path d="M6.17972 0.0941601C6.08946 0.147251 5.98859 0.27467 5.95143 0.370235C5.90896 0.487036 5.89303 1.36835 5.89303 3.23717V5.93952H3.15888C0.233598 5.93952 0.191125 5.94483 0.0530903 6.19967C0.0212361 6.26869 0 7.41546 0 9.52319V12.7458L0.153962 12.8998L0.307924 13.0538H3.10048H5.88772L5.90365 15.8729L5.91957 18.6921L6.09477 18.846L6.26466 19H9.45008C11.802 19 12.6674 18.9841 12.7682 18.9363C13.0602 18.8036 13.0602 18.8142 13.0602 15.8145V13.0538H15.8687H18.6719L18.8099 12.9157C18.8895 12.8414 18.9639 12.7034 18.9798 12.6078C18.9957 12.5175 19.0063 11.0522 18.9957 9.34799L18.9798 6.24745L18.8046 6.09349L18.6347 5.93952H15.8475H13.0655L13.0496 3.12568L13.0337 0.311834L12.885 0.168488L12.7417 0.0198326L9.54034 0.00390434C6.47171 -0.00671387 6.33899 -0.00140572 6.17972 0.0941601ZM11.9453 3.86896C11.9453 5.89174 11.9613 6.66156 12.009 6.76244C12.1418 7.05444 12.1311 7.05444 15.1361 7.05444H17.9021L17.8702 7.17124C17.8543 7.24026 17.8384 8.33925 17.8384 9.61344V11.9335L15.0458 11.9495L12.2533 11.9654L12.0993 12.1406L11.9453 12.3105V15.0978V17.8851H9.47663H7.00262L7.00793 15.1031C7.01323 12.9051 6.99731 12.2946 6.94422 12.2096C6.77964 11.9442 6.73716 11.9388 3.82781 11.9388H1.1149V9.49664V7.05444H3.89152C6.8752 7.05444 6.81149 7.05975 6.96014 6.78367C6.99731 6.70935 7.01323 5.79086 7.00793 3.92736C7.00793 2.41956 7.02385 1.1666 7.03978 1.14537C7.06102 1.12413 8.17591 1.10821 9.51379 1.10821H11.9453V3.86896Z" fill="#00B9C2"/>
</svg>
