<svg width="36" height="36" viewBox="0 0 36 36" fill="none" xmlns="http://www.w3.org/2000/svg">
<path d="M21.1007 1.77763L24.6402 7.59251C25.1453 8.4109 25.9285 9.00097 26.8334 9.24492L33.2391 10.9524C33.8389 11.1117 34.3902 11.4263 34.8417 11.867C35.2932 12.3076 35.63 12.86 35.821 13.4727C36.012 14.0853 36.0509 14.7383 35.934 15.3708C35.8171 16.0032 35.5483 16.5946 35.1525 17.0899L30.94 22.3933C30.3421 23.1409 30.0418 24.098 30.1005 25.0686L30.5165 31.9379C30.5564 32.5802 30.4394 33.2226 30.1765 33.8053C29.9136 34.388 29.5134 34.892 29.013 35.2705C28.5126 35.649 27.9283 35.8896 27.3145 35.9701C26.7007 36.0505 26.0773 35.9681 25.5024 35.7306L19.3538 33.1969C18.4847 32.8352 17.5153 32.8352 16.6462 33.1969L10.4976 35.7306C9.92223 35.9676 9.29869 36.0497 8.68467 35.9691C8.07065 35.8886 7.48608 35.648 6.98525 35.2698C6.48441 34.8915 6.08346 34.3878 5.81962 33.8054C5.55578 33.2229 5.43762 32.5806 5.476 31.9379L5.89947 25.0686C5.95822 24.098 5.65788 23.1409 5.06001 22.3933L0.847556 17.0899C0.451801 16.5946 0.182871 16.0032 0.0659772 15.3708C-0.0509171 14.7383 -0.0120175 14.0853 0.178976 13.4727C0.36997 12.86 0.70685 12.3076 1.1583 11.867C1.60976 11.4263 2.16107 11.1117 2.76088 10.9524L9.16667 9.24492C10.0716 9.00097 10.8547 8.4109 11.3598 7.59251L14.8993 1.77763C15.2299 1.23317 15.6877 0.784642 16.2299 0.473821C16.772 0.163001 17.381 0 18 0C18.619 0 19.228 0.163001 19.7701 0.473821C20.3123 0.784642 20.7701 1.23317 21.1007 1.77763Z" fill="url(#paint0_linear_106_3520)"/>
<defs>
<linearGradient id="paint0_linear_106_3520" x1="37.4104" y1="36" x2="-2.51173" y2="1.8363" gradientUnits="userSpaceOnUse">
<stop stop-color="#FFA800"/>
<stop offset="1" stop-color="#FFDB20"/>
</linearGradient>
</defs>
</svg>
