<svg width="81" height="79" viewBox="0 0 81 79" fill="none" xmlns="http://www.w3.org/2000/svg">
<path d="M44.8822 0.643997C39.6932 1.19894 34.7098 4.21152 31.7988 8.58767C30.8496 10.0147 30.7705 10.0781 29.584 10.633C26.7521 11.9649 23.8412 14.5018 22.1484 17.0863C21.3258 18.3389 21.215 18.434 20.1076 18.9572C17.26 20.2733 14.3332 22.8102 12.6563 25.3946C11.7861 26.7424 11.7861 26.7424 10.2041 27.5351C4.8252 30.2464 1.12324 35.3202 0.237305 41.171C0.110742 42.0272 0 43.7079 0 44.9129C0 47.0217 0.0158203 47.1168 0.395508 47.4815C0.885938 47.9889 1.48711 47.9889 1.97754 47.4815C2.35723 47.1168 2.37305 47.0217 2.37305 44.897C2.37305 43.6603 2.46797 42.1065 2.61035 41.3612C3.51211 36.1606 6.73945 31.8479 11.4381 29.5647C13.1783 28.7402 14.8869 28.2645 16.9277 28.0584C18.9053 27.8681 33.4916 27.8681 35.5008 28.0584C39.4084 28.4389 42.6041 29.9769 45.4043 32.7992C47.6191 35.0348 49.043 37.6827 49.6916 40.8221C49.9605 42.1223 49.9922 43.0895 49.9922 51.7784C49.9922 62.037 49.9605 62.5285 49.1379 64.9386C47.6508 69.3306 43.9646 73.1359 39.7248 74.6739C36.8613 75.7204 37.0037 75.7045 26.0244 75.7045H16.0576L14.523 75.2764C9.80859 73.9763 6.16992 71.0271 4.05 66.7937C2.64199 63.9714 2.37305 62.3382 2.37305 56.4082V51.826L1.97754 51.4454C1.48711 50.938 0.885938 50.938 0.395508 51.4454L0 51.826V56.3924C0 61.5137 0.174023 63.1786 0.949219 65.4776C1.88262 68.2999 3.25898 70.5197 5.44219 72.7078C8.40059 75.6887 12.1975 77.5279 16.3424 77.9877C18.2725 78.2097 33.8713 78.2097 35.9121 78.0036C41.3385 77.4328 46.2428 74.4836 49.2328 70.0124C50.1662 68.6012 50.1979 68.5695 51.6375 67.8718C54.5801 66.4131 57.1113 64.1775 58.8674 61.4979C59.6742 60.2611 59.785 60.1819 60.8924 59.6586C63.7242 58.3743 66.6668 55.8374 68.3438 53.2371C69.2139 51.9052 69.2297 51.8894 70.7484 51.1283C76.2223 48.4011 79.9559 43.1688 80.8418 37.0168C80.9209 36.3984 81 34.2738 81 32.2918V28.6767L80.6045 28.2962C80.3988 28.0742 80.035 27.8998 79.8135 27.8998C79.592 27.8998 79.2281 28.0742 79.0225 28.2962L78.627 28.6767V32.165C78.627 34.0835 78.5479 36.2082 78.4529 36.8741C77.8518 41.2027 75.3047 45.3569 71.6977 47.8303C71.2547 48.1474 70.8434 48.3694 70.8117 48.3377C70.7801 48.306 70.9066 47.6242 71.0807 46.8473C71.3813 45.5154 71.4129 44.7861 71.4604 36.224C71.5395 26.6155 71.4604 24.9665 70.8592 22.6357C69.3721 16.7375 64.7367 11.7905 58.8832 9.8244C56.2412 8.93649 55.292 8.87307 45.167 8.88892C40.1203 8.88892 35.6273 8.95235 35.1686 9.01577C34.1244 9.15847 34.1719 9.04748 35.9438 7.35093C38.5541 4.82988 41.5758 3.43459 45.3252 2.99063C46.2428 2.87964 50.0238 2.84793 55.8457 2.87964L64.9424 2.94306L66.5244 3.37116C71.1756 4.62376 74.8301 7.60461 76.95 11.8381C78.2473 14.4384 78.627 16.4362 78.627 20.7648C78.627 23.5871 78.6586 23.9359 78.9275 24.2689C79.1332 24.5384 79.3863 24.6336 79.8135 24.6336C80.2406 24.6336 80.4938 24.5384 80.6994 24.2689C80.9684 23.9359 81 23.5871 81 20.7806C81 17.1973 80.7627 15.2312 80.0508 13.1541C79.1174 10.3318 77.741 8.112 75.5578 5.92392C72.5994 2.94306 68.8025 1.10381 64.6576 0.643997C62.8857 0.437874 46.7648 0.437874 44.8822 0.643997ZM55.7666 11.4892C59.1522 12.0918 61.8732 13.4871 64.3254 15.9288C66.4453 18.0376 67.8059 20.416 68.6127 23.381L69.0398 24.9665L69.1031 34.0835C69.1664 44.9446 69.0873 46.0228 67.9166 48.9719C67.1414 50.9697 66.1447 52.4602 64.4678 54.1567C63.0598 55.5679 61.4303 56.868 61.2721 56.6936C61.2404 56.6619 61.367 55.9326 61.5568 55.0764C61.8732 53.6018 61.9049 52.9834 61.9682 45.2142C62.0789 33.925 61.9049 31.9747 60.5285 28.5816C59.3895 25.8069 57.0639 22.7943 54.6117 20.9233C53.1721 19.8293 50.1029 18.3389 48.1729 17.7998L46.5908 17.3558H35.7381H24.8695L25.3441 16.7692C25.882 16.0715 27.4641 14.6762 28.4766 13.9944C30.2484 12.7894 33.017 11.7112 35.042 11.4258C35.5641 11.3465 40.1361 11.2831 45.1828 11.2673C52.7766 11.2514 54.6275 11.299 55.7666 11.4892ZM46.749 19.9561C49.8814 20.6062 52.5234 22.0332 54.7541 24.253C56.3045 25.791 57.2063 27.0595 58.0764 28.9146C59.516 32.0223 59.7059 33.9091 59.5951 45.0556C59.5318 52.0955 59.4844 53.5225 59.2629 54.5214C58.3453 58.517 56.257 61.815 53.1879 64.1299C52.4285 64.7007 51.7641 65.1605 51.7166 65.1605C51.6691 65.1605 51.7641 64.6056 51.9539 63.9238C52.2703 62.7505 52.2703 62.3541 52.2861 51.8418V40.9807L51.8432 39.3951C51.3053 37.4608 49.8182 34.3848 48.7266 32.9419C48.2836 32.3552 47.2869 31.2929 46.5275 30.5636C43.4426 27.662 39.8197 26.0606 35.5166 25.68C33.4441 25.4898 18.8895 25.4898 16.8486 25.6642C16.0734 25.7435 15.3932 25.7752 15.3615 25.7276C15.235 25.6325 17.4182 23.492 18.4307 22.715C20.1867 21.3832 23.3508 20.083 25.5498 19.7659C25.8188 19.7342 30.375 19.6866 35.6748 19.6866C44.5342 19.6549 45.4359 19.6866 46.749 19.9561Z" fill="#00B9C2"/>
<path d="M22.449 43.8179C20.8354 44.246 19.5855 45.3242 18.842 46.9256C18.4307 47.7977 18.4307 47.8135 18.4307 51.8408V55.884L18.9527 56.9464C19.807 58.7063 21.484 59.8638 23.3982 60.0382C24.8695 60.1809 25.7238 59.8638 28.8404 58.0721C31.9729 56.2804 32.8588 55.5511 33.5074 54.2192C33.8871 53.4581 33.9346 53.1569 33.9346 51.8408C33.9346 50.509 33.8871 50.2236 33.4916 49.4308C32.8588 48.1465 31.9412 47.4013 28.698 45.5462C25.265 43.5801 24.3 43.3105 22.449 43.8179ZM25.0752 46.2755C25.9453 46.6561 29.8529 48.9393 30.5174 49.4308C31.9254 50.4773 32.0045 52.9507 30.6598 54.1558C30.1377 54.6314 25.4707 57.311 24.7588 57.5489C23.4932 57.9611 22.0061 57.4062 21.2309 56.2329L20.8037 55.5828V51.8408V48.0989L21.2309 47.4488C21.7213 46.6878 23.0344 45.9743 23.8729 45.9743C24.1893 45.9743 24.7271 46.117 25.0752 46.2755Z" fill="#00B9C2"/>
<path d="M30.1541 62.9409C29.7427 63.0995 29.2681 63.3532 29.1257 63.48C28.9042 63.6861 27.7494 63.7337 21.1207 63.7654C13.4794 63.813 13.3529 63.813 12.7201 64.1618C11.3753 64.8753 10.6951 66.112 10.79 67.6342C10.9007 69.3149 12.0082 70.5358 13.7484 70.8687C14.2388 70.9639 17.5453 71.0273 21.6902 71.0273H28.7777L29.3314 71.4078C30.6287 72.2799 32.5746 72.3433 34.125 71.5347C34.9634 71.0907 35.2166 71.0431 37.0359 70.9797C39.1558 70.9004 39.6937 70.7419 40.548 69.9332C41.2757 69.2673 41.608 68.4587 41.608 67.3805C41.608 66.3023 41.2757 65.4937 40.548 64.8277C39.6621 63.9874 39.14 63.8288 36.941 63.7654C35.2007 63.702 34.821 63.6386 34.4414 63.3849C33.3498 62.6079 31.483 62.4177 30.1541 62.9409ZM33.0333 65.3193C34.6154 66.2864 34.5363 68.6648 32.9068 69.4734C31.831 70.0284 30.6445 69.6954 29.8693 68.6489C28.4613 66.7304 30.9767 64.0667 33.0333 65.3193ZM27.1324 67.3805V68.6489H20.7568C13.7484 68.6489 13.4003 68.6014 13.1947 67.761C13.0523 67.1744 13.2896 66.556 13.7642 66.3182C14.0648 66.1596 15.7576 66.112 20.646 66.112H27.1324V67.3805ZM38.9027 66.4926C39.3457 66.889 39.3457 67.8562 38.9185 68.2525C38.7287 68.427 38.2541 68.5538 37.5738 68.6014L36.5455 68.6965V67.3805V66.0803L37.558 66.1437C38.2699 66.1913 38.6812 66.3023 38.9027 66.4926Z" fill="#00B9C2"/>
</svg>
