<svg width="62" height="63" viewBox="0 0 62 63" fill="none" xmlns="http://www.w3.org/2000/svg">
<path d="M6.46974 0.650299C4.01757 1.29782 1.96186 2.99021 0.889951 5.21239C0.552226 5.90406 0.214502 6.89006 0.126401 7.41986C0.023615 8.09681 -0.020436 15.352 0.00893133 31.7755L0.0529823 55.1747L0.376023 56.146C1.06615 58.1474 2.71072 60.09 4.51681 61.0465C6.46974 62.062 6.42569 62.062 14.7073 62.1208L22.1519 62.1797V60.9288V59.6632H15.1771C10.6252 59.6632 7.95279 59.6043 7.43886 59.5013C5.48593 59.0892 3.87073 57.8089 3.01908 56.0282L2.5492 55.0275L2.50515 43.7989L2.47579 32.5849H6.36695C10.728 32.5849 11.0951 32.5261 11.4328 31.702C11.5943 31.3046 11.5943 31.128 11.3741 30.4363C10.7574 28.4643 11.2419 26.4482 12.6369 25.1384C15.4561 22.5042 19.8465 23.8287 20.7716 27.6108C21.0212 28.6409 20.9919 29.0824 20.5073 30.7748C20.3752 31.2458 20.3752 31.4812 20.5073 31.7755C20.845 32.5114 21.3296 32.5849 25.676 32.5849H29.6405V36.2641V39.9579L28.921 39.8549C27.8785 39.7224 26.3514 40.0315 25.0886 40.6348C21.3296 42.445 19.8759 47.0806 21.8876 50.8628C22.3868 51.8193 23.8846 53.3057 24.7949 53.7766L25.3676 54.0709L25.7494 53.2321C26.3661 51.8488 26.3661 51.834 25.6025 51.3337C24.8096 50.848 24.0754 49.8915 23.6937 48.8908C23.3413 47.9195 23.444 46.0063 23.8992 45.1233C24.3985 44.1521 25.3235 43.2396 26.2486 42.7834C26.9534 42.445 27.2471 42.3861 28.319 42.3861C29.0972 42.4008 29.8021 42.4891 30.1985 42.6363C30.6684 42.8129 30.918 42.8423 31.2117 42.7246C31.9752 42.4302 31.9752 42.4302 31.9899 37.3236V32.5849H35.1322H38.2598L38.2745 33.7917C38.2892 36.6614 39.831 39.1338 42.3566 40.3847C42.8558 40.6201 43.4579 40.8703 43.7075 40.9144C44.148 41.0027 44.148 41.0027 44.3242 40.1492C44.4123 39.6636 44.5298 39.1338 44.5738 38.9572C44.6325 38.7217 44.5738 38.604 44.3829 38.5451C42.2244 37.8976 40.7414 35.9844 40.7414 33.8358C40.7414 33.2178 40.8442 32.4967 41.0057 32.0257C41.314 31.128 41.1819 30.5541 40.6092 30.245C40.389 30.142 38.9059 30.0684 36.1748 30.039L32.0633 30.0096L32.0193 26.9191L31.9899 23.8287L33.2674 23.814C37.4229 23.7845 40.6533 20.5469 40.6533 16.3969C40.6533 14.3807 39.9632 12.7619 38.4507 11.2314C36.953 9.71562 35.3231 9.03866 33.1353 9.03866H31.9899V5.94821V2.85777L43.267 2.8872L54.5293 2.93135L55.4985 3.38755C57.1724 4.18224 58.2883 5.41842 58.8463 7.0961C59.14 7.97908 59.1547 8.27341 59.1547 19.0458V30.0832H54.9698H50.7703L50.4179 30.4511C49.9921 30.8631 49.9627 31.2605 50.2711 32.1435C50.3885 32.4819 50.4913 32.997 50.4913 33.2619V33.7623H51.7394H52.9875V33.1883V32.5997L56.9668 32.5555L60.9461 32.5114L61.2985 32.0993L61.6656 31.6725L61.6215 19.4432L61.5775 7.19911L61.1957 6.22783C60.6231 4.74147 60.0798 3.90263 59.0225 2.85777C57.8772 1.7246 56.6731 1.04764 55.102 0.650299C54.0007 0.355972 53.3987 0.355972 30.7565 0.370686C8.37861 0.370686 7.49759 0.385403 6.46974 0.650299ZM29.6405 7.11081V11.3786L30.0223 11.6729C30.4922 12.0408 30.8299 12.0555 31.755 11.7465C32.7828 11.3933 34.4715 11.5257 35.4406 12.0114C36.3803 12.497 37.2026 13.3211 37.6872 14.263C38.2305 15.3226 38.3039 17.0297 37.8781 18.1776C37.4376 19.3402 36.5859 20.2526 35.3965 20.8412C34.5742 21.2533 34.2512 21.3269 33.3849 21.3269C32.7975 21.3269 32.0046 21.2091 31.52 21.062C30.7712 20.8118 30.6537 20.8118 30.2573 21.0178C30.0223 21.1356 29.7874 21.3563 29.7286 21.474C29.6846 21.6065 29.6405 23.5638 29.6405 25.8301V29.936H26.4982H23.3559L23.3413 28.6409C23.3413 26.5512 22.6658 24.9766 21.1387 23.446C20.0228 22.3423 18.9949 21.7978 17.3503 21.4299C15.0744 20.9443 12.5194 21.7389 10.8014 23.4902C9.289 25.0207 8.64292 26.6101 8.64292 28.7881V29.936H5.55935H2.47579V18.9281C2.47579 8.49416 2.49047 7.86135 2.75477 7.0961C3.40086 5.21239 4.7958 3.81433 6.66063 3.16681C7.51228 2.87248 7.83532 2.87248 18.5984 2.85777H29.6405V7.11081Z" fill="#00B9C2"/>
</svg>
