<svg width="67" height="78" viewBox="0 0 67 78" fill="none" xmlns="http://www.w3.org/2000/svg">
<path d="M52.1978 0.974495C51.7514 1.07887 41.07 4.16521 28.4695 7.81812C12.3135 12.5147 5.24709 14.6319 4.48839 15.0047C1.63207 16.3913 -0.242384 19.7609 0.0253951 22.9516C0.070025 23.5331 0.650214 25.7845 1.4238 28.4086L2.73294 32.8816L2.80733 51.668C2.89659 72.2286 2.8222 70.7675 3.81894 72.6908C4.93468 74.8229 7.28519 76.5376 9.60595 76.9252C10.3051 77.0445 13.5036 77.0892 20.094 77.0594L29.5853 77.0147L29.9721 76.6121C30.5225 76.0605 30.5225 75.136 29.9721 74.5844L29.5853 74.1818L19.7221 74.1073C9.23403 74.0178 9.51669 74.0476 8.31168 73.2872C7.19593 72.5716 6.40747 71.5279 6.02068 70.2307C5.81241 69.5299 5.78265 68.0837 5.78265 58.944V48.4623L34.9111 48.4922L64.0247 48.5369L64.0693 58.4519C64.0842 64.0133 64.0396 68.8143 63.9652 69.3808C63.6974 71.2744 62.6858 72.7206 61.0047 73.5407L60.008 74.0327L50.1894 74.1073C44.7892 74.152 40.2518 74.2415 40.1179 74.3011C39.7163 74.5098 39.4038 75.0913 39.4038 75.643C39.4038 76.2245 39.9096 76.8805 40.475 77.0147C40.6535 77.0594 45.2355 77.0743 50.6357 77.0594C60.3948 77.0147 60.4543 77.0147 61.332 76.6718C62.5668 76.2096 63.4445 75.6579 64.3817 74.7931C65.4082 73.824 66.0777 72.7803 66.5835 71.3191L67 70.1562V51.325V32.479L66.5091 32.0466L66.033 31.6142H40.4898C26.4463 31.6142 14.9913 31.5844 15.021 31.5397C15.0657 31.5098 26.0744 28.2893 39.4931 24.3979C66.0925 16.6746 64.5454 17.1815 64.5454 16.0633C64.5454 15.273 61.9271 6.44641 61.3469 5.26853C59.7551 2.0331 55.6789 0.124634 52.1978 0.974495ZM56.1698 4.23975C57.1665 4.68705 58.2525 5.70092 58.7286 6.64024C58.9815 7.14717 61.0047 13.8268 61.1535 14.6766C61.1981 14.9301 60.8559 15.0643 58.2525 15.8396L55.2921 16.6895L53.2689 14.7214C52.1531 13.618 49.7431 11.2921 47.9133 9.54765C46.0983 7.78829 44.6553 6.31222 44.7148 6.26749C44.8189 6.17803 51.2308 4.29939 52.8672 3.867C53.7152 3.64336 55.2028 3.80737 56.1698 4.23975ZM46.5595 12.3805C49.4456 15.1538 51.8407 17.4946 51.8705 17.5691C51.8853 17.6288 50.1448 18.1954 48.0025 18.8216L44.09 19.9398L42.156 18.0463C41.0998 17.0175 38.7046 14.6916 36.8451 12.9024C34.9706 11.1132 33.4532 9.60729 33.4532 9.56257C33.4532 9.4582 40.6684 7.341 41.0552 7.32609C41.189 7.31118 43.6586 9.59238 46.5595 12.3805ZM36.25 16.4807C38.7195 18.8514 40.6832 20.8344 40.6237 20.894C40.5047 21.0133 33.2747 23.1156 33.0069 23.1156C32.9176 23.1156 30.4332 20.7897 27.4877 17.9419L22.1321 12.7682L26.0446 11.635L29.9572 10.5019L30.8647 11.3219C31.3556 11.7841 33.7805 14.0952 36.25 16.4807ZM24.2297 18.9409C27.6216 22.1912 29.5109 24.1146 29.3919 24.1742C29.3026 24.2338 27.5323 24.7557 25.4644 25.3521L21.7155 26.4405L16.3451 21.237C13.0871 18.1059 11.0341 16.0185 11.1531 15.9738C11.9862 15.6905 18.6807 13.7522 18.7551 13.7821C18.8146 13.7821 21.2841 16.108 24.2297 18.9409ZM13.0573 22.221C16.0029 25.039 18.398 27.3649 18.3832 27.3947C18.2195 27.5438 5.41074 31.1371 5.32148 31.0626C5.26197 30.988 4.72641 29.2585 4.13135 27.2158C3.17924 23.9655 3.04535 23.3393 3.04535 22.2956C3.04535 21.3264 3.11974 20.9537 3.41727 20.2827C3.83381 19.3732 4.51814 18.5234 5.23222 18.0164C5.76778 17.6288 7.27032 16.9877 7.52322 17.0473C7.62735 17.0622 10.1118 19.3881 13.0573 22.221ZM18.7253 34.7006C18.7253 34.7453 17.3418 37.1905 15.6459 40.1426L12.5664 45.4804H9.17452H5.78265V40.0383V34.5962H12.254C15.8095 34.5962 18.7253 34.6409 18.7253 34.7006ZM30.4332 34.7006C30.3886 34.7751 29.0051 37.1607 27.3538 40.0383C25.7025 42.901 24.3041 45.3015 24.2446 45.376C24.185 45.4356 22.3106 45.4655 20.094 45.4506L16.0475 45.4058L18.9634 40.3365C20.57 37.5483 21.9684 35.118 22.0874 34.9242C22.2957 34.5962 22.3106 34.5962 26.4017 34.5962C28.648 34.5962 30.463 34.6409 30.4332 34.7006ZM42.0519 34.7304C42.037 34.79 40.6386 37.2501 38.9575 40.1576L35.9078 45.4655L31.7573 45.4804H27.6216L27.8298 45.1374C27.9488 44.9585 29.377 42.5133 30.9837 39.6954L33.9292 34.5962H38.0203C40.2667 34.5962 42.0816 34.6558 42.0519 34.7304ZM50.6803 40.0383L47.5414 45.4804H43.4652C40.9064 45.4804 39.4038 45.4207 39.4336 45.3313C39.4634 45.2567 40.8469 42.8115 42.5279 39.9041L45.5776 34.5962H49.6985H53.8044L50.6803 40.0383ZM64.0991 40.0383V45.4804H57.5385C53.9383 45.4804 51.0225 45.4356 51.0522 45.3611C51.3944 44.7498 56.8988 35.1777 57.0475 34.9242C57.2558 34.5962 57.3004 34.5962 60.6774 34.5962H64.0991V40.0383Z" fill="#00B9C2"/>
</svg>
