<svg width="74" height="76" viewBox="0 0 74 76" fill="none" xmlns="http://www.w3.org/2000/svg">
<path d="M6.46974 0.650299C4.01757 1.29782 1.96186 2.99021 0.889951 5.21239C0.552226 5.90406 0.214502 6.89006 0.126401 7.41986C0.023615 8.09681 -0.020436 15.352 0.00893133 31.7755L0.0529823 55.1747L0.376023 56.146C1.06615 58.1474 2.71072 60.09 4.51681 61.0465C6.46974 62.062 6.42569 62.062 14.7073 62.1208L22.1519 62.1797V60.9288V59.6632H15.1771C10.6252 59.6632 7.95279 59.6043 7.43886 59.5013C5.48593 59.0892 3.87073 57.8089 3.01908 56.0282L2.5492 55.0275L2.50515 43.7989L2.47579 32.5849H6.36695C10.728 32.5849 11.0951 32.5261 11.4328 31.702C11.5943 31.3046 11.5943 31.128 11.3741 30.4363C10.7574 28.4643 11.2419 26.4482 12.6369 25.1384C15.4561 22.5042 19.8465 23.8287 20.7716 27.6108C21.0212 28.6409 20.9919 29.0824 20.5073 30.7748C20.3752 31.2458 20.3752 31.4812 20.5073 31.7755C20.845 32.5114 21.3296 32.5849 25.676 32.5849H29.6405V36.2641V39.9579L28.921 39.8549C27.8785 39.7224 26.3514 40.0315 25.0886 40.6348C21.3296 42.445 19.8759 47.0806 21.8876 50.8628C22.3868 51.8193 23.8846 53.3057 24.7949 53.7766L25.3676 54.0709L25.7494 53.2321C26.3661 51.8488 26.3661 51.834 25.6025 51.3337C24.8096 50.848 24.0754 49.8915 23.6937 48.8908C23.3413 47.9195 23.444 46.0063 23.8992 45.1233C24.3985 44.1521 25.3235 43.2396 26.2486 42.7834C26.9534 42.445 27.2471 42.3861 28.319 42.3861C29.0972 42.4008 29.8021 42.4891 30.1985 42.6363C30.6684 42.8129 30.918 42.8423 31.2117 42.7246C31.9752 42.4302 31.9752 42.4302 31.9899 37.3236V32.5849H35.1322H38.2598L38.2745 33.7917C38.2892 36.6614 39.831 39.1338 42.3566 40.3847C42.8558 40.6201 43.4579 40.8703 43.7075 40.9144C44.148 41.0027 44.148 41.0027 44.3242 40.1492C44.4123 39.6636 44.5298 39.1338 44.5738 38.9572C44.6325 38.7217 44.5738 38.604 44.3829 38.5451C42.2244 37.8976 40.7414 35.9844 40.7414 33.8358C40.7414 33.2178 40.8442 32.4967 41.0057 32.0257C41.314 31.128 41.1819 30.5541 40.6092 30.245C40.389 30.142 38.9059 30.0684 36.1748 30.039L32.0633 30.0096L32.0193 26.9191L31.9899 23.8287L33.2674 23.814C37.4229 23.7845 40.6533 20.5469 40.6533 16.3969C40.6533 14.3807 39.9632 12.7619 38.4507 11.2314C36.953 9.71562 35.3231 9.03866 33.1353 9.03866H31.9899V5.94821V2.85777L43.267 2.8872L54.5293 2.93135L55.4985 3.38755C57.1724 4.18224 58.2883 5.41842 58.8463 7.0961C59.14 7.97908 59.1547 8.27341 59.1547 19.0458V30.0832H54.9698H50.7703L50.4179 30.4511C49.9921 30.8631 49.9627 31.2605 50.2711 32.1435C50.3885 32.4819 50.4913 32.997 50.4913 33.2619V33.7623H51.7394H52.9875V33.1883V32.5997L56.9668 32.5555L60.9461 32.5114L61.2985 32.0993L61.6656 31.6725L61.6215 19.4432L61.5775 7.19911L61.1957 6.22783C60.6231 4.74147 60.0798 3.90263 59.0225 2.85777C57.8772 1.7246 56.6731 1.04764 55.102 0.650299C54.0007 0.355972 53.3987 0.355972 30.7565 0.370686C8.37861 0.370686 7.49759 0.385403 6.46974 0.650299ZM29.6405 7.11081V11.3786L30.0223 11.6729C30.4922 12.0408 30.8299 12.0555 31.755 11.7465C32.7828 11.3933 34.4715 11.5257 35.4406 12.0114C36.3803 12.497 37.2026 13.3211 37.6872 14.263C38.2305 15.3226 38.3039 17.0297 37.8781 18.1776C37.4376 19.3402 36.5859 20.2526 35.3965 20.8412C34.5742 21.2533 34.2512 21.3269 33.3849 21.3269C32.7975 21.3269 32.0046 21.2091 31.52 21.062C30.7712 20.8118 30.6537 20.8118 30.2573 21.0178C30.0223 21.1356 29.7874 21.3563 29.7286 21.474C29.6846 21.6065 29.6405 23.5638 29.6405 25.8301V29.936H26.4982H23.3559L23.3413 28.6409C23.3413 26.5512 22.6658 24.9766 21.1387 23.446C20.0228 22.3423 18.9949 21.7978 17.3503 21.4299C15.0744 20.9443 12.5194 21.7389 10.8014 23.4902C9.289 25.0207 8.64292 26.6101 8.64292 28.7881V29.936H5.55935H2.47579V18.9281C2.47579 8.49416 2.49047 7.86135 2.75477 7.0961C3.40086 5.21239 4.7958 3.81433 6.66063 3.16681C7.51228 2.87248 7.83532 2.87248 18.5984 2.85777H29.6405V7.11081Z" fill="#00B9C2"/>
<path d="M51.2987 36.7801C49.0374 37.7956 47.0698 38.7374 46.923 38.8846C46.5265 39.2819 46.5706 39.8853 47.0992 41.0773C47.7012 42.4607 47.8774 43.3878 47.7012 44.4032C47.4369 46.0368 46.2916 47.5378 44.7939 48.2295C43.7513 48.7151 41.8865 48.6857 40.7999 48.1706C38.9791 47.3171 37.8632 45.4334 37.8632 43.2406C37.8632 42.6961 37.3199 42.1516 36.7472 42.1516C36.4242 42.1516 28.7153 44.9772 27.6287 45.4775C27.3791 45.61 27.0854 45.9043 26.9826 46.1398C26.8211 46.5518 26.9239 46.8903 28.3775 50.8343C29.2439 53.1742 29.9193 55.1609 29.8606 55.2492C29.8165 55.3228 29.655 55.3964 29.5229 55.3964C28.8768 55.3964 27.0707 56.456 26.175 57.3684C24.7213 58.8695 24.0752 60.4883 24.0605 62.6222C24.0605 64.6383 24.8388 66.4484 26.3218 67.8759C28.5537 70.0245 31.6226 70.5543 34.5447 69.3181C34.8677 69.1857 35.1467 69.1121 35.1761 69.1416C35.2201 69.171 35.734 70.5102 36.3361 72.129C37.452 75.1017 37.8044 75.7051 38.4652 75.7051C38.6267 75.7051 41.3138 74.7338 44.4415 73.5565C47.5691 72.3792 50.3737 71.3196 50.682 71.2019L51.2253 71.0105L51.519 71.5845C51.9448 72.4086 53.0901 73.4976 54.1327 74.0568C55.1605 74.6013 55.1165 74.6308 55.5423 73.1739C55.8507 72.1143 55.836 72.0701 55.4248 71.9671C54.9843 71.8641 53.5306 70.466 53.6041 70.2453C53.6481 70.1128 55.6891 69.2593 56.9079 68.8767C57.1869 68.7884 57.275 68.8914 57.7155 69.7744C58.4056 71.2019 60.0355 72.8207 61.5039 73.527C62.5611 74.0274 63.354 74.2629 64.7049 74.4395L65.3216 74.5278V73.2916V72.0554L64.4259 71.8935C62.5905 71.5698 61.2102 70.6426 60.1676 69.0385C59.639 68.2144 59.1545 66.6692 59.1545 65.7568C59.1545 65.433 58.6552 64.8444 56.6729 62.8282C54.0592 60.1645 53.839 59.8261 54.0739 58.8401C54.2061 58.3103 54.9256 57.6627 55.4836 57.545C56.3939 57.3684 56.8785 57.751 61.3864 62.2837L65.7621 66.6545L66.5991 65.8009L67.4507 64.9621L66.1879 63.6818L64.9251 62.3867L65.116 61.6509C65.395 60.4883 65.3657 58.5604 65.0279 57.3831C64.8664 56.8092 64.2497 55.0579 63.6477 53.4833C63.0603 51.9086 62.5905 50.5841 62.6198 50.5694C62.6932 50.4664 69.7854 55.4111 70.3728 55.9703C71.5328 57.0594 71.4887 56.6326 71.4887 66.0953V74.5278H72.7369H73.9996L73.9556 65.8009L73.9115 57.0741L73.3536 55.9556C72.9718 55.1757 72.5606 54.6164 72.0174 54.1161C71.5915 53.7334 68.9778 51.8497 66.2026 49.9513C63.4421 48.0529 61.0927 46.3605 60.9899 46.1986C60.8871 46.0368 59.9327 43.5497 58.8755 40.68C57.6274 37.3246 56.8345 35.3673 56.6289 35.1908C56.4674 35.0583 56.1296 34.9406 55.8653 34.9406C55.601 34.9406 53.6775 35.7205 51.2987 36.7801ZM58.9636 47.9646C62.4583 57.3095 62.7079 58.0454 62.7813 59.1491L62.8548 60.3264L60.5201 58.0159C57.8623 55.367 57.3484 55.0432 55.7626 55.0432C53.4425 55.0432 51.519 56.9563 51.519 59.2963C51.519 60.8415 51.7833 61.283 54.3529 63.8878L56.7023 66.2718L56.2765 66.4484C52.6202 67.8612 39.5224 72.7618 39.3903 72.7618C39.3022 72.7618 38.6708 71.3049 38.01 69.5242C37.2024 67.3609 36.6885 66.1983 36.4829 66.0658C35.9543 65.6832 35.3523 65.8009 34.5447 66.4043C32.9442 67.611 30.9178 67.7876 29.1998 66.8605C26.6008 65.4772 25.8226 62.3131 27.4231 59.7819C28.216 58.5457 29.934 57.6039 31.4464 57.6039C32.3568 57.6039 33.0176 57.1035 33.0176 56.3824C33.0176 56.2794 32.2834 54.2338 31.3877 51.8203C30.4479 49.3038 29.8019 47.376 29.8753 47.3171C29.9487 47.2435 31.1674 46.7579 32.5771 46.2281C33.9867 45.6983 35.2495 45.2274 35.3816 45.1685C35.5725 45.0949 35.6459 45.1979 35.7194 45.5658C35.9837 47.008 37.4374 49.0095 38.8617 49.9366C40.0951 50.7313 41.1376 51.0256 42.7822 51.0403C44.4415 51.0551 45.3518 50.8196 46.6734 50.0102C49.5954 48.2589 50.9316 44.5651 49.845 41.3422C49.6395 40.7683 49.5367 40.2974 49.5807 40.2679C49.6395 40.2532 50.8435 39.7087 52.2532 39.0612C53.6628 38.4284 54.9109 37.9133 55.0284 37.928C55.1458 37.9427 56.6729 41.8573 58.9636 47.9646Z" fill="#00B9C2"/>
</svg>
