<svg width="59" height="73" viewBox="0 0 59 73" fill="none" xmlns="http://www.w3.org/2000/svg">
<path d="M59 20.1212V72.9381H0V0.777344H39.5343L59 20.1212ZM40.8462 18.8175H51.235L40.8462 8.49375V18.8175ZM54.4615 23.3276H36.3077V5.28739H4.53846V68.428H54.4615V23.3276ZM36.3077 32.3477H49.9231V45.8778H36.3077V32.3477ZM40.8462 41.3677H45.3846V36.8577H40.8462V41.3677ZM9.07692 36.8577H31.7692V41.3677H9.07692V36.8577ZM9.07692 18.8175H31.7692V23.3276H9.07692V18.8175ZM36.3077 50.3878H49.9231V63.918H36.3077V50.3878ZM40.8462 59.4079H45.3846V54.8979H40.8462V59.4079ZM9.07692 54.8979H31.7692V59.4079H9.07692V54.8979Z" fill="#00B9C2"/>
</svg>
