<svg width="81" height="63" viewBox="0 0 81 63" fill="none" xmlns="http://www.w3.org/2000/svg">
<path d="M75.8316 0.114273C68.5343 0.891529 61.7851 5.43678 55.7897 13.5642L54.9503 14.7132H37.2552H19.5601V12.4659C19.5601 8.61339 18.8749 6.78853 16.6309 4.52435C14.661 2.56432 12.554 1.70258 9.67624 1.70258C5.32526 1.70258 1.40254 4.71022 0.289101 8.90064C-0.0877546 10.3538 -0.104884 53.8294 0.289101 55.2656C0.974294 57.8339 2.99561 60.284 5.34239 61.4161C7.63779 62.5144 7.99752 62.5481 18.481 62.4975L27.8167 62.4468L29.3413 60.8416L30.8487 59.2364L32.4418 60.8923L34.0348 62.5312H52.8091C71.5491 62.5312 71.5834 62.5312 72.0459 62.1764L72.4912 61.8385V57.8001V53.7618L71.7718 53.1873C71.3607 52.8663 70.5898 52.3087 70.0246 51.9538L69.031 51.3117L69.425 51.0414C71.2065 49.8755 72.1829 49.0983 72.3199 48.7434C72.4227 48.49 72.4912 42.5592 72.4912 33.739V19.1739L73.1593 17.4842C74.8894 13.1417 77.9214 6.9406 80.0969 3.35847C80.9362 1.97293 81.0733 1.63499 80.9705 1.19567C80.7821 0.367725 80.2853 0.164967 78.2811 0.0973778C77.3218 0.0804787 76.2084 0.0804787 75.8316 0.114273ZM73.7417 4.16952C67.2495 9.57651 61.9222 16.3353 57.8795 24.3106L56.3036 27.4027L55.5841 23.8375L54.8647 20.2553L55.2587 19.4781C55.9096 18.2108 58.0337 15.1018 59.3869 13.429C63.7037 8.10649 68.0546 4.92988 73.0051 3.45985C75.1635 2.81777 75.2663 2.90226 73.7417 4.16952ZM12.6054 4.96367C14.5925 5.8761 15.843 7.27854 16.4939 9.32306C16.8022 10.3031 16.8194 11.1817 16.8194 29.5824V48.8279L17.2134 49.2503C17.7958 49.9093 18.3782 49.96 19.012 49.4362L19.5601 48.98V33.1983V17.4167H36.4159H53.2716L52.6892 18.4643C52.3809 19.0556 52.1068 19.7653 52.1068 20.0357C52.1068 20.3229 52.6378 23.1616 53.2887 26.3551L54.4536 32.1338L54.0424 33.4349C53.323 35.6315 52.2609 39.9233 52.1582 40.9878C52.0383 42.2719 52.398 42.8295 53.3744 42.8295C54.3508 42.8295 54.6077 42.4409 55.1045 40.1429C55.4471 38.5377 56.8175 33.6545 56.9545 33.5362C56.9716 33.5194 59.524 32.9449 62.6245 32.269C66.1875 31.4917 68.3801 30.9341 68.637 30.7314C68.9111 30.5286 69.1167 30.0386 69.3394 29.1262L69.6648 27.8082L69.7162 37.5239C69.7333 42.8633 69.7162 47.3241 69.682 47.4255C69.6477 47.5268 68.7398 48.2027 67.6606 48.9293C65.5023 50.3824 65.2967 50.5852 65.2967 51.2104C65.2967 51.8862 65.6565 52.2411 67.7634 53.6773L69.7333 55.0122L69.7505 57.4115V59.8278H52.5008L35.2339 59.8447L33.3496 57.8846C30.7973 55.2318 30.9172 55.2318 28.382 57.8508L26.4806 59.8278H18.087C13.4791 59.8278 9.26512 59.7602 8.69984 59.6588C5.61647 59.1688 3.2183 56.7525 2.77292 53.728C2.55024 52.2242 2.55024 11.9252 2.77292 10.4045C3.09839 8.25856 4.1947 6.58577 6.04472 5.40299C7.32945 4.59194 8.11742 4.40607 9.96744 4.45676C11.3207 4.49056 11.7661 4.59194 12.6054 4.96367ZM73.6903 9.50893C71.1551 14.6963 68.9625 20.3736 67.3009 26.1185L66.5643 28.6362L62.6416 29.5317C60.4661 30.0217 58.5647 30.4103 58.4105 30.4272C58.1536 30.4272 58.205 30.2414 58.6846 29.1093C61.3911 22.9926 64.4231 18.0587 68.4657 13.2431C69.9903 11.4352 74.6153 6.77163 74.8894 6.77163C74.9751 6.77163 74.4269 8.0051 73.6903 9.50893Z" fill="#00B9C2"/>
</svg>
