<svg width="74" height="69" viewBox="0 0 74 69" fill="none" xmlns="http://www.w3.org/2000/svg">
<path d="M20.6488 68.6479C22.3278 68.6479 23.4695 67.7906 25.4837 66.0127L37.1017 55.9007H58.623C68.6279 55.9007 74 50.4659 74 40.8135V15.5819C74 5.93087 68.6279 0.496094 58.623 0.496094H15.377C5.40646 0.496094 0 5.89854 0 15.5819V40.8135C0 50.4982 5.40503 55.9007 15.377 55.9007H16.9887V64.4639C16.9887 67.0007 18.3324 68.6479 20.6488 68.6479ZM22.0241 62.62V53.0674C22.0241 51.2895 21.3536 50.5966 19.5071 50.5966H15.41C8.59532 50.5966 5.40503 47.2039 5.40503 40.7811V15.5819C5.40503 9.15912 8.59532 5.80016 15.4114 5.80016H58.623C65.4047 5.80016 68.5935 9.15912 68.5935 15.5819V40.7811C68.5935 47.2039 65.4047 50.5966 58.623 50.5966H36.8653C35.0188 50.5966 34.0461 50.8608 32.7682 52.1454L22.0241 62.62ZM37.2349 34.8517C38.8466 34.8517 39.7863 33.962 39.8207 32.2502L40.2906 14.8581C40.3235 13.1772 38.9812 11.9264 37.202 11.9264C35.3884 11.9264 34.112 13.1449 34.1464 14.8244L34.6162 32.2502C34.6506 33.9297 35.556 34.8517 37.2349 34.8517ZM37.2349 45.5568C39.1832 45.5568 40.8607 44.0417 40.8607 42.1318C40.8607 40.2204 39.2162 38.7053 37.2364 38.7053C35.2537 38.7053 33.6091 40.2541 33.6091 42.1318C33.6091 44.0094 35.2881 45.5568 37.2349 45.5568Z" fill="#00B9C2"/>
</svg>
