<svg width="77" height="108" viewBox="0 0 77 108" fill="none" xmlns="http://www.w3.org/2000/svg">
<path d="M3.86506 84.0744H0V66.078H3.86506V76.4131L11.286 68.906V66.078H15.151V84.0744H11.286V73.7393L5.97796 79.1125C4.43193 80.6551 3.86506 81.632 3.86506 84.0744Z" fill="#006879"/>
<path d="M16.7474 87.9308V80.6808H18.01C19.4271 80.6808 19.8652 79.7039 19.9683 78.2384L20.8959 66.078H32.9033V80.6808H35.2224V87.9308H31.615L31.3573 84.0744H20.6124L20.3548 87.9308H16.7474ZM23.7045 78.1099C23.6014 79.3696 23.3953 80.0124 22.7769 80.6808H29.0383V69.4716H24.3487L23.7045 78.1099Z" fill="#006879"/>
<path d="M41.5143 79.0354L34.8407 66.1809V66.078H39.1953L43.5242 74.6392L47.2346 66.078H51.3316V66.1809L43.2407 84.0744H39.1438V83.9716L41.5143 79.0354Z" fill="#006879"/>
<path d="M61.6728 84.0744V66.078H65.5379V73.1995H67.8827L72.2631 66.078H76.5919V66.1809L71.0005 75.0248L73.0619 78.0071C73.8606 79.1897 74.7883 80.5266 76.3085 80.5266C76.5146 80.5266 76.7208 80.5008 76.9012 80.4751V84.1515C76.3858 84.2801 75.8705 84.3315 75.4324 84.3315C72.4692 84.3315 70.8717 81.8634 69.3256 79.3953L67.5992 76.5931H65.5379V84.0744H61.6728Z" fill="#006879"/>
<path d="M7.42091 108H0V90.0036H7.21477C10.4872 90.0036 12.9351 91.649 12.9351 94.6313C12.9351 96.3538 12.1363 97.7935 10.5645 98.4362C12.4713 99.0532 13.8627 100.287 13.8627 102.73C13.8627 106.072 11.2344 108 7.42091 108ZM6.8025 100.467H3.86506V104.709H6.8025C8.94117 104.709 9.89455 104.041 9.89455 102.575C9.89455 101.11 8.94117 100.467 6.8025 100.467ZM6.54483 93.2944H3.86506V97.1765H6.51906C8.27122 97.1765 9.04423 96.4309 9.04423 95.2226C9.04423 94.0143 8.29699 93.2944 6.54483 93.2944Z" fill="#006879"/>
<path d="M15.9796 108V90.0036H23.2459C26.9048 90.0036 29.3269 92.3432 29.3269 95.8396C29.3269 99.336 26.9048 101.676 23.2459 101.676H19.8447V108H15.9796ZM22.7563 93.3972H19.8447V98.282H22.7563C24.4312 98.282 25.333 97.3821 25.333 95.8396C25.333 94.2971 24.4312 93.3972 22.7563 93.3972Z" fill="#006879"/>
<path d="M32.8015 108H29.0652V107.229C29.0652 103.501 30.4309 99.2589 31.8996 95.8396L34.4248 90.0036H39.5009L42.0261 95.8396C43.7524 99.8502 44.8604 103.501 44.8604 107.229V108H40.9954V107.229C40.9954 106.149 40.8923 105.095 40.6862 104.067H33.1107C32.9303 105.095 32.8015 106.149 32.8015 107.229V108ZM34.0383 100.673H39.7843C39.3463 99.3103 39.0371 98.4105 38.5217 97.2022L36.9757 93.6029H36.8727L35.3266 97.2022C34.8113 98.4105 34.5021 99.3103 34.0383 100.673Z" fill="#006879"/>
<path d="M51.7515 101.778C47.5515 101.778 45.2582 99.516 45.2582 95.8396V90.0036H49.1233V95.3254C49.1233 97.305 49.7674 98.3848 52.2668 98.3848H55.0497V90.0036H58.9147V108H55.0497V101.778H51.7515Z" fill="#006879"/>
<path d="M67.1828 102.961L60.5091 90.1065V90.0036H64.8637L69.1926 98.5648L72.903 90.0036H77V90.1065L68.9091 108H64.8122V107.897L67.1828 102.961Z" fill="#006879"/>
<path fill-rule="evenodd" clip-rule="evenodd" d="M15.3166 0.000710004C13.7651 -0.0269162 12.5992 0.752426 11.9922 2.20411C10.6702 1.34439 9.26747 1.35751 8.00213 2.25098C6.40209 3.37869 5.79551 5.3486 6.41805 7.39162C7.48252 10.8933 11.6505 12.6108 15.1955 13.0506L15.3509 13.0699L15.4684 12.9667C18.1502 10.6111 20.6238 6.85039 19.5263 3.35887C18.8877 1.32082 17.2746 0.033782 15.3166 0.000710004Z" fill="#E76E70"/>
<path fill-rule="evenodd" clip-rule="evenodd" d="M36.0427 7.75208C37.3417 5.83422 40.1133 4.68663 43.7761 4.55008C44.2264 4.53328 45.3287 4.56098 45.8524 4.60224C46.8722 4.68254 47.9946 4.8827 48.892 5.14423C51.0184 5.76396 52.3186 6.69976 52.1311 7.46337C52.1328 7.48385 52.1336 7.5043 52.1335 7.52469C52.1318 7.79904 52.0643 7.87122 51.8093 7.87122C51.6914 7.87122 51.1404 7.77848 50.5606 7.66432C51.1493 8.01461 51.7756 8.49953 52.2066 8.94442C53.2295 10.0003 53.6919 11.036 53.9143 12.7693C53.9449 13.0078 53.9654 13.4292 53.975 13.8975C53.9991 14.4539 53.9927 15.0425 53.9557 15.6489C53.9518 15.719 53.9475 15.7844 53.9428 15.844C53.9085 16.3248 53.8551 16.8157 53.7827 17.3096C53.6926 17.9245 53.5737 18.5117 53.3759 19.3184C53.3663 19.3571 53.3571 19.3955 53.3483 19.4329C53.3744 19.4794 53.4187 19.5441 53.4687 19.6069C53.9649 20.2313 54.1193 21.1594 53.9024 22.1387C53.9041 22.1371 53.9058 22.1364 53.9078 22.1368C53.9078 22.1368 53.9112 22.1382 53.913 22.14C53.9248 22.1517 53.9261 22.1822 53.9158 22.2077C53.9045 22.2358 53.8961 22.2274 53.8943 22.1863C53.8942 22.1823 53.8941 22.1785 53.8942 22.175C53.869 22.2843 53.8392 22.3943 53.8047 22.5044C53.5419 23.3443 52.6989 24.3418 51.9214 24.7329C51.7464 24.821 51.7371 24.8332 51.6601 25.0786C51.5495 25.4305 51.3298 25.8805 51.1015 26.2231C50.9239 26.4893 50.4059 27.0476 50.0228 27.3855C48.9912 28.2955 47.3638 29.0575 45.817 29.3546C45.4097 29.4329 44.8614 29.4815 44.3846 29.4816L43.9713 29.4817L43.9113 29.7038C43.9381 29.7182 43.9284 29.7915 43.8768 29.973C43.8502 30.0667 43.8078 30.2183 43.7668 30.3661C43.7838 30.3802 43.9263 30.4404 44.0853 30.5006C44.2456 30.5612 44.5797 30.6988 44.8278 30.8064C45.0758 30.914 45.5037 31.0788 45.7786 31.1728C46.9828 31.5843 48.4131 32.1291 49.1888 32.4718C49.4608 32.592 50.1004 32.9002 50.1219 32.9214C50.1268 32.9262 50.1113 33.0162 50.0863 33.1311C50.0913 33.1632 50.087 33.2254 50.0741 33.3142L54.1027 29.4457C54.0514 28.7009 54.1166 27.5813 54.2528 27.2713C54.3731 26.9977 54.6371 26.8006 55.1207 26.6231C55.1958 26.5954 55.2516 26.5385 55.293 26.4472C55.4431 26.1163 55.7642 25.7173 56.0092 25.5574C56.2074 25.428 56.3635 25.404 56.543 25.4755C56.7469 25.5566 56.7851 25.6651 56.7807 26.1511L56.7771 26.5442L56.9654 26.3917C57.2186 26.1867 57.4247 26.0709 57.6258 26.0211C57.7752 25.984 57.8097 25.9877 57.9512 26.0559C58.063 26.1097 58.1207 26.1641 58.1478 26.2415C58.213 26.4274 58.1903 26.6942 58.0824 27.0109C58.026 27.1759 57.9846 27.3156 57.9902 27.3214C57.9958 27.3272 58.106 27.2586 58.2351 27.1688C58.5997 26.9154 58.9593 26.8149 59.19 26.9021C59.2939 26.9413 59.3929 27.1365 59.3929 27.3019C59.3929 27.4298 59.2986 27.7346 59.2007 27.9228C59.1688 27.9842 59.1518 28.0344 59.163 28.0344C59.1743 28.0344 59.2757 27.9698 59.3884 27.8907C59.6339 27.7185 59.8327 27.678 59.9755 27.771C60.1681 27.8964 60.2152 28.1063 60.1256 28.4403C60.0773 28.6207 59.8497 29.0629 59.75 29.1702C59.7195 29.203 59.6547 29.3063 59.6059 29.3998C59.5571 29.4933 59.3983 29.7445 59.253 29.958C58.9513 30.4014 58.2357 31.1418 57.8762 31.3824C57.5843 31.5778 57.1358 31.7985 56.9665 31.8301C56.8756 31.8471 56.794 31.8967 56.7188 31.9808C56.6572 32.0497 56.509 32.2105 56.3897 32.338C56.2703 32.4655 56.105 32.6493 56.0224 32.7463C55.9397 32.8434 55.7672 33.0392 55.639 33.1814C55.5108 33.3236 55.373 33.4824 55.3326 33.5343C55.2923 33.5862 55.2474 33.6339 55.2329 33.6402C55.2185 33.6465 55.0919 33.7815 54.9517 33.9402C54.1834 34.8098 52.9139 36.1045 52.4541 36.4873C51.8814 36.9641 51.2574 37.3005 50.6525 37.4585C50.3705 37.5321 50.3155 37.536 50.0624 37.5005C49.8354 37.4685 49.556 37.3914 49.3974 37.323L48.8338 37.8994L48.8919 37.6803C48.7653 38.0827 48.6663 38.3846 48.6536 38.3977C48.6462 38.4054 48.4362 38.3543 48.1869 38.2842C47.9375 38.214 47.0867 37.9892 46.2961 37.7845C45.5055 37.5798 44.7468 37.3817 44.6102 37.3442C44.034 37.1862 43.9155 37.157 43.9029 37.1701C43.8956 37.1776 43.7529 37.7317 43.5858 38.4015C42.7593 41.7143 42.3495 43.7747 42.206 45.4046C42.1794 45.7467 42.1609 46.0901 42.1486 46.4481L42.1435 46.5965L42.1368 46.5941C42.1356 46.6114 42.1344 46.627 42.1331 46.6413C42.4336 46.7416 42.8535 46.8964 43.2389 47.0503C43.4624 47.1395 43.7525 47.34 43.9116 47.5151C44.411 48.0651 44.8255 49.1874 45.1244 50.7997C45.1658 51.023 45.2145 51.2771 45.2328 51.3645C45.2894 51.6354 45.4396 52.5712 45.4622 52.7939C45.474 52.9105 45.4984 53.0853 45.5163 53.1823C45.6077 53.6754 45.826 55.0681 45.852 55.324L46.0761 56.5834C46.2566 56.5177 46.447 56.4608 46.6317 56.4207C46.7497 56.3946 46.9181 56.3719 47.006 56.37C47.0538 56.369 47.0888 56.368 47.1211 56.3772C47.2097 56.4009 47.2784 56.4975 47.5367 56.8582L47.5384 56.8606C47.6425 57.0064 47.7518 57.1431 47.7814 57.1648C47.8276 57.1991 47.8237 57.2107 47.7526 57.2484C47.542 57.3604 47.228 57.7158 47.1203 57.964C47.0839 58.0481 47.0877 58.0712 47.1476 58.1311C47.242 58.2248 47.3122 58.1886 47.3944 58.0041C47.4905 57.7883 47.7837 57.4918 48.018 57.3739C48.2172 57.2735 48.7096 57.2006 48.7096 57.2716C48.7096 57.2889 48.6504 57.3348 48.5779 57.3735C48.4136 57.4604 48.0793 57.7825 47.9484 57.9805C47.8309 58.1577 47.8427 58.3088 47.9738 58.3069C48.0312 58.3059 48.0964 58.2417 48.2103 58.0737C48.4436 57.7294 48.746 57.5217 49.1822 57.4053C49.3424 57.3628 49.597 57.3725 49.597 57.4213C49.597 57.4333 49.5211 57.4831 49.4284 57.5314C49.2256 57.6376 48.7879 58.0621 48.6918 58.2456C48.6278 58.3682 48.627 58.3822 48.6812 58.4358C48.7629 58.517 48.8248 58.4822 48.9883 58.262C49.2579 57.8988 49.6427 57.6458 50.0507 57.5623C50.2699 57.5174 50.2858 57.5198 50.955 57.6869C51.8262 57.9047 52.3471 58.0824 52.88 58.3426C53.349 58.572 53.5721 58.7517 53.5721 58.8994C53.5721 59.0274 53.2354 59.3451 52.9163 59.5185C51.6191 60.2231 48.6364 60.8595 44.5392 61.3062C43.1212 61.4608 42.6746 61.4979 42.6438 61.4627C42.6288 61.4453 42.5806 61.2966 42.5367 61.1314C42.4927 60.9663 42.3527 60.4819 42.2256 60.055C41.9004 58.9627 41.7956 58.588 41.7824 58.4701L41.7708 58.3678L42.3209 58.2876L42.3269 58.2866L41.8204 56.5424L41.7738 56.4506C41.7482 56.3999 41.6995 56.2715 41.6656 56.1647C41.6317 56.058 41.5582 55.8513 41.5022 55.706C41.4463 55.5601 41.3191 55.2187 41.2198 54.9469C41.0202 54.4012 40.9109 54.1129 40.6444 53.4291C40.5461 53.177 40.4109 52.8274 40.344 52.6527C40.2772 52.478 40.208 52.3033 40.1903 52.2645C40.1726 52.2257 40.0931 52.0271 40.0136 51.8233L39.9994 51.7869C39.8332 51.3606 39.794 51.2601 39.7226 51.2257C39.7007 51.2151 39.6756 51.2108 39.6428 51.2051L39.6338 51.2035C39.5598 51.1906 39.3959 51.1592 39.2697 51.1338C39.2067 51.1211 39.1467 51.1112 39.1007 51.1055C38.889 51.5129 38.662 51.8724 38.426 52.1692C38.2531 52.3866 38.1836 52.4489 38.1138 52.4489C38.0644 52.4489 37.4789 52.3688 36.8128 52.2709C36.1466 52.173 35.5812 52.0976 35.5565 52.1032C35.5317 52.1089 35.2827 52.3131 35.0031 52.557C34.3466 53.1297 33.6431 53.6899 32.5507 54.5108L31.6713 55.1714L31.5569 55.0768C31.4587 54.9961 31.2593 54.7894 31.0356 54.5422L30.6437 54.8232C30.3683 55.0212 30.0335 55.2279 29.8902 55.2892C29.649 55.3926 29.6035 55.3998 29.1886 55.4027C28.9347 55.4047 28.6463 55.3849 28.5143 55.3573C28.2008 55.2912 27.5191 55.1101 27.4317 55.0695C27.3927 55.0516 27.2011 54.9807 27.0058 54.9121C26.8106 54.8435 26.619 54.7721 26.5799 54.7532C26.5409 54.7344 26.3412 54.6484 26.1363 54.5625C25.5326 54.3094 25.2171 54.1708 24.8494 53.998C24.659 53.9086 24.4948 53.8352 24.4847 53.8352C24.4745 53.8352 24.3508 53.7782 24.2098 53.7082C24.0688 53.6387 23.8816 53.5532 23.7937 53.5179C23.7059 53.4832 23.3865 53.3359 23.0839 53.191C22.7813 53.0462 22.4379 52.8834 22.3208 52.8298C22.2037 52.7763 22.0901 52.7184 22.0685 52.7012C22.0107 52.6807 21.9517 52.66 21.8918 52.6391C21.6752 52.5633 21.4476 52.4836 21.2274 52.3907C21.144 52.7558 20.9762 53.2702 20.8821 53.4214C20.7978 53.5571 20.7336 53.5715 20.1498 53.5865L19.789 53.5962L19.7663 53.4021C19.7374 53.1548 19.6932 53.007 19.5789 52.7754C19.5019 52.6193 19.4723 52.59 19.3906 52.59C19.2436 52.59 19.2404 52.6729 19.3775 52.9346C19.5981 53.3552 19.5752 53.9076 19.3255 54.1858L19.2253 54.2969L19.2069 53.9468C19.1884 53.5933 19.0929 53.2499 18.9825 53.1403C18.8765 53.035 18.691 53.1958 18.7865 53.3103C18.8078 53.3359 18.8581 53.4503 18.8984 53.5643C19.0463 53.9835 18.9683 54.6166 18.741 54.8426L18.6576 54.9251L18.6368 54.5431C18.6074 54.0047 18.4837 53.6488 18.326 53.6488C18.2126 53.6488 18.2047 53.7439 18.296 54.0144C18.4151 54.3674 18.4168 54.9594 18.2994 55.2144C18.1224 55.5997 16.6847 56.7838 15.9617 57.1402C15.2983 57.4671 15.1745 57.3512 15.2141 56.4405C15.2298 56.0783 15.2597 55.8948 15.3754 55.4491C15.6428 54.419 16.1114 53.179 16.8276 51.6055C17.2297 50.7221 18.4004 48.382 18.8027 47.6576C18.9347 47.4198 19.0487 47.2252 19.0561 47.2252C19.0635 47.2252 19.2021 47.2724 19.3642 47.33C19.5262 47.3876 19.9224 47.5154 20.2445 47.614C21.1643 47.8954 21.9261 48.1415 21.9769 48.1734C21.9899 48.1816 21.9933 48.2013 21.9846 48.2397C22.3936 48.4266 23.4388 48.9274 23.4388 48.9425C23.4388 48.961 23.448 48.9671 23.4592 48.9559C23.4704 48.9448 23.6262 48.975 23.8053 49.0232C23.9844 49.0713 24.2986 49.1476 24.5036 49.1927C24.7086 49.2378 24.9801 49.2998 25.107 49.3303C25.7385 49.4826 26.2699 49.6051 26.5855 49.6713C27.0316 49.765 27.3281 49.8333 27.4882 49.8799L27.4867 49.8776L27.5683 49.7972C27.5607 49.7863 27.5527 49.7746 27.5441 49.7623L27.4729 49.6602L28.1177 49.0511L28.1004 48.9723C28.0756 48.8589 28.0623 48.6871 28.0593 48.4911C27.9949 47.6801 28.1456 46.8384 28.519 45.9114C28.6835 45.5031 28.9732 44.9172 29.1902 44.5541L29.2714 44.4181L29.0849 44.2405C28.937 44.0997 28.7621 43.8957 28.6962 43.7871L28.5765 43.5897L28.6203 43.4839C28.5979 43.4419 28.5852 43.4081 28.5852 43.3863C28.5852 43.3559 28.7864 42.8474 29.0322 42.2564C29.278 41.6654 29.5638 40.9754 29.6673 40.723C30.0879 39.6973 31.1681 37.0944 31.8639 35.4302C31.9684 35.1803 32.0611 34.9549 32.1218 34.8044C31.9017 34.7856 31.2034 34.7452 30.3883 34.7048C29.4064 34.6563 28.5891 34.6039 28.5722 34.5883C28.568 34.5845 28.5643 34.5171 28.5612 34.4037C28.5501 34.4025 28.5425 34.4007 28.5425 34.4007C28.527 34.3912 28.5137 34.2692 28.5131 34.1296C28.5121 33.8957 28.5078 33.8813 28.4586 33.9463C28.4292 33.9852 28.3219 34.1106 28.2201 34.2251C28.1184 34.3396 28.0121 34.4667 27.9839 34.5075C27.9557 34.5483 27.8199 34.71 27.6822 34.8668C27.5444 35.0236 27.304 35.308 27.1478 35.4987C26.9916 35.6894 26.8359 35.8748 26.8017 35.9106C26.7676 35.9465 26.7396 35.9897 26.7396 36.0068C26.7396 36.0238 26.713 36.0596 26.6805 36.0862C26.6479 36.1128 26.5761 36.1966 26.5208 36.2723C26.4655 36.348 26.4202 36.3917 26.4202 36.3694C26.4202 36.347 26.4025 36.3288 26.3809 36.3288C26.3592 36.3288 26.3516 36.3545 26.3639 36.3864C26.378 36.4231 26.3342 36.5124 26.2434 36.632C26.165 36.7353 26.1008 36.838 26.1008 36.8601C26.1008 36.8822 26.1319 36.9437 26.1699 36.9968C26.2079 37.05 26.3221 37.2668 26.4235 37.4788C26.8406 38.3507 27.0122 39.0346 26.9791 39.6941C26.9632 40.0128 26.8975 40.3741 26.8467 40.423C26.8366 40.4327 26.8044 40.4824 26.7751 40.5334C26.6434 40.763 26.5204 40.9149 26.3011 41.1189C26.1714 41.2395 26.0653 41.3535 26.0653 41.372C26.0653 41.4327 25.8866 41.6189 25.7233 41.7285C25.5392 41.852 25.1946 41.976 25.0353 41.976C24.9752 41.976 24.8763 41.9504 24.8156 41.9192C24.736 41.8783 24.6448 41.8671 24.489 41.879C24.1953 41.9015 23.9829 41.8184 23.6556 41.5532C23.4257 41.3668 23.3747 41.3407 23.241 41.3407C23.1571 41.3407 23.0435 41.3238 22.9886 41.3032C22.8733 41.2601 22.6225 41.0291 22.6225 40.9661C22.6225 40.8894 22.4193 40.7512 22.2721 40.7279C22.107 40.7016 21.8416 40.4779 21.8416 40.365C21.8416 40.327 21.8217 40.276 21.7973 40.2518C21.7678 40.2224 21.7538 40.0988 21.7555 39.883C21.7589 39.4566 21.8801 38.9895 22.1966 38.1817C22.2727 37.9876 22.4179 37.6144 22.5194 37.3523C22.7229 36.8265 22.8405 36.5758 22.9217 36.4951C22.9512 36.4658 23.1462 36.1107 23.3551 35.7059C23.6931 35.0511 24.4782 33.556 24.9464 32.6757C25.0394 32.501 25.2601 32.1199 25.4369 31.8287C26.1822 30.6015 26.7111 30.0244 27.4566 29.6251C27.8022 29.44 28.0373 29.3706 28.3428 29.3636L28.5846 29.358L28.5852 28.8882L28.7538 28.8673C29.3977 28.7879 31.1617 28.6771 32.5427 28.6293C33.9933 28.5791 34.6926 28.6042 37.1212 28.7936C37.5117 28.824 37.9476 28.8642 38.0899 28.8829L38.1172 28.8865C38.3636 28.9188 38.4569 28.9311 38.4984 28.8907C38.5237 28.8661 38.5298 28.822 38.5395 28.751C38.5401 28.7467 38.5407 28.7424 38.5413 28.738C38.5568 28.6256 38.5812 28.5649 38.6067 28.5746C38.6348 28.5853 38.6462 28.5233 38.6437 28.3741C38.64 28.1666 38.635 28.1553 38.5195 28.0908C38.2505 27.941 37.784 27.6636 37.6004 27.5443C36.9325 27.1105 35.8162 26.0692 35.6323 25.7084C35.5409 25.5289 35.5317 25.5217 35.4239 25.5434C35.0792 25.613 34.6651 25.608 34.2978 25.5299C33.92 25.4496 33.2652 25.2138 33.162 25.121C33.1307 25.0927 33.0884 25.0696 33.0681 25.0696C33.0166 25.0696 32.5816 24.7766 32.3475 24.5842C31.5876 23.9596 31.0353 23.047 30.8149 22.0519C30.7426 21.725 30.7549 20.7344 30.8349 20.446C30.9958 19.8661 31.2566 19.4649 31.7026 19.1108C31.7135 19.1022 31.7235 19.0948 31.7326 19.0881C31.7527 19.0732 31.7686 19.0615 31.7801 19.0465C31.788 19.0362 31.7938 19.0245 31.7976 19.0092C31.7233 18.6664 31.5938 17.8674 31.5341 17.348C31.4058 16.2314 31.3384 14.8734 31.3733 14.1833C31.3792 13.6634 31.4089 13.3733 31.5362 12.3281C31.7398 10.6559 31.9774 10.0061 32.6025 9.4112C33.0301 9.00428 33.6909 8.63957 34.1612 8.55088C34.3658 8.5123 34.6872 8.50798 34.9166 8.53414C34.4186 8.22771 33.9524 8.08299 33.3945 8.05814C32.9736 8.03936 32.6507 8.09149 32.3789 8.22208L32.2354 8.29105L32.2602 8.14288C32.264 8.12016 32.2681 8.09748 32.2725 8.07487L32.241 8.08876V8.01062C32.241 7.88546 32.3739 7.44325 32.4784 7.22086C32.6002 6.96169 32.8091 6.67597 32.9612 6.56059C33.5219 6.13532 34.2599 6.2465 34.8958 6.85213C35.2431 7.18284 35.4623 7.52563 35.6768 8.07362L35.7453 8.24865L35.8085 8.12656C35.8433 8.0594 35.9486 7.8909 36.0427 7.75208ZM53.3265 23.5775C53.3496 23.529 53.3844 23.4694 53.4037 23.4452C53.423 23.4209 53.4454 23.4011 53.4535 23.4011C53.474 23.4011 53.4109 23.5111 53.3421 23.5951C53.2864 23.6632 53.2858 23.6626 53.3265 23.5775ZM52.5674 24.3182C52.542 24.3178 52.5463 24.304 52.5783 24.2834C52.6465 24.2396 52.6588 24.2396 52.6316 24.2834C52.6195 24.3028 52.5906 24.3185 52.5674 24.3182Z" fill="#006879"/>
</svg>
